<?xml version="1.0" encoding="utf-8" standalone="no"?>
<!DOCTYPE svg PUBLIC "-//W3C//DTD SVG 1.1//EN"
  "http://www.w3.org/Graphics/SVG/1.1/DTD/svg11.dtd">
<svg xmlns:xlink="http://www.w3.org/1999/xlink" width="868.260284pt" height="347.64375pt" viewBox="0 0 868.260284 347.64375" xmlns="http://www.w3.org/2000/svg" version="1.1">
 <metadata>
  <rdf:RDF xmlns:dc="http://purl.org/dc/elements/1.1/" xmlns:cc="http://creativecommons.org/ns#" xmlns:rdf="http://www.w3.org/1999/02/22-rdf-syntax-ns#">
   <cc:Work>
    <dc:type rdf:resource="http://purl.org/dc/dcmitype/StillImage"/>
    <dc:date>2025-07-01T17:52:11.010615</dc:date>
    <dc:format>image/svg+xml</dc:format>
    <dc:creator>
     <cc:Agent>
      <dc:title>Matplotlib v3.5.1, https://matplotlib.org/</dc:title>
     </cc:Agent>
    </dc:creator>
   </cc:Work>
  </rdf:RDF>
 </metadata>
 <defs>
  <style type="text/css">*{stroke-linejoin: round; stroke-linecap: butt}</style>
 </defs>
 <g id="figure_1">
  <g id="patch_1">
   <path d="M 0 347.64375 
L 868.260284 347.64375 
L 868.260284 0 
L 0 0 
z
" style="fill: #ffffff"/>
  </g>
  <g id="axes_1">
   <g id="patch_2">
    <path d="M 113.887199 276.953248 
C 96.17756 265.561443 81.608476 249.903256 71.520728 231.4197 
C 61.43298 212.936143 56.145819 192.212172 56.145819 171.155 
C 56.145819 150.097828 61.43298 129.373857 71.520728 110.8903 
C 81.608476 92.406744 96.17756 76.748557 113.887199 65.356752 
C 91.464356 72.527377 71.891297 86.644099 58.009753 105.65737 
C 44.128208 124.67064 36.644146 147.613511 36.644146 171.155 
C 36.644146 194.696489 44.128208 217.63936 58.009753 236.65263 
C 71.891297 255.665901 91.464356 269.782623 113.887199 276.953248 
" clip-path="url(#pdc82779fd5)" style="fill: #c44e52; opacity: 0.4"/>
   </g>
   <g id="patch_3">
    <path d="M 113.887199 65.356752 
C 130.540926 60.031039 148.219209 58.712015 165.478871 61.507359 
C 182.738532 64.302704 199.096768 71.134222 213.218163 81.44422 
C 227.339559 91.754218 238.829096 105.254293 246.748821 120.84236 
C 254.668546 136.430426 258.796919 153.670439 258.796919 171.155 
C 258.796919 188.639561 254.668546 205.879574 246.748821 221.46764 
C 238.829096 237.055707 227.339559 250.555782 213.218163 260.86578 
C 199.096768 271.175778 182.738532 278.007296 165.478871 280.802641 
C 148.219209 283.597985 130.540926 282.278961 113.887199 276.953248 
C 132.887997 289.175597 154.835089 296.056519 177.412831 296.870005 
C 199.990573 297.683491 222.375958 292.399889 242.207099 281.576671 
C 262.03824 270.753454 278.592249 254.785151 290.12251 235.356583 
C 301.65277 215.928014 307.738979 193.747392 307.738979 171.155 
C 307.738979 148.562608 301.65277 126.381986 290.12251 106.953417 
C 278.592249 87.524849 262.03824 71.556546 242.207099 60.733329 
C 222.375958 49.910111 199.990573 44.626509 177.412831 45.439995 
C 154.835089 46.253481 132.887997 53.134403 113.887199 65.356752 
" clip-path="url(#pdc82779fd5)" style="fill: #55a868; opacity: 0.4"/>
   </g>
   <g id="patch_4">
    <path d="M 113.887199 276.953248 
C 130.540926 282.278961 148.219209 283.597985 165.478871 280.802641 
C 182.738532 278.007296 199.096768 271.175778 213.218163 260.86578 
C 227.339559 250.555782 238.829096 237.055707 246.748821 221.46764 
C 254.668546 205.879574 258.796919 188.639561 258.796919 171.155 
C 258.796919 153.670439 254.668546 136.430426 246.748821 120.84236 
C 238.829096 105.254293 227.339559 91.754218 213.218163 81.44422 
C 199.096768 71.134222 182.738532 64.302704 165.478871 61.507359 
C 148.219209 58.712015 130.540926 60.031039 113.887199 65.356752 
C 96.17756 76.748557 81.608476 92.406744 71.520728 110.8903 
C 61.43298 129.373857 56.145819 150.097828 56.145819 171.155 
C 56.145819 192.212172 61.43298 212.936143 71.520728 231.4197 
C 81.608476 249.903256 96.17756 265.561443 113.887199 276.953248 
" clip-path="url(#pdc82779fd5)" style="fill: #c5ac82; opacity: 0.4"/>
   </g>
   <g id="text_1">
    <!-- 4 -->
    <g style="fill: #262626" transform="translate(42.577483 174.46625)scale(0.12 -0.12)">
     <defs>
      <path id="DejaVuSans-34" d="M 2419 4116 
L 825 1625 
L 2419 1625 
L 2419 4116 
z
M 2253 4666 
L 3047 4666 
L 3047 1625 
L 3713 1625 
L 3713 1100 
L 3047 1100 
L 3047 0 
L 2419 0 
L 2419 1100 
L 313 1100 
L 313 1709 
L 2253 4666 
z
" transform="scale(0.015625)"/>
     </defs>
     <use xlink:href="#DejaVuSans-34"/>
    </g>
   </g>
   <g id="text_2">
    <!-- 17 -->
    <g style="fill: #262626" transform="translate(275.632949 174.46625)scale(0.12 -0.12)">
     <defs>
      <path id="DejaVuSans-31" d="M 794 531 
L 1825 531 
L 1825 4091 
L 703 3866 
L 703 4441 
L 1819 4666 
L 2450 4666 
L 2450 531 
L 3481 531 
L 3481 0 
L 794 0 
L 794 531 
z
" transform="scale(0.015625)"/>
      <path id="DejaVuSans-37" d="M 525 4666 
L 3525 4666 
L 3525 4397 
L 1831 0 
L 1172 0 
L 2766 4134 
L 525 4134 
L 525 4666 
z
" transform="scale(0.015625)"/>
     </defs>
     <use xlink:href="#DejaVuSans-31"/>
     <use xlink:href="#DejaVuSans-37" x="63.623047"/>
    </g>
   </g>
   <g id="text_3">
    <!-- 42 -->
    <g style="fill: #262626" transform="translate(149.836369 174.46625)scale(0.12 -0.12)">
     <defs>
      <path id="DejaVuSans-32" d="M 1228 531 
L 3431 531 
L 3431 0 
L 469 0 
L 469 531 
Q 828 903 1448 1529 
Q 2069 2156 2228 2338 
Q 2531 2678 2651 2914 
Q 2772 3150 2772 3378 
Q 2772 3750 2511 3984 
Q 2250 4219 1831 4219 
Q 1534 4219 1204 4116 
Q 875 4013 500 3803 
L 500 4441 
Q 881 4594 1212 4672 
Q 1544 4750 1819 4750 
Q 2544 4750 2975 4387 
Q 3406 4025 3406 3419 
Q 3406 3131 3298 2873 
Q 3191 2616 2906 2266 
Q 2828 2175 2409 1742 
Q 1991 1309 1228 531 
z
" transform="scale(0.015625)"/>
     </defs>
     <use xlink:href="#DejaVuSans-34"/>
     <use xlink:href="#DejaVuSans-32" x="63.623047"/>
    </g>
   </g>
   <g id="text_4">
    <!-- ctl.00.bed -->
    <g style="fill: #262626" transform="translate(75.536033 305.016785)scale(0.144 -0.144)">
     <defs>
      <path id="DejaVuSans-63" d="M 3122 3366 
L 3122 2828 
Q 2878 2963 2633 3030 
Q 2388 3097 2138 3097 
Q 1578 3097 1268 2742 
Q 959 2388 959 1747 
Q 959 1106 1268 751 
Q 1578 397 2138 397 
Q 2388 397 2633 464 
Q 2878 531 3122 666 
L 3122 134 
Q 2881 22 2623 -34 
Q 2366 -91 2075 -91 
Q 1284 -91 818 406 
Q 353 903 353 1747 
Q 353 2603 823 3093 
Q 1294 3584 2113 3584 
Q 2378 3584 2631 3529 
Q 2884 3475 3122 3366 
z
" transform="scale(0.015625)"/>
      <path id="DejaVuSans-74" d="M 1172 4494 
L 1172 3500 
L 2356 3500 
L 2356 3053 
L 1172 3053 
L 1172 1153 
Q 1172 725 1289 603 
Q 1406 481 1766 481 
L 2356 481 
L 2356 0 
L 1766 0 
Q 1100 0 847 248 
Q 594 497 594 1153 
L 594 3053 
L 172 3053 
L 172 3500 
L 594 3500 
L 594 4494 
L 1172 4494 
z
" transform="scale(0.015625)"/>
      <path id="DejaVuSans-6c" d="M 603 4863 
L 1178 4863 
L 1178 0 
L 603 0 
L 603 4863 
z
" transform="scale(0.015625)"/>
      <path id="DejaVuSans-2e" d="M 684 794 
L 1344 794 
L 1344 0 
L 684 0 
L 684 794 
z
" transform="scale(0.015625)"/>
      <path id="DejaVuSans-30" d="M 2034 4250 
Q 1547 4250 1301 3770 
Q 1056 3291 1056 2328 
Q 1056 1369 1301 889 
Q 1547 409 2034 409 
Q 2525 409 2770 889 
Q 3016 1369 3016 2328 
Q 3016 3291 2770 3770 
Q 2525 4250 2034 4250 
z
M 2034 4750 
Q 2819 4750 3233 4129 
Q 3647 3509 3647 2328 
Q 3647 1150 3233 529 
Q 2819 -91 2034 -91 
Q 1250 -91 836 529 
Q 422 1150 422 2328 
Q 422 3509 836 4129 
Q 1250 4750 2034 4750 
z
" transform="scale(0.015625)"/>
      <path id="DejaVuSans-62" d="M 3116 1747 
Q 3116 2381 2855 2742 
Q 2594 3103 2138 3103 
Q 1681 3103 1420 2742 
Q 1159 2381 1159 1747 
Q 1159 1113 1420 752 
Q 1681 391 2138 391 
Q 2594 391 2855 752 
Q 3116 1113 3116 1747 
z
M 1159 2969 
Q 1341 3281 1617 3432 
Q 1894 3584 2278 3584 
Q 2916 3584 3314 3078 
Q 3713 2572 3713 1747 
Q 3713 922 3314 415 
Q 2916 -91 2278 -91 
Q 1894 -91 1617 61 
Q 1341 213 1159 525 
L 1159 0 
L 581 0 
L 581 4863 
L 1159 4863 
L 1159 2969 
z
" transform="scale(0.015625)"/>
      <path id="DejaVuSans-65" d="M 3597 1894 
L 3597 1613 
L 953 1613 
Q 991 1019 1311 708 
Q 1631 397 2203 397 
Q 2534 397 2845 478 
Q 3156 559 3463 722 
L 3463 178 
Q 3153 47 2828 -22 
Q 2503 -91 2169 -91 
Q 1331 -91 842 396 
Q 353 884 353 1716 
Q 353 2575 817 3079 
Q 1281 3584 2069 3584 
Q 2775 3584 3186 3129 
Q 3597 2675 3597 1894 
z
M 3022 2063 
Q 3016 2534 2758 2815 
Q 2500 3097 2075 3097 
Q 1594 3097 1305 2825 
Q 1016 2553 972 2059 
L 3022 2063 
z
" transform="scale(0.015625)"/>
      <path id="DejaVuSans-64" d="M 2906 2969 
L 2906 4863 
L 3481 4863 
L 3481 0 
L 2906 0 
L 2906 525 
Q 2725 213 2448 61 
Q 2172 -91 1784 -91 
Q 1150 -91 751 415 
Q 353 922 353 1747 
Q 353 2572 751 3078 
Q 1150 3584 1784 3584 
Q 2172 3584 2448 3432 
Q 2725 3281 2906 2969 
z
M 947 1747 
Q 947 1113 1208 752 
Q 1469 391 1925 391 
Q 2381 391 2643 752 
Q 2906 1113 2906 1747 
Q 2906 2381 2643 2742 
Q 2381 3103 1925 3103 
Q 1469 3103 1208 2742 
Q 947 2381 947 1747 
z
" transform="scale(0.015625)"/>
     </defs>
     <use xlink:href="#DejaVuSans-63"/>
     <use xlink:href="#DejaVuSans-74" x="54.980469"/>
     <use xlink:href="#DejaVuSans-6c" x="94.189453"/>
     <use xlink:href="#DejaVuSans-2e" x="121.972656"/>
     <use xlink:href="#DejaVuSans-30" x="153.759766"/>
     <use xlink:href="#DejaVuSans-30" x="217.382812"/>
     <use xlink:href="#DejaVuSans-2e" x="281.005859"/>
     <use xlink:href="#DejaVuSans-62" x="312.792969"/>
     <use xlink:href="#DejaVuSans-65" x="376.269531"/>
     <use xlink:href="#DejaVuSans-64" x="437.792969"/>
    </g>
   </g>
   <g id="text_5">
    <!-- ifit3.00.bed -->
    <g style="fill: #262626" transform="translate(181.942399 319.736978)scale(0.144 -0.144)">
     <defs>
      <path id="DejaVuSans-69" d="M 603 3500 
L 1178 3500 
L 1178 0 
L 603 0 
L 603 3500 
z
M 603 4863 
L 1178 4863 
L 1178 4134 
L 603 4134 
L 603 4863 
z
" transform="scale(0.015625)"/>
      <path id="DejaVuSans-66" d="M 2375 4863 
L 2375 4384 
L 1825 4384 
Q 1516 4384 1395 4259 
Q 1275 4134 1275 3809 
L 1275 3500 
L 2222 3500 
L 2222 3053 
L 1275 3053 
L 1275 0 
L 697 0 
L 697 3053 
L 147 3053 
L 147 3500 
L 697 3500 
L 697 3744 
Q 697 4328 969 4595 
Q 1241 4863 1831 4863 
L 2375 4863 
z
" transform="scale(0.015625)"/>
      <path id="DejaVuSans-33" d="M 2597 2516 
Q 3050 2419 3304 2112 
Q 3559 1806 3559 1356 
Q 3559 666 3084 287 
Q 2609 -91 1734 -91 
Q 1441 -91 1130 -33 
Q 819 25 488 141 
L 488 750 
Q 750 597 1062 519 
Q 1375 441 1716 441 
Q 2309 441 2620 675 
Q 2931 909 2931 1356 
Q 2931 1769 2642 2001 
Q 2353 2234 1838 2234 
L 1294 2234 
L 1294 2753 
L 1863 2753 
Q 2328 2753 2575 2939 
Q 2822 3125 2822 3475 
Q 2822 3834 2567 4026 
Q 2313 4219 1838 4219 
Q 1578 4219 1281 4162 
Q 984 4106 628 3988 
L 628 4550 
Q 988 4650 1302 4700 
Q 1616 4750 1894 4750 
Q 2613 4750 3031 4423 
Q 3450 4097 3450 3541 
Q 3450 3153 3228 2886 
Q 3006 2619 2597 2516 
z
" transform="scale(0.015625)"/>
     </defs>
     <use xlink:href="#DejaVuSans-69"/>
     <use xlink:href="#DejaVuSans-66" x="27.783203"/>
     <use xlink:href="#DejaVuSans-69" x="62.988281"/>
     <use xlink:href="#DejaVuSans-74" x="90.771484"/>
     <use xlink:href="#DejaVuSans-33" x="129.980469"/>
     <use xlink:href="#DejaVuSans-2e" x="193.603516"/>
     <use xlink:href="#DejaVuSans-30" x="225.390625"/>
     <use xlink:href="#DejaVuSans-30" x="289.013672"/>
     <use xlink:href="#DejaVuSans-2e" x="352.636719"/>
     <use xlink:href="#DejaVuSans-62" x="384.423828"/>
     <use xlink:href="#DejaVuSans-65" x="447.900391"/>
     <use xlink:href="#DejaVuSans-64" x="509.423828"/>
    </g>
   </g>
   <g id="text_6">
    <!-- All ≥1% edits expressed in all reps (n=3 per condition) -->
    <g style="fill: #262626" transform="translate(7.2 16.318125)scale(0.12 -0.12)">
     <defs>
      <path id="DejaVuSans-41" d="M 2188 4044 
L 1331 1722 
L 3047 1722 
L 2188 4044 
z
M 1831 4666 
L 2547 4666 
L 4325 0 
L 3669 0 
L 3244 1197 
L 1141 1197 
L 716 0 
L 50 0 
L 1831 4666 
z
" transform="scale(0.015625)"/>
      <path id="DejaVuSans-20" transform="scale(0.015625)"/>
      <path id="DejaVuSans-2265" d="M 678 3175 
L 678 3725 
L 4684 2578 
L 4684 2047 
L 678 897 
L 678 1453 
L 3681 2309 
L 678 3175 
z
M 4684 531 
L 4684 0 
L 678 0 
L 678 531 
L 4684 531 
z
" transform="scale(0.015625)"/>
      <path id="DejaVuSans-25" d="M 4653 2053 
Q 4381 2053 4226 1822 
Q 4072 1591 4072 1178 
Q 4072 772 4226 539 
Q 4381 306 4653 306 
Q 4919 306 5073 539 
Q 5228 772 5228 1178 
Q 5228 1588 5073 1820 
Q 4919 2053 4653 2053 
z
M 4653 2450 
Q 5147 2450 5437 2106 
Q 5728 1763 5728 1178 
Q 5728 594 5436 251 
Q 5144 -91 4653 -91 
Q 4153 -91 3862 251 
Q 3572 594 3572 1178 
Q 3572 1766 3864 2108 
Q 4156 2450 4653 2450 
z
M 1428 4353 
Q 1159 4353 1004 4120 
Q 850 3888 850 3481 
Q 850 3069 1003 2837 
Q 1156 2606 1428 2606 
Q 1700 2606 1854 2837 
Q 2009 3069 2009 3481 
Q 2009 3884 1853 4118 
Q 1697 4353 1428 4353 
z
M 4250 4750 
L 4750 4750 
L 1831 -91 
L 1331 -91 
L 4250 4750 
z
M 1428 4750 
Q 1922 4750 2215 4408 
Q 2509 4066 2509 3481 
Q 2509 2891 2217 2550 
Q 1925 2209 1428 2209 
Q 931 2209 642 2551 
Q 353 2894 353 3481 
Q 353 4063 643 4406 
Q 934 4750 1428 4750 
z
" transform="scale(0.015625)"/>
      <path id="DejaVuSans-73" d="M 2834 3397 
L 2834 2853 
Q 2591 2978 2328 3040 
Q 2066 3103 1784 3103 
Q 1356 3103 1142 2972 
Q 928 2841 928 2578 
Q 928 2378 1081 2264 
Q 1234 2150 1697 2047 
L 1894 2003 
Q 2506 1872 2764 1633 
Q 3022 1394 3022 966 
Q 3022 478 2636 193 
Q 2250 -91 1575 -91 
Q 1294 -91 989 -36 
Q 684 19 347 128 
L 347 722 
Q 666 556 975 473 
Q 1284 391 1588 391 
Q 1994 391 2212 530 
Q 2431 669 2431 922 
Q 2431 1156 2273 1281 
Q 2116 1406 1581 1522 
L 1381 1569 
Q 847 1681 609 1914 
Q 372 2147 372 2553 
Q 372 3047 722 3315 
Q 1072 3584 1716 3584 
Q 2034 3584 2315 3537 
Q 2597 3491 2834 3397 
z
" transform="scale(0.015625)"/>
      <path id="DejaVuSans-78" d="M 3513 3500 
L 2247 1797 
L 3578 0 
L 2900 0 
L 1881 1375 
L 863 0 
L 184 0 
L 1544 1831 
L 300 3500 
L 978 3500 
L 1906 2253 
L 2834 3500 
L 3513 3500 
z
" transform="scale(0.015625)"/>
      <path id="DejaVuSans-70" d="M 1159 525 
L 1159 -1331 
L 581 -1331 
L 581 3500 
L 1159 3500 
L 1159 2969 
Q 1341 3281 1617 3432 
Q 1894 3584 2278 3584 
Q 2916 3584 3314 3078 
Q 3713 2572 3713 1747 
Q 3713 922 3314 415 
Q 2916 -91 2278 -91 
Q 1894 -91 1617 61 
Q 1341 213 1159 525 
z
M 3116 1747 
Q 3116 2381 2855 2742 
Q 2594 3103 2138 3103 
Q 1681 3103 1420 2742 
Q 1159 2381 1159 1747 
Q 1159 1113 1420 752 
Q 1681 391 2138 391 
Q 2594 391 2855 752 
Q 3116 1113 3116 1747 
z
" transform="scale(0.015625)"/>
      <path id="DejaVuSans-72" d="M 2631 2963 
Q 2534 3019 2420 3045 
Q 2306 3072 2169 3072 
Q 1681 3072 1420 2755 
Q 1159 2438 1159 1844 
L 1159 0 
L 581 0 
L 581 3500 
L 1159 3500 
L 1159 2956 
Q 1341 3275 1631 3429 
Q 1922 3584 2338 3584 
Q 2397 3584 2469 3576 
Q 2541 3569 2628 3553 
L 2631 2963 
z
" transform="scale(0.015625)"/>
      <path id="DejaVuSans-6e" d="M 3513 2113 
L 3513 0 
L 2938 0 
L 2938 2094 
Q 2938 2591 2744 2837 
Q 2550 3084 2163 3084 
Q 1697 3084 1428 2787 
Q 1159 2491 1159 1978 
L 1159 0 
L 581 0 
L 581 3500 
L 1159 3500 
L 1159 2956 
Q 1366 3272 1645 3428 
Q 1925 3584 2291 3584 
Q 2894 3584 3203 3211 
Q 3513 2838 3513 2113 
z
" transform="scale(0.015625)"/>
      <path id="DejaVuSans-61" d="M 2194 1759 
Q 1497 1759 1228 1600 
Q 959 1441 959 1056 
Q 959 750 1161 570 
Q 1363 391 1709 391 
Q 2188 391 2477 730 
Q 2766 1069 2766 1631 
L 2766 1759 
L 2194 1759 
z
M 3341 1997 
L 3341 0 
L 2766 0 
L 2766 531 
Q 2569 213 2275 61 
Q 1981 -91 1556 -91 
Q 1019 -91 701 211 
Q 384 513 384 1019 
Q 384 1609 779 1909 
Q 1175 2209 1959 2209 
L 2766 2209 
L 2766 2266 
Q 2766 2663 2505 2880 
Q 2244 3097 1772 3097 
Q 1472 3097 1187 3025 
Q 903 2953 641 2809 
L 641 3341 
Q 956 3463 1253 3523 
Q 1550 3584 1831 3584 
Q 2591 3584 2966 3190 
Q 3341 2797 3341 1997 
z
" transform="scale(0.015625)"/>
      <path id="DejaVuSans-28" d="M 1984 4856 
Q 1566 4138 1362 3434 
Q 1159 2731 1159 2009 
Q 1159 1288 1364 580 
Q 1569 -128 1984 -844 
L 1484 -844 
Q 1016 -109 783 600 
Q 550 1309 550 2009 
Q 550 2706 781 3412 
Q 1013 4119 1484 4856 
L 1984 4856 
z
" transform="scale(0.015625)"/>
      <path id="DejaVuSans-3d" d="M 678 2906 
L 4684 2906 
L 4684 2381 
L 678 2381 
L 678 2906 
z
M 678 1631 
L 4684 1631 
L 4684 1100 
L 678 1100 
L 678 1631 
z
" transform="scale(0.015625)"/>
      <path id="DejaVuSans-6f" d="M 1959 3097 
Q 1497 3097 1228 2736 
Q 959 2375 959 1747 
Q 959 1119 1226 758 
Q 1494 397 1959 397 
Q 2419 397 2687 759 
Q 2956 1122 2956 1747 
Q 2956 2369 2687 2733 
Q 2419 3097 1959 3097 
z
M 1959 3584 
Q 2709 3584 3137 3096 
Q 3566 2609 3566 1747 
Q 3566 888 3137 398 
Q 2709 -91 1959 -91 
Q 1206 -91 779 398 
Q 353 888 353 1747 
Q 353 2609 779 3096 
Q 1206 3584 1959 3584 
z
" transform="scale(0.015625)"/>
      <path id="DejaVuSans-29" d="M 513 4856 
L 1013 4856 
Q 1481 4119 1714 3412 
Q 1947 2706 1947 2009 
Q 1947 1309 1714 600 
Q 1481 -109 1013 -844 
L 513 -844 
Q 928 -128 1133 580 
Q 1338 1288 1338 2009 
Q 1338 2731 1133 3434 
Q 928 4138 513 4856 
z
" transform="scale(0.015625)"/>
     </defs>
     <use xlink:href="#DejaVuSans-41"/>
     <use xlink:href="#DejaVuSans-6c" x="68.408203"/>
     <use xlink:href="#DejaVuSans-6c" x="96.191406"/>
     <use xlink:href="#DejaVuSans-20" x="123.974609"/>
     <use xlink:href="#DejaVuSans-2265" x="155.761719"/>
     <use xlink:href="#DejaVuSans-31" x="239.550781"/>
     <use xlink:href="#DejaVuSans-25" x="303.173828"/>
     <use xlink:href="#DejaVuSans-20" x="398.193359"/>
     <use xlink:href="#DejaVuSans-65" x="429.980469"/>
     <use xlink:href="#DejaVuSans-64" x="491.503906"/>
     <use xlink:href="#DejaVuSans-69" x="554.980469"/>
     <use xlink:href="#DejaVuSans-74" x="582.763672"/>
     <use xlink:href="#DejaVuSans-73" x="621.972656"/>
     <use xlink:href="#DejaVuSans-20" x="674.072266"/>
     <use xlink:href="#DejaVuSans-65" x="705.859375"/>
     <use xlink:href="#DejaVuSans-78" x="765.632812"/>
     <use xlink:href="#DejaVuSans-70" x="824.8125"/>
     <use xlink:href="#DejaVuSans-72" x="888.289062"/>
     <use xlink:href="#DejaVuSans-65" x="927.152344"/>
     <use xlink:href="#DejaVuSans-73" x="988.675781"/>
     <use xlink:href="#DejaVuSans-73" x="1040.775391"/>
     <use xlink:href="#DejaVuSans-65" x="1092.875"/>
     <use xlink:href="#DejaVuSans-64" x="1154.398438"/>
     <use xlink:href="#DejaVuSans-20" x="1217.875"/>
     <use xlink:href="#DejaVuSans-69" x="1249.662109"/>
     <use xlink:href="#DejaVuSans-6e" x="1277.445312"/>
     <use xlink:href="#DejaVuSans-20" x="1340.824219"/>
     <use xlink:href="#DejaVuSans-61" x="1372.611328"/>
     <use xlink:href="#DejaVuSans-6c" x="1433.890625"/>
     <use xlink:href="#DejaVuSans-6c" x="1461.673828"/>
     <use xlink:href="#DejaVuSans-20" x="1489.457031"/>
     <use xlink:href="#DejaVuSans-72" x="1521.244141"/>
     <use xlink:href="#DejaVuSans-65" x="1560.107422"/>
     <use xlink:href="#DejaVuSans-70" x="1621.630859"/>
     <use xlink:href="#DejaVuSans-73" x="1685.107422"/>
     <use xlink:href="#DejaVuSans-20" x="1737.207031"/>
     <use xlink:href="#DejaVuSans-28" x="1768.994141"/>
     <use xlink:href="#DejaVuSans-6e" x="1808.007812"/>
     <use xlink:href="#DejaVuSans-3d" x="1871.386719"/>
     <use xlink:href="#DejaVuSans-33" x="1955.175781"/>
     <use xlink:href="#DejaVuSans-20" x="2018.798828"/>
     <use xlink:href="#DejaVuSans-70" x="2050.585938"/>
     <use xlink:href="#DejaVuSans-65" x="2114.0625"/>
     <use xlink:href="#DejaVuSans-72" x="2175.585938"/>
     <use xlink:href="#DejaVuSans-20" x="2216.699219"/>
     <use xlink:href="#DejaVuSans-63" x="2248.486328"/>
     <use xlink:href="#DejaVuSans-6f" x="2303.466797"/>
     <use xlink:href="#DejaVuSans-6e" x="2364.648438"/>
     <use xlink:href="#DejaVuSans-64" x="2428.027344"/>
     <use xlink:href="#DejaVuSans-69" x="2491.503906"/>
     <use xlink:href="#DejaVuSans-74" x="2519.287109"/>
     <use xlink:href="#DejaVuSans-69" x="2558.496094"/>
     <use xlink:href="#DejaVuSans-6f" x="2586.279297"/>
     <use xlink:href="#DejaVuSans-6e" x="2647.460938"/>
     <use xlink:href="#DejaVuSans-29" x="2710.839844"/>
    </g>
   </g>
  </g>
  <g id="axes_2">
   <g id="patch_5">
    <path d="M 426.330909 319.991875 
L 861.060284 319.991875 
L 861.060284 22.318125 
L 426.330909 22.318125 
z
" style="fill: #ffffff"/>
   </g>
   <g id="matplotlib.axis_1">
    <g id="xtick_1">
     <g id="text_7">
      <!-- ADAR-Ctl_only -->
      <g style="fill: #262626" transform="translate(441.5138 337.850156)scale(0.11 -0.11)">
       <defs>
        <path id="DejaVuSans-44" d="M 1259 4147 
L 1259 519 
L 2022 519 
Q 2988 519 3436 956 
Q 3884 1394 3884 2338 
Q 3884 3275 3436 3711 
Q 2988 4147 2022 4147 
L 1259 4147 
z
M 628 4666 
L 1925 4666 
Q 3281 4666 3915 4102 
Q 4550 3538 4550 2338 
Q 4550 1131 3912 565 
Q 3275 0 1925 0 
L 628 0 
L 628 4666 
z
" transform="scale(0.015625)"/>
        <path id="DejaVuSans-52" d="M 2841 2188 
Q 3044 2119 3236 1894 
Q 3428 1669 3622 1275 
L 4263 0 
L 3584 0 
L 2988 1197 
Q 2756 1666 2539 1819 
Q 2322 1972 1947 1972 
L 1259 1972 
L 1259 0 
L 628 0 
L 628 4666 
L 2053 4666 
Q 2853 4666 3247 4331 
Q 3641 3997 3641 3322 
Q 3641 2881 3436 2590 
Q 3231 2300 2841 2188 
z
M 1259 4147 
L 1259 2491 
L 2053 2491 
Q 2509 2491 2742 2702 
Q 2975 2913 2975 3322 
Q 2975 3731 2742 3939 
Q 2509 4147 2053 4147 
L 1259 4147 
z
" transform="scale(0.015625)"/>
        <path id="DejaVuSans-2d" d="M 313 2009 
L 1997 2009 
L 1997 1497 
L 313 1497 
L 313 2009 
z
" transform="scale(0.015625)"/>
        <path id="DejaVuSans-43" d="M 4122 4306 
L 4122 3641 
Q 3803 3938 3442 4084 
Q 3081 4231 2675 4231 
Q 1875 4231 1450 3742 
Q 1025 3253 1025 2328 
Q 1025 1406 1450 917 
Q 1875 428 2675 428 
Q 3081 428 3442 575 
Q 3803 722 4122 1019 
L 4122 359 
Q 3791 134 3420 21 
Q 3050 -91 2638 -91 
Q 1578 -91 968 557 
Q 359 1206 359 2328 
Q 359 3453 968 4101 
Q 1578 4750 2638 4750 
Q 3056 4750 3426 4639 
Q 3797 4528 4122 4306 
z
" transform="scale(0.015625)"/>
        <path id="DejaVuSans-5f" d="M 3263 -1063 
L 3263 -1509 
L -63 -1509 
L -63 -1063 
L 3263 -1063 
z
" transform="scale(0.015625)"/>
        <path id="DejaVuSans-79" d="M 2059 -325 
Q 1816 -950 1584 -1140 
Q 1353 -1331 966 -1331 
L 506 -1331 
L 506 -850 
L 844 -850 
Q 1081 -850 1212 -737 
Q 1344 -625 1503 -206 
L 1606 56 
L 191 3500 
L 800 3500 
L 1894 763 
L 2988 3500 
L 3597 3500 
L 2059 -325 
z
" transform="scale(0.015625)"/>
       </defs>
       <use xlink:href="#DejaVuSans-41"/>
       <use xlink:href="#DejaVuSans-44" x="68.408203"/>
       <use xlink:href="#DejaVuSans-41" x="143.660156"/>
       <use xlink:href="#DejaVuSans-52" x="212.068359"/>
       <use xlink:href="#DejaVuSans-2d" x="277.550781"/>
       <use xlink:href="#DejaVuSans-43" x="313.634766"/>
       <use xlink:href="#DejaVuSans-74" x="383.458984"/>
       <use xlink:href="#DejaVuSans-6c" x="422.667969"/>
       <use xlink:href="#DejaVuSans-5f" x="450.451172"/>
       <use xlink:href="#DejaVuSans-6f" x="500.451172"/>
       <use xlink:href="#DejaVuSans-6e" x="561.632812"/>
       <use xlink:href="#DejaVuSans-6c" x="625.011719"/>
       <use xlink:href="#DejaVuSans-79" x="652.794922"/>
      </g>
     </g>
    </g>
    <g id="xtick_2">
     <g id="text_8">
      <!-- ADAR-Ctl_shared -->
      <g style="fill: #262626" transform="translate(543.095987 337.850156)scale(0.11 -0.11)">
       <defs>
        <path id="DejaVuSans-68" d="M 3513 2113 
L 3513 0 
L 2938 0 
L 2938 2094 
Q 2938 2591 2744 2837 
Q 2550 3084 2163 3084 
Q 1697 3084 1428 2787 
Q 1159 2491 1159 1978 
L 1159 0 
L 581 0 
L 581 4863 
L 1159 4863 
L 1159 2956 
Q 1366 3272 1645 3428 
Q 1925 3584 2291 3584 
Q 2894 3584 3203 3211 
Q 3513 2838 3513 2113 
z
" transform="scale(0.015625)"/>
       </defs>
       <use xlink:href="#DejaVuSans-41"/>
       <use xlink:href="#DejaVuSans-44" x="68.408203"/>
       <use xlink:href="#DejaVuSans-41" x="143.660156"/>
       <use xlink:href="#DejaVuSans-52" x="212.068359"/>
       <use xlink:href="#DejaVuSans-2d" x="277.550781"/>
       <use xlink:href="#DejaVuSans-43" x="313.634766"/>
       <use xlink:href="#DejaVuSans-74" x="383.458984"/>
       <use xlink:href="#DejaVuSans-6c" x="422.667969"/>
       <use xlink:href="#DejaVuSans-5f" x="450.451172"/>
       <use xlink:href="#DejaVuSans-73" x="500.451172"/>
       <use xlink:href="#DejaVuSans-68" x="552.550781"/>
       <use xlink:href="#DejaVuSans-61" x="615.929688"/>
       <use xlink:href="#DejaVuSans-72" x="677.208984"/>
       <use xlink:href="#DejaVuSans-65" x="716.072266"/>
       <use xlink:href="#DejaVuSans-64" x="777.595703"/>
      </g>
     </g>
    </g>
    <g id="xtick_3">
     <g id="text_9">
      <!-- IFIT3-ADAR_shared -->
      <g style="fill: #262626" transform="translate(645.939737 337.850156)scale(0.11 -0.11)">
       <defs>
        <path id="DejaVuSans-49" d="M 628 4666 
L 1259 4666 
L 1259 0 
L 628 0 
L 628 4666 
z
" transform="scale(0.015625)"/>
        <path id="DejaVuSans-46" d="M 628 4666 
L 3309 4666 
L 3309 4134 
L 1259 4134 
L 1259 2759 
L 3109 2759 
L 3109 2228 
L 1259 2228 
L 1259 0 
L 628 0 
L 628 4666 
z
" transform="scale(0.015625)"/>
        <path id="DejaVuSans-54" d="M -19 4666 
L 3928 4666 
L 3928 4134 
L 2272 4134 
L 2272 0 
L 1638 0 
L 1638 4134 
L -19 4134 
L -19 4666 
z
" transform="scale(0.015625)"/>
       </defs>
       <use xlink:href="#DejaVuSans-49"/>
       <use xlink:href="#DejaVuSans-46" x="29.492188"/>
       <use xlink:href="#DejaVuSans-49" x="87.011719"/>
       <use xlink:href="#DejaVuSans-54" x="116.503906"/>
       <use xlink:href="#DejaVuSans-33" x="177.587891"/>
       <use xlink:href="#DejaVuSans-2d" x="241.210938"/>
       <use xlink:href="#DejaVuSans-41" x="275.044922"/>
       <use xlink:href="#DejaVuSans-44" x="343.453125"/>
       <use xlink:href="#DejaVuSans-41" x="418.705078"/>
       <use xlink:href="#DejaVuSans-52" x="487.113281"/>
       <use xlink:href="#DejaVuSans-5f" x="556.595703"/>
       <use xlink:href="#DejaVuSans-73" x="606.595703"/>
       <use xlink:href="#DejaVuSans-68" x="658.695312"/>
       <use xlink:href="#DejaVuSans-61" x="722.074219"/>
       <use xlink:href="#DejaVuSans-72" x="783.353516"/>
       <use xlink:href="#DejaVuSans-65" x="822.216797"/>
       <use xlink:href="#DejaVuSans-64" x="883.740234"/>
      </g>
     </g>
    </g>
    <g id="xtick_4">
     <g id="text_10">
      <!-- IFIT3-ADAR_only -->
      <g style="fill: #262626" transform="translate(761.722237 337.850156)scale(0.11 -0.11)">
       <use xlink:href="#DejaVuSans-49"/>
       <use xlink:href="#DejaVuSans-46" x="29.492188"/>
       <use xlink:href="#DejaVuSans-49" x="87.011719"/>
       <use xlink:href="#DejaVuSans-54" x="116.503906"/>
       <use xlink:href="#DejaVuSans-33" x="177.587891"/>
       <use xlink:href="#DejaVuSans-2d" x="241.210938"/>
       <use xlink:href="#DejaVuSans-41" x="275.044922"/>
       <use xlink:href="#DejaVuSans-44" x="343.453125"/>
       <use xlink:href="#DejaVuSans-41" x="418.705078"/>
       <use xlink:href="#DejaVuSans-52" x="487.113281"/>
       <use xlink:href="#DejaVuSans-5f" x="556.595703"/>
       <use xlink:href="#DejaVuSans-6f" x="606.595703"/>
       <use xlink:href="#DejaVuSans-6e" x="667.777344"/>
       <use xlink:href="#DejaVuSans-6c" x="731.15625"/>
       <use xlink:href="#DejaVuSans-79" x="758.939453"/>
      </g>
     </g>
    </g>
   </g>
   <g id="matplotlib.axis_2">
    <g id="ytick_1">
     <g id="line2d_1">
      <path d="M 426.330909 311.434221 
L 861.060284 311.434221 
" clip-path="url(#p5a38ca8d3a)" style="fill: none; stroke: #cccccc; stroke-linecap: round"/>
     </g>
     <g id="text_11">
      <!-- 0.0 -->
      <g style="fill: #262626" transform="translate(399.337472 315.613362)scale(0.11 -0.11)">
       <use xlink:href="#DejaVuSans-30"/>
       <use xlink:href="#DejaVuSans-2e" x="63.623047"/>
       <use xlink:href="#DejaVuSans-30" x="95.410156"/>
      </g>
     </g>
    </g>
    <g id="ytick_2">
     <g id="line2d_2">
      <path d="M 426.330909 265.388194 
L 861.060284 265.388194 
" clip-path="url(#p5a38ca8d3a)" style="fill: none; stroke: #cccccc; stroke-linecap: round"/>
     </g>
     <g id="text_12">
      <!-- 0.1 -->
      <g style="fill: #262626" transform="translate(399.337472 269.567335)scale(0.11 -0.11)">
       <use xlink:href="#DejaVuSans-30"/>
       <use xlink:href="#DejaVuSans-2e" x="63.623047"/>
       <use xlink:href="#DejaVuSans-31" x="95.410156"/>
      </g>
     </g>
    </g>
    <g id="ytick_3">
     <g id="line2d_3">
      <path d="M 426.330909 219.342167 
L 861.060284 219.342167 
" clip-path="url(#p5a38ca8d3a)" style="fill: none; stroke: #cccccc; stroke-linecap: round"/>
     </g>
     <g id="text_13">
      <!-- 0.2 -->
      <g style="fill: #262626" transform="translate(399.337472 223.521308)scale(0.11 -0.11)">
       <use xlink:href="#DejaVuSans-30"/>
       <use xlink:href="#DejaVuSans-2e" x="63.623047"/>
       <use xlink:href="#DejaVuSans-32" x="95.410156"/>
      </g>
     </g>
    </g>
    <g id="ytick_4">
     <g id="line2d_4">
      <path d="M 426.330909 173.29614 
L 861.060284 173.29614 
" clip-path="url(#p5a38ca8d3a)" style="fill: none; stroke: #cccccc; stroke-linecap: round"/>
     </g>
     <g id="text_14">
      <!-- 0.3 -->
      <g style="fill: #262626" transform="translate(399.337472 177.475281)scale(0.11 -0.11)">
       <use xlink:href="#DejaVuSans-30"/>
       <use xlink:href="#DejaVuSans-2e" x="63.623047"/>
       <use xlink:href="#DejaVuSans-33" x="95.410156"/>
      </g>
     </g>
    </g>
    <g id="ytick_5">
     <g id="line2d_5">
      <path d="M 426.330909 127.250113 
L 861.060284 127.250113 
" clip-path="url(#p5a38ca8d3a)" style="fill: none; stroke: #cccccc; stroke-linecap: round"/>
     </g>
     <g id="text_15">
      <!-- 0.4 -->
      <g style="fill: #262626" transform="translate(399.337472 131.429254)scale(0.11 -0.11)">
       <use xlink:href="#DejaVuSans-30"/>
       <use xlink:href="#DejaVuSans-2e" x="63.623047"/>
       <use xlink:href="#DejaVuSans-34" x="95.410156"/>
      </g>
     </g>
    </g>
    <g id="ytick_6">
     <g id="line2d_6">
      <path d="M 426.330909 81.204086 
L 861.060284 81.204086 
" clip-path="url(#p5a38ca8d3a)" style="fill: none; stroke: #cccccc; stroke-linecap: round"/>
     </g>
     <g id="text_16">
      <!-- 0.5 -->
      <g style="fill: #262626" transform="translate(399.337472 85.383227)scale(0.11 -0.11)">
       <defs>
        <path id="DejaVuSans-35" d="M 691 4666 
L 3169 4666 
L 3169 4134 
L 1269 4134 
L 1269 2991 
Q 1406 3038 1543 3061 
Q 1681 3084 1819 3084 
Q 2600 3084 3056 2656 
Q 3513 2228 3513 1497 
Q 3513 744 3044 326 
Q 2575 -91 1722 -91 
Q 1428 -91 1123 -41 
Q 819 9 494 109 
L 494 744 
Q 775 591 1075 516 
Q 1375 441 1709 441 
Q 2250 441 2565 725 
Q 2881 1009 2881 1497 
Q 2881 1984 2565 2268 
Q 2250 2553 1709 2553 
Q 1456 2553 1204 2497 
Q 953 2441 691 2322 
L 691 4666 
z
" transform="scale(0.015625)"/>
       </defs>
       <use xlink:href="#DejaVuSans-30"/>
       <use xlink:href="#DejaVuSans-2e" x="63.623047"/>
       <use xlink:href="#DejaVuSans-35" x="95.410156"/>
      </g>
     </g>
    </g>
    <g id="ytick_7">
     <g id="line2d_7">
      <path d="M 426.330909 35.15806 
L 861.060284 35.15806 
" clip-path="url(#p5a38ca8d3a)" style="fill: none; stroke: #cccccc; stroke-linecap: round"/>
     </g>
     <g id="text_17">
      <!-- 0.6 -->
      <g style="fill: #262626" transform="translate(399.337472 39.3372)scale(0.11 -0.11)">
       <defs>
        <path id="DejaVuSans-36" d="M 2113 2584 
Q 1688 2584 1439 2293 
Q 1191 2003 1191 1497 
Q 1191 994 1439 701 
Q 1688 409 2113 409 
Q 2538 409 2786 701 
Q 3034 994 3034 1497 
Q 3034 2003 2786 2293 
Q 2538 2584 2113 2584 
z
M 3366 4563 
L 3366 3988 
Q 3128 4100 2886 4159 
Q 2644 4219 2406 4219 
Q 1781 4219 1451 3797 
Q 1122 3375 1075 2522 
Q 1259 2794 1537 2939 
Q 1816 3084 2150 3084 
Q 2853 3084 3261 2657 
Q 3669 2231 3669 1497 
Q 3669 778 3244 343 
Q 2819 -91 2113 -91 
Q 1303 -91 875 529 
Q 447 1150 447 2328 
Q 447 3434 972 4092 
Q 1497 4750 2381 4750 
Q 2619 4750 2861 4703 
Q 3103 4656 3366 4563 
z
" transform="scale(0.015625)"/>
       </defs>
       <use xlink:href="#DejaVuSans-30"/>
       <use xlink:href="#DejaVuSans-2e" x="63.623047"/>
       <use xlink:href="#DejaVuSans-36" x="95.410156"/>
      </g>
     </g>
    </g>
    <g id="text_18">
     <!-- A:I edit ratio -->
     <g style="fill: #262626" transform="translate(392.841847 208.113125)rotate(-90)scale(0.12 -0.12)">
      <defs>
       <path id="DejaVuSans-3a" d="M 750 794 
L 1409 794 
L 1409 0 
L 750 0 
L 750 794 
z
M 750 3309 
L 1409 3309 
L 1409 2516 
L 750 2516 
L 750 3309 
z
" transform="scale(0.015625)"/>
      </defs>
      <use xlink:href="#DejaVuSans-41"/>
      <use xlink:href="#DejaVuSans-3a" x="66.658203"/>
      <use xlink:href="#DejaVuSans-49" x="100.349609"/>
      <use xlink:href="#DejaVuSans-20" x="129.841797"/>
      <use xlink:href="#DejaVuSans-65" x="161.628906"/>
      <use xlink:href="#DejaVuSans-64" x="223.152344"/>
      <use xlink:href="#DejaVuSans-69" x="286.628906"/>
      <use xlink:href="#DejaVuSans-74" x="314.412109"/>
      <use xlink:href="#DejaVuSans-20" x="353.621094"/>
      <use xlink:href="#DejaVuSans-72" x="385.408203"/>
      <use xlink:href="#DejaVuSans-61" x="426.521484"/>
      <use xlink:href="#DejaVuSans-74" x="487.800781"/>
      <use xlink:href="#DejaVuSans-69" x="527.009766"/>
      <use xlink:href="#DejaVuSans-6f" x="554.792969"/>
     </g>
    </g>
   </g>
   <g id="PolyCollection_1">
    <defs>
     <path id="m715b10f063" d="M 521.149598 -41.458776 
L 440.194564 -41.458776 
L 439.855414 -41.466683 
L 439.536684 -41.47459 
L 439.238541 -41.482497 
L 438.961098 -41.490404 
L 438.704422 -41.498311 
L 438.468525 -41.506218 
L 438.253373 -41.514124 
L 438.05888 -41.522031 
L 437.884915 -41.529938 
L 437.731297 -41.537845 
L 437.597802 -41.545752 
L 437.484161 -41.553659 
L 437.390063 -41.561566 
L 437.315157 -41.569473 
L 437.259054 -41.57738 
L 437.221328 -41.585286 
L 437.201522 -41.593193 
L 437.199144 -41.6011 
L 437.213675 -41.609007 
L 437.244569 -41.616914 
L 437.291259 -41.624821 
L 437.353153 -41.632728 
L 437.429644 -41.640635 
L 437.520107 -41.648542 
L 437.623907 -41.656448 
L 437.740396 -41.664355 
L 437.868921 -41.672262 
L 438.008823 -41.680169 
L 438.159442 -41.688076 
L 438.320118 -41.695983 
L 438.490195 -41.70389 
L 438.669021 -41.711797 
L 438.855954 -41.719704 
L 439.050359 -41.727611 
L 439.251617 -41.735517 
L 439.459121 -41.743424 
L 439.672281 -41.751331 
L 439.890526 -41.759238 
L 440.113302 -41.767145 
L 440.340079 -41.775052 
L 440.570349 -41.782959 
L 440.803627 -41.790866 
L 441.039454 -41.798773 
L 441.277396 -41.806679 
L 441.517049 -41.814586 
L 441.758032 -41.822493 
L 441.999996 -41.8304 
L 442.242618 -41.838307 
L 442.485607 -41.846214 
L 442.728698 -41.854121 
L 442.971657 -41.862028 
L 443.214279 -41.869935 
L 443.456388 -41.877842 
L 443.697836 -41.885748 
L 443.938505 -41.893655 
L 444.178303 -41.901562 
L 444.417166 -41.909469 
L 444.655057 -41.917376 
L 444.891964 -41.925283 
L 445.1279 -41.93319 
L 445.362902 -41.941097 
L 445.597031 -41.949004 
L 445.830369 -41.95691 
L 446.063018 -41.964817 
L 446.295101 -41.972724 
L 446.526759 -41.980631 
L 446.758149 -41.988538 
L 446.989444 -41.996445 
L 447.220833 -42.004352 
L 447.452515 -42.012259 
L 447.684703 -42.020166 
L 447.917619 -42.028072 
L 448.151493 -42.035979 
L 448.386562 -42.043886 
L 448.62307 -42.051793 
L 448.861264 -42.0597 
L 449.101393 -42.067607 
L 449.343709 -42.075514 
L 449.588461 -42.083421 
L 449.835897 -42.091328 
L 450.086264 -42.099235 
L 450.339801 -42.107141 
L 450.596742 -42.115048 
L 450.857314 -42.122955 
L 451.121735 -42.130862 
L 451.390214 -42.138769 
L 451.662946 -42.146676 
L 451.940115 -42.154583 
L 452.221893 -42.16249 
L 452.508436 -42.170397 
L 452.799884 -42.178303 
L 453.09636 -42.18621 
L 453.397973 -42.194117 
L 453.704811 -42.202024 
L 454.016944 -42.209931 
L 454.334422 -42.217838 
L 454.657277 -42.225745 
L 454.98552 -42.233652 
L 455.319141 -42.241559 
L 506.025021 -42.241559 
L 506.025021 -42.241559 
L 506.358642 -42.233652 
L 506.686885 -42.225745 
L 507.00974 -42.217838 
L 507.327219 -42.209931 
L 507.639351 -42.202024 
L 507.946189 -42.194117 
L 508.247802 -42.18621 
L 508.544279 -42.178303 
L 508.835726 -42.170397 
L 509.122269 -42.16249 
L 509.404047 -42.154583 
L 509.681217 -42.146676 
L 509.953948 -42.138769 
L 510.222427 -42.130862 
L 510.486848 -42.122955 
L 510.74742 -42.115048 
L 511.004362 -42.107141 
L 511.257898 -42.099235 
L 511.508265 -42.091328 
L 511.755702 -42.083421 
L 512.000453 -42.075514 
L 512.242769 -42.067607 
L 512.482898 -42.0597 
L 512.721092 -42.051793 
L 512.9576 -42.043886 
L 513.19267 -42.035979 
L 513.426543 -42.028072 
L 513.659459 -42.020166 
L 513.891647 -42.012259 
L 514.123329 -42.004352 
L 514.354718 -41.996445 
L 514.586013 -41.988538 
L 514.817403 -41.980631 
L 515.049061 -41.972724 
L 515.281144 -41.964817 
L 515.513793 -41.95691 
L 515.747131 -41.949004 
L 515.98126 -41.941097 
L 516.216262 -41.93319 
L 516.452198 -41.925283 
L 516.689105 -41.917376 
L 516.926996 -41.909469 
L 517.165859 -41.901562 
L 517.405657 -41.893655 
L 517.646326 -41.885748 
L 517.887774 -41.877842 
L 518.129883 -41.869935 
L 518.372505 -41.862028 
L 518.615465 -41.854121 
L 518.858556 -41.846214 
L 519.101544 -41.838307 
L 519.344167 -41.8304 
L 519.58613 -41.822493 
L 519.827114 -41.814586 
L 520.066766 -41.806679 
L 520.304709 -41.798773 
L 520.540536 -41.790866 
L 520.773813 -41.782959 
L 521.004083 -41.775052 
L 521.23086 -41.767145 
L 521.453636 -41.759238 
L 521.671881 -41.751331 
L 521.885041 -41.743424 
L 522.092545 -41.735517 
L 522.293803 -41.727611 
L 522.488209 -41.719704 
L 522.675141 -41.711797 
L 522.853967 -41.70389 
L 523.024044 -41.695983 
L 523.18472 -41.688076 
L 523.335339 -41.680169 
L 523.475242 -41.672262 
L 523.603767 -41.664355 
L 523.720256 -41.656448 
L 523.824055 -41.648542 
L 523.914518 -41.640635 
L 523.991009 -41.632728 
L 524.052903 -41.624821 
L 524.099593 -41.616914 
L 524.130488 -41.609007 
L 524.145019 -41.6011 
L 524.14264 -41.593193 
L 524.122834 -41.585286 
L 524.085108 -41.57738 
L 524.029005 -41.569473 
L 523.9541 -41.561566 
L 523.860002 -41.553659 
L 523.74636 -41.545752 
L 523.612865 -41.537845 
L 523.459247 -41.529938 
L 523.285282 -41.522031 
L 523.090789 -41.514124 
L 522.875637 -41.506218 
L 522.639741 -41.498311 
L 522.383064 -41.490404 
L 522.105622 -41.482497 
L 521.807478 -41.47459 
L 521.488748 -41.466683 
L 521.149598 -41.458776 
z
" style="stroke: #595959; stroke-width: 1.5"/>
    </defs>
    <g clip-path="url(#p5a38ca8d3a)">
     <use xlink:href="#m715b10f063" x="0" y="347.64375" style="fill: #72b6a1; stroke: #595959; stroke-width: 1.5"/>
    </g>
   </g>
   <g id="PolyCollection_2">
    <defs>
     <path id="m9bc1e2b13f" d="M 590.208245 -41.550868 
L 588.500605 -41.550868 
L 588.47723 -42.608997 
L 588.456917 -43.667125 
L 588.439855 -44.725253 
L 588.42619 -45.783382 
L 588.416025 -46.84151 
L 588.409422 -47.899639 
L 588.406396 -48.957767 
L 588.406921 -50.015895 
L 588.410929 -51.074024 
L 588.418315 -52.132152 
L 588.42894 -53.190281 
L 588.442633 -54.248409 
L 588.459196 -55.306537 
L 588.47841 -56.364666 
L 588.500041 -57.422794 
L 588.523839 -58.480923 
L 588.549549 -59.539051 
L 588.576911 -60.597179 
L 588.605666 -61.655308 
L 588.635556 -62.713436 
L 588.666334 -63.771565 
L 588.697759 -64.829693 
L 588.729602 -65.887821 
L 588.761646 -66.94595 
L 588.793689 -68.004078 
L 588.825543 -69.062207 
L 588.857036 -70.120335 
L 588.888011 -71.178463 
L 588.918324 -72.236592 
L 588.947848 -73.29472 
L 588.976472 -74.352848 
L 589.004095 -75.410977 
L 589.030634 -76.469105 
L 589.056017 -77.527234 
L 589.080184 -78.585362 
L 589.103088 -79.64349 
L 589.124693 -80.701619 
L 589.144976 -81.759747 
L 589.16392 -82.817876 
L 589.181522 -83.876004 
L 589.197785 -84.934132 
L 589.212723 -85.992261 
L 589.226355 -87.050389 
L 589.238709 -88.108518 
L 589.249819 -89.166646 
L 589.259724 -90.224774 
L 589.26847 -91.282903 
L 589.276103 -92.341031 
L 589.282675 -93.39916 
L 589.288241 -94.457288 
L 589.292856 -95.515416 
L 589.296576 -96.573545 
L 589.299459 -97.631673 
L 589.30156 -98.689802 
L 589.302935 -99.74793 
L 589.303639 -100.806058 
L 589.303723 -101.864187 
L 589.303238 -102.922315 
L 589.302231 -103.980444 
L 589.300748 -105.038572 
L 589.298831 -106.0967 
L 589.296521 -107.154829 
L 589.293856 -108.212957 
L 589.29087 -109.271086 
L 589.287597 -110.329214 
L 589.284071 -111.387342 
L 589.280321 -112.445471 
L 589.276377 -113.503599 
L 589.272269 -114.561728 
L 589.268026 -115.619856 
L 589.263678 -116.677984 
L 589.259254 -117.736113 
L 589.254786 -118.794241 
L 589.250306 -119.852369 
L 589.245847 -120.910498 
L 589.241443 -121.968626 
L 589.23713 -123.026755 
L 589.232945 -124.084883 
L 589.228925 -125.143011 
L 589.225108 -126.20114 
L 589.221532 -127.259268 
L 589.218234 -128.317397 
L 589.215253 -129.375525 
L 589.212622 -130.433653 
L 589.210374 -131.491782 
L 589.20854 -132.54991 
L 589.207148 -133.608039 
L 589.206219 -134.666167 
L 589.205772 -135.724295 
L 589.205822 -136.782424 
L 589.206376 -137.840552 
L 589.207437 -138.898681 
L 589.209003 -139.956809 
L 589.211065 -141.014937 
L 589.213608 -142.073066 
L 589.216613 -143.131194 
L 589.220055 -144.189323 
L 589.223902 -145.247451 
L 589.228122 -146.305579 
L 589.480727 -146.305579 
L 589.480727 -146.305579 
L 589.484947 -145.247451 
L 589.488795 -144.189323 
L 589.492237 -143.131194 
L 589.495242 -142.073066 
L 589.497785 -141.014937 
L 589.499847 -139.956809 
L 589.501413 -138.898681 
L 589.502474 -137.840552 
L 589.503028 -136.782424 
L 589.503077 -135.724295 
L 589.502631 -134.666167 
L 589.501702 -133.608039 
L 589.500309 -132.54991 
L 589.498476 -131.491782 
L 589.496228 -130.433653 
L 589.493597 -129.375525 
L 589.490615 -128.317397 
L 589.487318 -127.259268 
L 589.483742 -126.20114 
L 589.479925 -125.143011 
L 589.475905 -124.084883 
L 589.47172 -123.026755 
L 589.467407 -121.968626 
L 589.463003 -120.910498 
L 589.458544 -119.852369 
L 589.454063 -118.794241 
L 589.449595 -117.736113 
L 589.445172 -116.677984 
L 589.440823 -115.619856 
L 589.436581 -114.561728 
L 589.432473 -113.503599 
L 589.428529 -112.445471 
L 589.424779 -111.387342 
L 589.421252 -110.329214 
L 589.41798 -109.271086 
L 589.414994 -108.212957 
L 589.412328 -107.154829 
L 589.410018 -106.0967 
L 589.408101 -105.038572 
L 589.406618 -103.980444 
L 589.405612 -102.922315 
L 589.405127 -101.864187 
L 589.405211 -100.806058 
L 589.405914 -99.74793 
L 589.40729 -98.689802 
L 589.409391 -97.631673 
L 589.412273 -96.573545 
L 589.415994 -95.515416 
L 589.420609 -94.457288 
L 589.426174 -93.39916 
L 589.432747 -92.341031 
L 589.44038 -91.282903 
L 589.449125 -90.224774 
L 589.459031 -89.166646 
L 589.470141 -88.108518 
L 589.482495 -87.050389 
L 589.496127 -85.992261 
L 589.511064 -84.934132 
L 589.527328 -83.876004 
L 589.544929 -82.817876 
L 589.563874 -81.759747 
L 589.584156 -80.701619 
L 589.605762 -79.64349 
L 589.628666 -78.585362 
L 589.652833 -77.527234 
L 589.678216 -76.469105 
L 589.704755 -75.410977 
L 589.732378 -74.352848 
L 589.761001 -73.29472 
L 589.790526 -72.236592 
L 589.820839 -71.178463 
L 589.851813 -70.120335 
L 589.883306 -69.062207 
L 589.915161 -68.004078 
L 589.947204 -66.94595 
L 589.979248 -65.887821 
L 590.011091 -64.829693 
L 590.042515 -63.771565 
L 590.073293 -62.713436 
L 590.103184 -61.655308 
L 590.131938 -60.597179 
L 590.1593 -59.539051 
L 590.18501 -58.480923 
L 590.208809 -57.422794 
L 590.230439 -56.364666 
L 590.249654 -55.306537 
L 590.266217 -54.248409 
L 590.279909 -53.190281 
L 590.290534 -52.132152 
L 590.297921 -51.074024 
L 590.301929 -50.015895 
L 590.302454 -48.957767 
L 590.299428 -47.899639 
L 590.292824 -46.84151 
L 590.28266 -45.783382 
L 590.268995 -44.725253 
L 590.251933 -43.667125 
L 590.23162 -42.608997 
L 590.208245 -41.550868 
z
" style="stroke: #595959; stroke-width: 1.5"/>
    </defs>
    <g clip-path="url(#p5a38ca8d3a)">
     <use xlink:href="#m9bc1e2b13f" x="0" y="347.64375" style="fill: #e99675; stroke: #595959; stroke-width: 1.5"/>
    </g>
   </g>
   <g id="PolyCollection_3">
    <defs>
     <path id="m0950e87230" d="M 698.816566 -41.320638 
L 697.256971 -41.320638 
L 697.2339 -42.381092 
L 697.213402 -43.441546 
L 697.195654 -44.502 
L 697.180797 -45.562454 
L 697.168937 -46.622908 
L 697.160144 -47.683362 
L 697.154451 -48.743816 
L 697.151855 -49.80427 
L 697.152316 -50.864724 
L 697.155765 -51.925178 
L 697.162101 -52.985632 
L 697.171196 -54.046086 
L 697.182901 -55.106539 
L 697.197045 -56.166993 
L 697.213443 -57.227447 
L 697.231899 -58.287901 
L 697.252208 -59.348355 
L 697.274159 -60.408809 
L 697.297542 -61.469263 
L 697.322147 -62.529717 
L 697.347768 -63.590171 
L 697.374204 -64.650625 
L 697.401262 -65.711079 
L 697.428755 -66.771533 
L 697.456509 -67.831987 
L 697.484355 -68.892441 
L 697.512139 -69.952895 
L 697.539714 -71.013349 
L 697.566943 -72.073803 
L 697.593702 -73.134257 
L 697.619874 -74.194711 
L 697.645354 -75.255165 
L 697.670046 -76.315619 
L 697.693864 -77.376072 
L 697.716731 -78.436526 
L 697.738582 -79.49698 
L 697.759361 -80.557434 
L 697.779021 -81.617888 
L 697.797527 -82.678342 
L 697.814853 -83.738796 
L 697.830983 -84.79925 
L 697.845912 -85.859704 
L 697.859644 -86.920158 
L 697.872192 -87.980612 
L 697.883581 -89.041066 
L 697.89384 -90.10152 
L 697.903009 -91.161974 
L 697.911135 -92.222428 
L 697.918267 -93.282882 
L 697.924463 -94.343336 
L 697.929783 -95.40379 
L 697.934288 -96.464244 
L 697.938043 -97.524698 
L 697.94111 -98.585152 
L 697.943553 -99.645605 
L 697.94543 -100.706059 
L 697.9468 -101.766513 
L 697.947714 -102.826967 
L 697.948221 -103.887421 
L 697.948364 -104.947875 
L 697.94818 -106.008329 
L 697.947702 -107.068783 
L 697.946956 -108.129237 
L 697.945965 -109.189691 
L 697.944745 -110.250145 
L 697.94331 -111.310599 
L 697.941669 -112.371053 
L 697.939831 -113.431507 
L 697.937802 -114.491961 
L 697.935587 -115.552415 
L 697.933195 -116.612869 
L 697.930632 -117.673323 
L 697.92791 -118.733777 
L 697.925043 -119.794231 
L 697.922048 -120.854685 
L 697.918946 -121.915138 
L 697.915765 -122.975592 
L 697.912534 -124.036046 
L 697.909289 -125.0965 
L 697.90607 -126.156954 
L 697.902919 -127.217408 
L 697.899881 -128.277862 
L 697.897005 -129.338316 
L 697.894339 -130.39877 
L 697.891933 -131.459224 
L 697.889833 -132.519678 
L 697.888086 -133.580132 
L 697.886734 -134.640586 
L 697.885815 -135.70104 
L 697.885362 -136.761494 
L 697.885402 -137.821948 
L 697.885955 -138.882402 
L 697.887032 -139.942856 
L 697.88864 -141.00331 
L 697.890775 -142.063764 
L 697.893426 -143.124218 
L 697.896575 -144.184671 
L 697.900196 -145.245125 
L 697.904258 -146.305579 
L 698.169279 -146.305579 
L 698.169279 -146.305579 
L 698.173341 -145.245125 
L 698.176963 -144.184671 
L 698.180112 -143.124218 
L 698.182762 -142.063764 
L 698.184897 -141.00331 
L 698.186505 -139.942856 
L 698.187582 -138.882402 
L 698.188135 -137.821948 
L 698.188175 -136.761494 
L 698.187722 -135.70104 
L 698.186803 -134.640586 
L 698.185451 -133.580132 
L 698.183704 -132.519678 
L 698.181605 -131.459224 
L 698.179198 -130.39877 
L 698.176532 -129.338316 
L 698.173656 -128.277862 
L 698.170618 -127.217408 
L 698.167467 -126.156954 
L 698.164248 -125.0965 
L 698.161003 -124.036046 
L 698.157773 -122.975592 
L 698.154591 -121.915138 
L 698.15149 -120.854685 
L 698.148494 -119.794231 
L 698.145627 -118.733777 
L 698.142905 -117.673323 
L 698.140342 -116.612869 
L 698.13795 -115.552415 
L 698.135736 -114.491961 
L 698.133706 -113.431507 
L 698.131868 -112.371053 
L 698.130227 -111.310599 
L 698.128792 -110.250145 
L 698.127572 -109.189691 
L 698.126581 -108.129237 
L 698.125835 -107.068783 
L 698.125357 -106.008329 
L 698.125174 -104.947875 
L 698.125316 -103.887421 
L 698.125823 -102.826967 
L 698.126737 -101.766513 
L 698.128107 -100.706059 
L 698.129984 -99.645605 
L 698.132427 -98.585152 
L 698.135494 -97.524698 
L 698.139249 -96.464244 
L 698.143755 -95.40379 
L 698.149074 -94.343336 
L 698.15527 -93.282882 
L 698.162403 -92.222428 
L 698.170528 -91.161974 
L 698.179697 -90.10152 
L 698.189956 -89.041066 
L 698.201345 -87.980612 
L 698.213894 -86.920158 
L 698.227625 -85.859704 
L 698.242554 -84.79925 
L 698.258684 -83.738796 
L 698.27601 -82.678342 
L 698.294516 -81.617888 
L 698.314176 -80.557434 
L 698.334955 -79.49698 
L 698.356806 -78.436526 
L 698.379673 -77.376072 
L 698.403491 -76.315619 
L 698.428183 -75.255165 
L 698.453663 -74.194711 
L 698.479835 -73.134257 
L 698.506594 -72.073803 
L 698.533823 -71.013349 
L 698.561398 -69.952895 
L 698.589182 -68.892441 
L 698.617029 -67.831987 
L 698.644782 -66.771533 
L 698.672275 -65.711079 
L 698.699333 -64.650625 
L 698.725769 -63.590171 
L 698.75139 -62.529717 
L 698.775995 -61.469263 
L 698.799378 -60.408809 
L 698.821329 -59.348355 
L 698.841638 -58.287901 
L 698.860094 -57.227447 
L 698.876492 -56.166993 
L 698.890636 -55.106539 
L 698.902341 -54.046086 
L 698.911436 -52.985632 
L 698.917772 -51.925178 
L 698.921221 -50.864724 
L 698.921682 -49.80427 
L 698.919086 -48.743816 
L 698.913393 -47.683362 
L 698.9046 -46.622908 
L 698.892741 -45.562454 
L 698.877883 -44.502 
L 698.860135 -43.441546 
L 698.839637 -42.381092 
L 698.816566 -41.320638 
z
" style="stroke: #595959; stroke-width: 1.5"/>
    </defs>
    <g clip-path="url(#p5a38ca8d3a)">
     <use xlink:href="#m0950e87230" x="0" y="347.64375" style="fill: #95a3c3; stroke: #595959; stroke-width: 1.5"/>
    </g>
   </g>
   <g id="PolyCollection_4">
    <defs>
     <path id="mb8b477d5eb" d="M 807.164394 -41.1825 
L 806.273831 -41.1825 
L 806.266859 -43.91596 
L 806.262041 -46.649419 
L 806.259436 -49.382879 
L 806.259069 -52.116338 
L 806.260933 -54.849798 
L 806.264989 -57.583258 
L 806.271164 -60.316717 
L 806.279358 -63.050177 
L 806.289444 -65.783636 
L 806.301271 -68.517096 
L 806.314669 -71.250556 
L 806.329452 -73.984015 
L 806.345422 -76.717475 
L 806.362376 -79.450934 
L 806.380107 -82.184394 
L 806.398408 -84.917854 
L 806.41708 -87.651313 
L 806.435928 -90.384773 
L 806.454772 -93.118232 
L 806.473445 -95.851692 
L 806.491792 -98.585152 
L 806.50968 -101.318611 
L 806.526991 -104.052071 
L 806.543624 -106.78553 
L 806.5595 -109.51899 
L 806.574554 -112.252449 
L 806.58874 -114.985909 
L 806.602028 -117.719369 
L 806.614401 -120.452828 
L 806.625858 -123.186288 
L 806.636407 -125.919747 
L 806.646067 -128.653207 
L 806.654867 -131.386667 
L 806.662842 -134.120126 
L 806.670031 -136.853586 
L 806.67648 -139.587045 
L 806.682236 -142.320505 
L 806.687348 -145.053965 
L 806.691866 -147.787424 
L 806.695839 -150.520884 
L 806.699317 -153.254343 
L 806.702345 -155.987803 
L 806.704971 -158.721263 
L 806.707235 -161.454722 
L 806.709178 -164.188182 
L 806.710838 -166.921641 
L 806.712248 -169.655101 
L 806.71344 -172.388561 
L 806.714442 -175.12202 
L 806.715278 -177.85548 
L 806.715972 -180.588939 
L 806.716542 -183.322399 
L 806.717007 -186.055859 
L 806.71738 -188.789318 
L 806.717675 -191.522778 
L 806.717902 -194.256237 
L 806.718069 -196.989697 
L 806.718183 -199.723157 
L 806.718249 -202.456616 
L 806.718272 -205.190076 
L 806.718253 -207.923535 
L 806.718195 -210.656995 
L 806.718096 -213.390455 
L 806.717956 -216.123914 
L 806.717773 -218.857374 
L 806.717546 -221.590833 
L 806.717271 -224.324293 
L 806.716944 -227.057753 
L 806.716563 -229.791212 
L 806.716122 -232.524672 
L 806.715618 -235.258131 
L 806.715047 -237.991591 
L 806.714406 -240.725051 
L 806.713692 -243.45851 
L 806.712902 -246.19197 
L 806.712035 -248.925429 
L 806.711091 -251.658889 
L 806.710071 -254.392348 
L 806.708977 -257.125808 
L 806.707814 -259.859268 
L 806.706588 -262.592727 
L 806.705305 -265.326187 
L 806.703975 -268.059646 
L 806.702609 -270.793106 
L 806.70122 -273.526566 
L 806.699822 -276.260025 
L 806.698431 -278.993485 
L 806.697062 -281.726944 
L 806.695733 -284.460404 
L 806.694461 -287.193864 
L 806.693266 -289.927323 
L 806.692162 -292.660783 
L 806.691168 -295.394242 
L 806.690298 -298.127702 
L 806.689566 -300.861162 
L 806.688984 -303.594621 
L 806.688562 -306.328081 
L 806.688305 -309.06154 
L 806.688219 -311.795 
L 806.750005 -311.795 
L 806.750005 -311.795 
L 806.749919 -309.06154 
L 806.749663 -306.328081 
L 806.74924 -303.594621 
L 806.748658 -300.861162 
L 806.747926 -298.127702 
L 806.747056 -295.394242 
L 806.746062 -292.660783 
L 806.744959 -289.927323 
L 806.743763 -287.193864 
L 806.742492 -284.460404 
L 806.741163 -281.726944 
L 806.739794 -278.993485 
L 806.738402 -276.260025 
L 806.737004 -273.526566 
L 806.735615 -270.793106 
L 806.73425 -268.059646 
L 806.73292 -265.326187 
L 806.731637 -262.592727 
L 806.73041 -259.859268 
L 806.729247 -257.125808 
L 806.728154 -254.392348 
L 806.727134 -251.658889 
L 806.72619 -248.925429 
L 806.725323 -246.19197 
L 806.724533 -243.45851 
L 806.723818 -240.725051 
L 806.723177 -237.991591 
L 806.722607 -235.258131 
L 806.722103 -232.524672 
L 806.721662 -229.791212 
L 806.72128 -227.057753 
L 806.720954 -224.324293 
L 806.720678 -221.590833 
L 806.720451 -218.857374 
L 806.720269 -216.123914 
L 806.720129 -213.390455 
L 806.72003 -210.656995 
L 806.719971 -207.923535 
L 806.719952 -205.190076 
L 806.719975 -202.456616 
L 806.720042 -199.723157 
L 806.720156 -196.989697 
L 806.720323 -194.256237 
L 806.72055 -191.522778 
L 806.720844 -188.789318 
L 806.721218 -186.055859 
L 806.721683 -183.322399 
L 806.722253 -180.588939 
L 806.722947 -177.85548 
L 806.723783 -175.12202 
L 806.724784 -172.388561 
L 806.725976 -169.655101 
L 806.727386 -166.921641 
L 806.729046 -164.188182 
L 806.73099 -161.454722 
L 806.733254 -158.721263 
L 806.735879 -155.987803 
L 806.738908 -153.254343 
L 806.742385 -150.520884 
L 806.746359 -147.787424 
L 806.750876 -145.053965 
L 806.755988 -142.320505 
L 806.761744 -139.587045 
L 806.768193 -136.853586 
L 806.775383 -134.120126 
L 806.783357 -131.386667 
L 806.792157 -128.653207 
L 806.801818 -125.919747 
L 806.812367 -123.186288 
L 806.823824 -120.452828 
L 806.836197 -117.719369 
L 806.849485 -114.985909 
L 806.863671 -112.252449 
L 806.878725 -109.51899 
L 806.8946 -106.78553 
L 806.911234 -104.052071 
L 806.928544 -101.318611 
L 806.946432 -98.585152 
L 806.96478 -95.851692 
L 806.983452 -93.118232 
L 807.002296 -90.384773 
L 807.021145 -87.651313 
L 807.039816 -84.917854 
L 807.058118 -82.184394 
L 807.075848 -79.450934 
L 807.092802 -76.717475 
L 807.108773 -73.984015 
L 807.123556 -71.250556 
L 807.136953 -68.517096 
L 807.14878 -65.783636 
L 807.158866 -63.050177 
L 807.16706 -60.316717 
L 807.173236 -57.583258 
L 807.177291 -54.849798 
L 807.179156 -52.116338 
L 807.178789 -49.382879 
L 807.176184 -46.649419 
L 807.171366 -43.91596 
L 807.164394 -41.1825 
z
" style="stroke: #595959; stroke-width: 1.5"/>
    </defs>
    <g clip-path="url(#p5a38ca8d3a)">
     <use xlink:href="#mb8b477d5eb" x="0" y="347.64375" style="fill: #db96c0; stroke: #595959; stroke-width: 1.5"/>
    </g>
   </g>
   <g id="line2d_8">
    <path d="M 480.672081 306.184974 
L 480.672081 305.402191 
" clip-path="url(#p5a38ca8d3a)" style="fill: none; stroke: #595959; stroke-width: 1.5; stroke-linecap: round"/>
   </g>
   <g id="line2d_9">
    <path d="M 480.672081 306.150439 
L 480.672081 305.678468 
" clip-path="url(#p5a38ca8d3a)" style="fill: none; stroke: #595959; stroke-width: 4.5; stroke-linecap: round"/>
   </g>
   <g id="line2d_10">
    <path d="M 589.354425 306.092882 
L 589.354425 276.070872 
" clip-path="url(#p5a38ca8d3a)" style="fill: none; stroke: #595959; stroke-width: 1.5; stroke-linecap: round"/>
   </g>
   <g id="line2d_11">
    <path d="M 589.354425 303.226517 
L 589.354425 283.138937 
" clip-path="url(#p5a38ca8d3a)" style="fill: none; stroke: #595959; stroke-width: 4.5; stroke-linecap: round"/>
   </g>
   <g id="line2d_12">
    <path d="M 698.036769 306.323112 
L 698.036769 273.354157 
" clip-path="url(#p5a38ca8d3a)" style="fill: none; stroke: #595959; stroke-width: 1.5; stroke-linecap: round"/>
   </g>
   <g id="line2d_13">
    <path d="M 698.036769 303.307097 
L 698.036769 280.848148 
" clip-path="url(#p5a38ca8d3a)" style="fill: none; stroke: #595959; stroke-width: 4.5; stroke-linecap: round"/>
   </g>
   <g id="line2d_14">
    <path d="M 806.719112 306.46125 
L 806.719112 256.363173 
" clip-path="url(#p5a38ca8d3a)" style="fill: none; stroke: #595959; stroke-width: 1.5; stroke-linecap: round"/>
   </g>
   <g id="line2d_15">
    <path d="M 806.719112 305.632422 
L 806.719112 285.556354 
" clip-path="url(#p5a38ca8d3a)" style="fill: none; stroke: #595959; stroke-width: 4.5; stroke-linecap: round"/>
   </g>
   <g id="patch_6">
    <path d="M 426.330909 319.991875 
L 426.330909 22.318125 
" style="fill: none; stroke: #cccccc; stroke-width: 1.25; stroke-linejoin: miter; stroke-linecap: square"/>
   </g>
   <g id="patch_7">
    <path d="M 861.060284 319.991875 
L 861.060284 22.318125 
" style="fill: none; stroke: #cccccc; stroke-width: 1.25; stroke-linejoin: miter; stroke-linecap: square"/>
   </g>
   <g id="patch_8">
    <path d="M 426.330909 319.991875 
L 861.060284 319.991875 
" style="fill: none; stroke: #cccccc; stroke-width: 1.25; stroke-linejoin: miter; stroke-linecap: square"/>
   </g>
   <g id="patch_9">
    <path d="M 426.330909 22.318125 
L 861.060284 22.318125 
" style="fill: none; stroke: #cccccc; stroke-width: 1.25; stroke-linejoin: miter; stroke-linecap: square"/>
   </g>
   <g id="PathCollection_1">
    <defs>
     <path id="meb71e97bb0" d="M 0 1.5 
C 0.397805 1.5 0.77937 1.341951 1.06066 1.06066 
C 1.341951 0.77937 1.5 0.397805 1.5 0 
C 1.5 -0.397805 1.341951 -0.77937 1.06066 -1.06066 
C 0.77937 -1.341951 0.397805 -1.5 0 -1.5 
C -0.397805 -1.5 -0.77937 -1.341951 -1.06066 -1.06066 
C -1.341951 -0.77937 -1.5 -0.397805 -1.5 0 
C -1.5 0.397805 -1.341951 0.77937 -1.06066 1.06066 
C -0.77937 1.341951 -0.397805 1.5 0 1.5 
z
" style="stroke: #595959"/>
    </defs>
    <g clip-path="url(#p5a38ca8d3a)">
     <use xlink:href="#meb71e97bb0" x="480.672081" y="305.954744" style="fill: #ffffff; stroke: #595959"/>
    </g>
   </g>
   <g id="PathCollection_2">
    <g clip-path="url(#p5a38ca8d3a)">
     <use xlink:href="#meb71e97bb0" x="589.354425" y="297.620413" style="fill: #ffffff; stroke: #595959"/>
    </g>
   </g>
   <g id="PathCollection_3">
    <g clip-path="url(#p5a38ca8d3a)">
     <use xlink:href="#meb71e97bb0" x="698.036769" y="296.699492" style="fill: #ffffff; stroke: #595959"/>
    </g>
   </g>
   <g id="PathCollection_4">
    <g clip-path="url(#p5a38ca8d3a)">
     <use xlink:href="#meb71e97bb0" x="806.719112" y="300.935727" style="fill: #ffffff; stroke: #595959"/>
    </g>
   </g>
   <g id="text_19">
    <!-- A:I edit ratio distributions -->
    <g style="fill: #262626" transform="translate(567.513409 16.318125)scale(0.12 -0.12)">
     <defs>
      <path id="DejaVuSans-75" d="M 544 1381 
L 544 3500 
L 1119 3500 
L 1119 1403 
Q 1119 906 1312 657 
Q 1506 409 1894 409 
Q 2359 409 2629 706 
Q 2900 1003 2900 1516 
L 2900 3500 
L 3475 3500 
L 3475 0 
L 2900 0 
L 2900 538 
Q 2691 219 2414 64 
Q 2138 -91 1772 -91 
Q 1169 -91 856 284 
Q 544 659 544 1381 
z
M 1991 3584 
L 1991 3584 
z
" transform="scale(0.015625)"/>
     </defs>
     <use xlink:href="#DejaVuSans-41"/>
     <use xlink:href="#DejaVuSans-3a" x="66.658203"/>
     <use xlink:href="#DejaVuSans-49" x="100.349609"/>
     <use xlink:href="#DejaVuSans-20" x="129.841797"/>
     <use xlink:href="#DejaVuSans-65" x="161.628906"/>
     <use xlink:href="#DejaVuSans-64" x="223.152344"/>
     <use xlink:href="#DejaVuSans-69" x="286.628906"/>
     <use xlink:href="#DejaVuSans-74" x="314.412109"/>
     <use xlink:href="#DejaVuSans-20" x="353.621094"/>
     <use xlink:href="#DejaVuSans-72" x="385.408203"/>
     <use xlink:href="#DejaVuSans-61" x="426.521484"/>
     <use xlink:href="#DejaVuSans-74" x="487.800781"/>
     <use xlink:href="#DejaVuSans-69" x="527.009766"/>
     <use xlink:href="#DejaVuSans-6f" x="554.792969"/>
     <use xlink:href="#DejaVuSans-20" x="615.974609"/>
     <use xlink:href="#DejaVuSans-64" x="647.761719"/>
     <use xlink:href="#DejaVuSans-69" x="711.238281"/>
     <use xlink:href="#DejaVuSans-73" x="739.021484"/>
     <use xlink:href="#DejaVuSans-74" x="791.121094"/>
     <use xlink:href="#DejaVuSans-72" x="830.330078"/>
     <use xlink:href="#DejaVuSans-69" x="871.443359"/>
     <use xlink:href="#DejaVuSans-62" x="899.226562"/>
     <use xlink:href="#DejaVuSans-75" x="962.703125"/>
     <use xlink:href="#DejaVuSans-74" x="1026.082031"/>
     <use xlink:href="#DejaVuSans-69" x="1065.291016"/>
     <use xlink:href="#DejaVuSans-6f" x="1093.074219"/>
     <use xlink:href="#DejaVuSans-6e" x="1154.255859"/>
     <use xlink:href="#DejaVuSans-73" x="1217.634766"/>
    </g>
   </g>
  </g>
 </g>
 <defs>
  <clipPath id="pdc82779fd5">
   <rect x="13.603851" y="22.318125" width="317.175423" height="297.67375"/>
  </clipPath>
  <clipPath id="p5a38ca8d3a">
   <rect x="426.330909" y="22.318125" width="434.729375" height="297.67375"/>
  </clipPath>
 </defs>
</svg>
