<?xml version="1.0" encoding="utf-8" standalone="no"?>
<!DOCTYPE svg PUBLIC "-//W3C//DTD SVG 1.1//EN"
  "http://www.w3.org/Graphics/SVG/1.1/DTD/svg11.dtd">
<svg xmlns:xlink="http://www.w3.org/1999/xlink" width="871.294567pt" height="347.64375pt" viewBox="0 0 871.294567 347.64375" xmlns="http://www.w3.org/2000/svg" version="1.1">
 <metadata>
  <rdf:RDF xmlns:dc="http://purl.org/dc/elements/1.1/" xmlns:cc="http://creativecommons.org/ns#" xmlns:rdf="http://www.w3.org/1999/02/22-rdf-syntax-ns#">
   <cc:Work>
    <dc:type rdf:resource="http://purl.org/dc/dcmitype/StillImage"/>
    <dc:date>2025-07-01T17:55:01.577163</dc:date>
    <dc:format>image/svg+xml</dc:format>
    <dc:creator>
     <cc:Agent>
      <dc:title>Matplotlib v3.5.1, https://matplotlib.org/</dc:title>
     </cc:Agent>
    </dc:creator>
   </cc:Work>
  </rdf:RDF>
 </metadata>
 <defs>
  <style type="text/css">*{stroke-linejoin: round; stroke-linecap: butt}</style>
 </defs>
 <g id="figure_1">
  <g id="patch_1">
   <path d="M 0 347.64375 
L 871.294567 347.64375 
L 871.294567 0 
L 0 0 
z
" style="fill: #ffffff"/>
  </g>
  <g id="axes_1">
   <g id="patch_2">
    <path d="M 109.179465 275.469582 
C 92.128902 263.932094 78.16431 248.388195 68.512625 230.203577 
C 58.86094 212.01896 53.813356 191.742261 53.813356 171.155 
C 53.813356 150.567739 58.86094 130.29104 68.512625 112.106423 
C 78.16431 93.921805 92.128902 78.377906 109.179465 66.840418 
C 88.359795 75.203513 70.512999 89.61111 57.947952 108.199268 
C 45.382906 126.787426 38.665885 148.718423 38.665885 171.155 
C 38.665885 193.591577 45.382906 215.522574 57.947952 234.110732 
C 70.512999 252.69889 88.359795 267.106487 109.179465 275.469582 
" clip-path="url(#p011ffdcbb9)" style="fill: #c44e52; opacity: 0.4"/>
   </g>
   <g id="patch_3">
    <path d="M 109.179465 66.840418 
C 126.238413 59.987975 144.720677 57.423574 163.000842 59.372739 
C 181.281008 61.321904 198.807009 67.725771 214.03753 78.021154 
C 229.268051 88.316537 241.743127 102.192514 250.365643 118.428767 
C 258.988158 134.66502 263.497711 152.771211 263.497711 171.155 
C 263.497711 189.538789 258.988158 207.64498 250.365643 223.881233 
C 241.743127 240.117486 229.268051 253.993463 214.03753 264.288846 
C 198.807009 274.584229 181.281008 280.988096 163.000842 282.937261 
C 144.720677 284.886426 126.238413 282.322025 109.179465 275.469582 
C 128.119738 288.285767 150.197668 295.704731 173.033928 296.926938 
C 195.870188 298.149145 218.613861 293.129052 238.813875 282.407673 
C 259.01389 271.686293 275.917559 255.663124 287.703184 236.064971 
C 299.48881 216.466818 305.71724 194.023943 305.71724 171.155 
C 305.71724 148.286057 299.48881 125.843182 287.703184 106.245029 
C 275.917559 86.646876 259.01389 70.623707 238.813875 59.902327 
C 218.613861 49.180948 195.870188 44.160855 173.033928 45.383062 
C 150.197668 46.605269 128.119738 54.024233 109.179465 66.840418 
" clip-path="url(#p011ffdcbb9)" style="fill: #55a868; opacity: 0.4"/>
   </g>
   <g id="patch_4">
    <path d="M 109.179465 275.469582 
C 126.238413 282.322025 144.720677 284.886426 163.000842 282.937261 
C 181.281008 280.988096 198.807009 274.584229 214.03753 264.288846 
C 229.268051 253.993463 241.743127 240.117486 250.365643 223.881233 
C 258.988158 207.64498 263.497711 189.538789 263.497711 171.155 
C 263.497711 152.771211 258.988158 134.66502 250.365643 118.428767 
C 241.743127 102.192514 229.268051 88.316537 214.03753 78.021154 
C 198.807009 67.725771 181.281008 61.321904 163.000842 59.372739 
C 144.720677 57.423574 126.238413 59.987975 109.179465 66.840418 
C 92.128902 78.377906 78.16431 93.921805 68.512625 112.106423 
C 58.86094 130.29104 53.813356 150.567739 53.813356 171.155 
C 53.813356 191.742261 58.86094 212.01896 68.512625 230.203577 
C 78.16431 248.388195 92.128902 263.932094 109.179465 275.469582 
" clip-path="url(#p011ffdcbb9)" style="fill: #c5ac82; opacity: 0.4"/>
   </g>
   <g id="text_1">
    <!-- 3 -->
    <g style="fill: #262626" transform="translate(42.42212 174.46625)scale(0.12 -0.12)">
     <defs>
      <path id="DejaVuSans-33" d="M 2597 2516 
Q 3050 2419 3304 2112 
Q 3559 1806 3559 1356 
Q 3559 666 3084 287 
Q 2609 -91 1734 -91 
Q 1441 -91 1130 -33 
Q 819 25 488 141 
L 488 750 
Q 750 597 1062 519 
Q 1375 441 1716 441 
Q 2309 441 2620 675 
Q 2931 909 2931 1356 
Q 2931 1769 2642 2001 
Q 2353 2234 1838 2234 
L 1294 2234 
L 1294 2753 
L 1863 2753 
Q 2328 2753 2575 2939 
Q 2822 3125 2822 3475 
Q 2822 3834 2567 4026 
Q 2313 4219 1838 4219 
Q 1578 4219 1281 4162 
Q 984 4106 628 3988 
L 628 4550 
Q 988 4650 1302 4700 
Q 1616 4750 1894 4750 
Q 2613 4750 3031 4423 
Q 3450 4097 3450 3541 
Q 3450 3153 3228 2886 
Q 3006 2619 2597 2516 
z
" transform="scale(0.015625)"/>
     </defs>
     <use xlink:href="#DejaVuSans-33"/>
    </g>
   </g>
   <g id="text_2">
    <!-- 15 -->
    <g style="fill: #262626" transform="translate(276.972475 174.46625)scale(0.12 -0.12)">
     <defs>
      <path id="DejaVuSans-31" d="M 794 531 
L 1825 531 
L 1825 4091 
L 703 3866 
L 703 4441 
L 1819 4666 
L 2450 4666 
L 2450 531 
L 3481 531 
L 3481 0 
L 794 0 
L 794 531 
z
" transform="scale(0.015625)"/>
      <path id="DejaVuSans-35" d="M 691 4666 
L 3169 4666 
L 3169 4134 
L 1269 4134 
L 1269 2991 
Q 1406 3038 1543 3061 
Q 1681 3084 1819 3084 
Q 2600 3084 3056 2656 
Q 3513 2228 3513 1497 
Q 3513 744 3044 326 
Q 2575 -91 1722 -91 
Q 1428 -91 1123 -41 
Q 819 9 494 109 
L 494 744 
Q 775 591 1075 516 
Q 1375 441 1709 441 
Q 2250 441 2565 725 
Q 2881 1009 2881 1497 
Q 2881 1984 2565 2268 
Q 2250 2553 1709 2553 
Q 1456 2553 1204 2497 
Q 953 2441 691 2322 
L 691 4666 
z
" transform="scale(0.015625)"/>
     </defs>
     <use xlink:href="#DejaVuSans-31"/>
     <use xlink:href="#DejaVuSans-35" x="63.623047"/>
    </g>
   </g>
   <g id="text_3">
    <!-- 44 -->
    <g style="fill: #262626" transform="translate(151.020533 174.46625)scale(0.12 -0.12)">
     <defs>
      <path id="DejaVuSans-34" d="M 2419 4116 
L 825 1625 
L 2419 1625 
L 2419 4116 
z
M 2253 4666 
L 3047 4666 
L 3047 1625 
L 3713 1625 
L 3713 1100 
L 3047 1100 
L 3047 0 
L 2419 0 
L 2419 1100 
L 313 1100 
L 313 1709 
L 2253 4666 
z
" transform="scale(0.015625)"/>
     </defs>
     <use xlink:href="#DejaVuSans-34"/>
     <use xlink:href="#DejaVuSans-34" x="63.623047"/>
    </g>
   </g>
   <g id="text_4">
    <!-- ctl.00.bed -->
    <g style="fill: #262626" transform="translate(78.897298 306.431056)scale(0.144 -0.144)">
     <defs>
      <path id="DejaVuSans-63" d="M 3122 3366 
L 3122 2828 
Q 2878 2963 2633 3030 
Q 2388 3097 2138 3097 
Q 1578 3097 1268 2742 
Q 959 2388 959 1747 
Q 959 1106 1268 751 
Q 1578 397 2138 397 
Q 2388 397 2633 464 
Q 2878 531 3122 666 
L 3122 134 
Q 2881 22 2623 -34 
Q 2366 -91 2075 -91 
Q 1284 -91 818 406 
Q 353 903 353 1747 
Q 353 2603 823 3093 
Q 1294 3584 2113 3584 
Q 2378 3584 2631 3529 
Q 2884 3475 3122 3366 
z
" transform="scale(0.015625)"/>
      <path id="DejaVuSans-74" d="M 1172 4494 
L 1172 3500 
L 2356 3500 
L 2356 3053 
L 1172 3053 
L 1172 1153 
Q 1172 725 1289 603 
Q 1406 481 1766 481 
L 2356 481 
L 2356 0 
L 1766 0 
Q 1100 0 847 248 
Q 594 497 594 1153 
L 594 3053 
L 172 3053 
L 172 3500 
L 594 3500 
L 594 4494 
L 1172 4494 
z
" transform="scale(0.015625)"/>
      <path id="DejaVuSans-6c" d="M 603 4863 
L 1178 4863 
L 1178 0 
L 603 0 
L 603 4863 
z
" transform="scale(0.015625)"/>
      <path id="DejaVuSans-2e" d="M 684 794 
L 1344 794 
L 1344 0 
L 684 0 
L 684 794 
z
" transform="scale(0.015625)"/>
      <path id="DejaVuSans-30" d="M 2034 4250 
Q 1547 4250 1301 3770 
Q 1056 3291 1056 2328 
Q 1056 1369 1301 889 
Q 1547 409 2034 409 
Q 2525 409 2770 889 
Q 3016 1369 3016 2328 
Q 3016 3291 2770 3770 
Q 2525 4250 2034 4250 
z
M 2034 4750 
Q 2819 4750 3233 4129 
Q 3647 3509 3647 2328 
Q 3647 1150 3233 529 
Q 2819 -91 2034 -91 
Q 1250 -91 836 529 
Q 422 1150 422 2328 
Q 422 3509 836 4129 
Q 1250 4750 2034 4750 
z
" transform="scale(0.015625)"/>
      <path id="DejaVuSans-62" d="M 3116 1747 
Q 3116 2381 2855 2742 
Q 2594 3103 2138 3103 
Q 1681 3103 1420 2742 
Q 1159 2381 1159 1747 
Q 1159 1113 1420 752 
Q 1681 391 2138 391 
Q 2594 391 2855 752 
Q 3116 1113 3116 1747 
z
M 1159 2969 
Q 1341 3281 1617 3432 
Q 1894 3584 2278 3584 
Q 2916 3584 3314 3078 
Q 3713 2572 3713 1747 
Q 3713 922 3314 415 
Q 2916 -91 2278 -91 
Q 1894 -91 1617 61 
Q 1341 213 1159 525 
L 1159 0 
L 581 0 
L 581 4863 
L 1159 4863 
L 1159 2969 
z
" transform="scale(0.015625)"/>
      <path id="DejaVuSans-65" d="M 3597 1894 
L 3597 1613 
L 953 1613 
Q 991 1019 1311 708 
Q 1631 397 2203 397 
Q 2534 397 2845 478 
Q 3156 559 3463 722 
L 3463 178 
Q 3153 47 2828 -22 
Q 2503 -91 2169 -91 
Q 1331 -91 842 396 
Q 353 884 353 1716 
Q 353 2575 817 3079 
Q 1281 3584 2069 3584 
Q 2775 3584 3186 3129 
Q 3597 2675 3597 1894 
z
M 3022 2063 
Q 3016 2534 2758 2815 
Q 2500 3097 2075 3097 
Q 1594 3097 1305 2825 
Q 1016 2553 972 2059 
L 3022 2063 
z
" transform="scale(0.015625)"/>
      <path id="DejaVuSans-64" d="M 2906 2969 
L 2906 4863 
L 3481 4863 
L 3481 0 
L 2906 0 
L 2906 525 
Q 2725 213 2448 61 
Q 2172 -91 1784 -91 
Q 1150 -91 751 415 
Q 353 922 353 1747 
Q 353 2572 751 3078 
Q 1150 3584 1784 3584 
Q 2172 3584 2448 3432 
Q 2725 3281 2906 2969 
z
M 947 1747 
Q 947 1113 1208 752 
Q 1469 391 1925 391 
Q 2381 391 2643 752 
Q 2906 1113 2906 1747 
Q 2906 2381 2643 2742 
Q 2381 3103 1925 3103 
Q 1469 3103 1208 2742 
Q 947 2381 947 1747 
z
" transform="scale(0.015625)"/>
     </defs>
     <use xlink:href="#DejaVuSans-63"/>
     <use xlink:href="#DejaVuSans-74" x="54.980469"/>
     <use xlink:href="#DejaVuSans-6c" x="94.189453"/>
     <use xlink:href="#DejaVuSans-2e" x="121.972656"/>
     <use xlink:href="#DejaVuSans-30" x="153.759766"/>
     <use xlink:href="#DejaVuSans-30" x="217.382812"/>
     <use xlink:href="#DejaVuSans-2e" x="281.005859"/>
     <use xlink:href="#DejaVuSans-62" x="312.792969"/>
     <use xlink:href="#DejaVuSans-65" x="376.269531"/>
     <use xlink:href="#DejaVuSans-64" x="437.792969"/>
    </g>
   </g>
   <g id="text_5">
    <!-- yth.00.bed -->
    <g style="fill: #262626" transform="translate(179.765298 319.967085)scale(0.144 -0.144)">
     <defs>
      <path id="DejaVuSans-79" d="M 2059 -325 
Q 1816 -950 1584 -1140 
Q 1353 -1331 966 -1331 
L 506 -1331 
L 506 -850 
L 844 -850 
Q 1081 -850 1212 -737 
Q 1344 -625 1503 -206 
L 1606 56 
L 191 3500 
L 800 3500 
L 1894 763 
L 2988 3500 
L 3597 3500 
L 2059 -325 
z
" transform="scale(0.015625)"/>
      <path id="DejaVuSans-68" d="M 3513 2113 
L 3513 0 
L 2938 0 
L 2938 2094 
Q 2938 2591 2744 2837 
Q 2550 3084 2163 3084 
Q 1697 3084 1428 2787 
Q 1159 2491 1159 1978 
L 1159 0 
L 581 0 
L 581 4863 
L 1159 4863 
L 1159 2956 
Q 1366 3272 1645 3428 
Q 1925 3584 2291 3584 
Q 2894 3584 3203 3211 
Q 3513 2838 3513 2113 
z
" transform="scale(0.015625)"/>
     </defs>
     <use xlink:href="#DejaVuSans-79"/>
     <use xlink:href="#DejaVuSans-74" x="59.179688"/>
     <use xlink:href="#DejaVuSans-68" x="98.388672"/>
     <use xlink:href="#DejaVuSans-2e" x="161.767578"/>
     <use xlink:href="#DejaVuSans-30" x="193.554688"/>
     <use xlink:href="#DejaVuSans-30" x="257.177734"/>
     <use xlink:href="#DejaVuSans-2e" x="320.800781"/>
     <use xlink:href="#DejaVuSans-62" x="352.587891"/>
     <use xlink:href="#DejaVuSans-65" x="416.064453"/>
     <use xlink:href="#DejaVuSans-64" x="477.587891"/>
    </g>
   </g>
   <g id="text_6">
    <!-- All ≥1% edits expressed in all reps (n=3 per condition) -->
    <g style="fill: #262626" transform="translate(7.2 16.318125)scale(0.12 -0.12)">
     <defs>
      <path id="DejaVuSans-41" d="M 2188 4044 
L 1331 1722 
L 3047 1722 
L 2188 4044 
z
M 1831 4666 
L 2547 4666 
L 4325 0 
L 3669 0 
L 3244 1197 
L 1141 1197 
L 716 0 
L 50 0 
L 1831 4666 
z
" transform="scale(0.015625)"/>
      <path id="DejaVuSans-20" transform="scale(0.015625)"/>
      <path id="DejaVuSans-2265" d="M 678 3175 
L 678 3725 
L 4684 2578 
L 4684 2047 
L 678 897 
L 678 1453 
L 3681 2309 
L 678 3175 
z
M 4684 531 
L 4684 0 
L 678 0 
L 678 531 
L 4684 531 
z
" transform="scale(0.015625)"/>
      <path id="DejaVuSans-25" d="M 4653 2053 
Q 4381 2053 4226 1822 
Q 4072 1591 4072 1178 
Q 4072 772 4226 539 
Q 4381 306 4653 306 
Q 4919 306 5073 539 
Q 5228 772 5228 1178 
Q 5228 1588 5073 1820 
Q 4919 2053 4653 2053 
z
M 4653 2450 
Q 5147 2450 5437 2106 
Q 5728 1763 5728 1178 
Q 5728 594 5436 251 
Q 5144 -91 4653 -91 
Q 4153 -91 3862 251 
Q 3572 594 3572 1178 
Q 3572 1766 3864 2108 
Q 4156 2450 4653 2450 
z
M 1428 4353 
Q 1159 4353 1004 4120 
Q 850 3888 850 3481 
Q 850 3069 1003 2837 
Q 1156 2606 1428 2606 
Q 1700 2606 1854 2837 
Q 2009 3069 2009 3481 
Q 2009 3884 1853 4118 
Q 1697 4353 1428 4353 
z
M 4250 4750 
L 4750 4750 
L 1831 -91 
L 1331 -91 
L 4250 4750 
z
M 1428 4750 
Q 1922 4750 2215 4408 
Q 2509 4066 2509 3481 
Q 2509 2891 2217 2550 
Q 1925 2209 1428 2209 
Q 931 2209 642 2551 
Q 353 2894 353 3481 
Q 353 4063 643 4406 
Q 934 4750 1428 4750 
z
" transform="scale(0.015625)"/>
      <path id="DejaVuSans-69" d="M 603 3500 
L 1178 3500 
L 1178 0 
L 603 0 
L 603 3500 
z
M 603 4863 
L 1178 4863 
L 1178 4134 
L 603 4134 
L 603 4863 
z
" transform="scale(0.015625)"/>
      <path id="DejaVuSans-73" d="M 2834 3397 
L 2834 2853 
Q 2591 2978 2328 3040 
Q 2066 3103 1784 3103 
Q 1356 3103 1142 2972 
Q 928 2841 928 2578 
Q 928 2378 1081 2264 
Q 1234 2150 1697 2047 
L 1894 2003 
Q 2506 1872 2764 1633 
Q 3022 1394 3022 966 
Q 3022 478 2636 193 
Q 2250 -91 1575 -91 
Q 1294 -91 989 -36 
Q 684 19 347 128 
L 347 722 
Q 666 556 975 473 
Q 1284 391 1588 391 
Q 1994 391 2212 530 
Q 2431 669 2431 922 
Q 2431 1156 2273 1281 
Q 2116 1406 1581 1522 
L 1381 1569 
Q 847 1681 609 1914 
Q 372 2147 372 2553 
Q 372 3047 722 3315 
Q 1072 3584 1716 3584 
Q 2034 3584 2315 3537 
Q 2597 3491 2834 3397 
z
" transform="scale(0.015625)"/>
      <path id="DejaVuSans-78" d="M 3513 3500 
L 2247 1797 
L 3578 0 
L 2900 0 
L 1881 1375 
L 863 0 
L 184 0 
L 1544 1831 
L 300 3500 
L 978 3500 
L 1906 2253 
L 2834 3500 
L 3513 3500 
z
" transform="scale(0.015625)"/>
      <path id="DejaVuSans-70" d="M 1159 525 
L 1159 -1331 
L 581 -1331 
L 581 3500 
L 1159 3500 
L 1159 2969 
Q 1341 3281 1617 3432 
Q 1894 3584 2278 3584 
Q 2916 3584 3314 3078 
Q 3713 2572 3713 1747 
Q 3713 922 3314 415 
Q 2916 -91 2278 -91 
Q 1894 -91 1617 61 
Q 1341 213 1159 525 
z
M 3116 1747 
Q 3116 2381 2855 2742 
Q 2594 3103 2138 3103 
Q 1681 3103 1420 2742 
Q 1159 2381 1159 1747 
Q 1159 1113 1420 752 
Q 1681 391 2138 391 
Q 2594 391 2855 752 
Q 3116 1113 3116 1747 
z
" transform="scale(0.015625)"/>
      <path id="DejaVuSans-72" d="M 2631 2963 
Q 2534 3019 2420 3045 
Q 2306 3072 2169 3072 
Q 1681 3072 1420 2755 
Q 1159 2438 1159 1844 
L 1159 0 
L 581 0 
L 581 3500 
L 1159 3500 
L 1159 2956 
Q 1341 3275 1631 3429 
Q 1922 3584 2338 3584 
Q 2397 3584 2469 3576 
Q 2541 3569 2628 3553 
L 2631 2963 
z
" transform="scale(0.015625)"/>
      <path id="DejaVuSans-6e" d="M 3513 2113 
L 3513 0 
L 2938 0 
L 2938 2094 
Q 2938 2591 2744 2837 
Q 2550 3084 2163 3084 
Q 1697 3084 1428 2787 
Q 1159 2491 1159 1978 
L 1159 0 
L 581 0 
L 581 3500 
L 1159 3500 
L 1159 2956 
Q 1366 3272 1645 3428 
Q 1925 3584 2291 3584 
Q 2894 3584 3203 3211 
Q 3513 2838 3513 2113 
z
" transform="scale(0.015625)"/>
      <path id="DejaVuSans-61" d="M 2194 1759 
Q 1497 1759 1228 1600 
Q 959 1441 959 1056 
Q 959 750 1161 570 
Q 1363 391 1709 391 
Q 2188 391 2477 730 
Q 2766 1069 2766 1631 
L 2766 1759 
L 2194 1759 
z
M 3341 1997 
L 3341 0 
L 2766 0 
L 2766 531 
Q 2569 213 2275 61 
Q 1981 -91 1556 -91 
Q 1019 -91 701 211 
Q 384 513 384 1019 
Q 384 1609 779 1909 
Q 1175 2209 1959 2209 
L 2766 2209 
L 2766 2266 
Q 2766 2663 2505 2880 
Q 2244 3097 1772 3097 
Q 1472 3097 1187 3025 
Q 903 2953 641 2809 
L 641 3341 
Q 956 3463 1253 3523 
Q 1550 3584 1831 3584 
Q 2591 3584 2966 3190 
Q 3341 2797 3341 1997 
z
" transform="scale(0.015625)"/>
      <path id="DejaVuSans-28" d="M 1984 4856 
Q 1566 4138 1362 3434 
Q 1159 2731 1159 2009 
Q 1159 1288 1364 580 
Q 1569 -128 1984 -844 
L 1484 -844 
Q 1016 -109 783 600 
Q 550 1309 550 2009 
Q 550 2706 781 3412 
Q 1013 4119 1484 4856 
L 1984 4856 
z
" transform="scale(0.015625)"/>
      <path id="DejaVuSans-3d" d="M 678 2906 
L 4684 2906 
L 4684 2381 
L 678 2381 
L 678 2906 
z
M 678 1631 
L 4684 1631 
L 4684 1100 
L 678 1100 
L 678 1631 
z
" transform="scale(0.015625)"/>
      <path id="DejaVuSans-6f" d="M 1959 3097 
Q 1497 3097 1228 2736 
Q 959 2375 959 1747 
Q 959 1119 1226 758 
Q 1494 397 1959 397 
Q 2419 397 2687 759 
Q 2956 1122 2956 1747 
Q 2956 2369 2687 2733 
Q 2419 3097 1959 3097 
z
M 1959 3584 
Q 2709 3584 3137 3096 
Q 3566 2609 3566 1747 
Q 3566 888 3137 398 
Q 2709 -91 1959 -91 
Q 1206 -91 779 398 
Q 353 888 353 1747 
Q 353 2609 779 3096 
Q 1206 3584 1959 3584 
z
" transform="scale(0.015625)"/>
      <path id="DejaVuSans-29" d="M 513 4856 
L 1013 4856 
Q 1481 4119 1714 3412 
Q 1947 2706 1947 2009 
Q 1947 1309 1714 600 
Q 1481 -109 1013 -844 
L 513 -844 
Q 928 -128 1133 580 
Q 1338 1288 1338 2009 
Q 1338 2731 1133 3434 
Q 928 4138 513 4856 
z
" transform="scale(0.015625)"/>
     </defs>
     <use xlink:href="#DejaVuSans-41"/>
     <use xlink:href="#DejaVuSans-6c" x="68.408203"/>
     <use xlink:href="#DejaVuSans-6c" x="96.191406"/>
     <use xlink:href="#DejaVuSans-20" x="123.974609"/>
     <use xlink:href="#DejaVuSans-2265" x="155.761719"/>
     <use xlink:href="#DejaVuSans-31" x="239.550781"/>
     <use xlink:href="#DejaVuSans-25" x="303.173828"/>
     <use xlink:href="#DejaVuSans-20" x="398.193359"/>
     <use xlink:href="#DejaVuSans-65" x="429.980469"/>
     <use xlink:href="#DejaVuSans-64" x="491.503906"/>
     <use xlink:href="#DejaVuSans-69" x="554.980469"/>
     <use xlink:href="#DejaVuSans-74" x="582.763672"/>
     <use xlink:href="#DejaVuSans-73" x="621.972656"/>
     <use xlink:href="#DejaVuSans-20" x="674.072266"/>
     <use xlink:href="#DejaVuSans-65" x="705.859375"/>
     <use xlink:href="#DejaVuSans-78" x="765.632812"/>
     <use xlink:href="#DejaVuSans-70" x="824.8125"/>
     <use xlink:href="#DejaVuSans-72" x="888.289062"/>
     <use xlink:href="#DejaVuSans-65" x="927.152344"/>
     <use xlink:href="#DejaVuSans-73" x="988.675781"/>
     <use xlink:href="#DejaVuSans-73" x="1040.775391"/>
     <use xlink:href="#DejaVuSans-65" x="1092.875"/>
     <use xlink:href="#DejaVuSans-64" x="1154.398438"/>
     <use xlink:href="#DejaVuSans-20" x="1217.875"/>
     <use xlink:href="#DejaVuSans-69" x="1249.662109"/>
     <use xlink:href="#DejaVuSans-6e" x="1277.445312"/>
     <use xlink:href="#DejaVuSans-20" x="1340.824219"/>
     <use xlink:href="#DejaVuSans-61" x="1372.611328"/>
     <use xlink:href="#DejaVuSans-6c" x="1433.890625"/>
     <use xlink:href="#DejaVuSans-6c" x="1461.673828"/>
     <use xlink:href="#DejaVuSans-20" x="1489.457031"/>
     <use xlink:href="#DejaVuSans-72" x="1521.244141"/>
     <use xlink:href="#DejaVuSans-65" x="1560.107422"/>
     <use xlink:href="#DejaVuSans-70" x="1621.630859"/>
     <use xlink:href="#DejaVuSans-73" x="1685.107422"/>
     <use xlink:href="#DejaVuSans-20" x="1737.207031"/>
     <use xlink:href="#DejaVuSans-28" x="1768.994141"/>
     <use xlink:href="#DejaVuSans-6e" x="1808.007812"/>
     <use xlink:href="#DejaVuSans-3d" x="1871.386719"/>
     <use xlink:href="#DejaVuSans-33" x="1955.175781"/>
     <use xlink:href="#DejaVuSans-20" x="2018.798828"/>
     <use xlink:href="#DejaVuSans-70" x="2050.585938"/>
     <use xlink:href="#DejaVuSans-65" x="2114.0625"/>
     <use xlink:href="#DejaVuSans-72" x="2175.585938"/>
     <use xlink:href="#DejaVuSans-20" x="2216.699219"/>
     <use xlink:href="#DejaVuSans-63" x="2248.486328"/>
     <use xlink:href="#DejaVuSans-6f" x="2303.466797"/>
     <use xlink:href="#DejaVuSans-6e" x="2364.648438"/>
     <use xlink:href="#DejaVuSans-64" x="2428.027344"/>
     <use xlink:href="#DejaVuSans-69" x="2491.503906"/>
     <use xlink:href="#DejaVuSans-74" x="2519.287109"/>
     <use xlink:href="#DejaVuSans-69" x="2558.496094"/>
     <use xlink:href="#DejaVuSans-6f" x="2586.279297"/>
     <use xlink:href="#DejaVuSans-6e" x="2647.460938"/>
     <use xlink:href="#DejaVuSans-29" x="2710.839844"/>
    </g>
   </g>
  </g>
  <g id="axes_2">
   <g id="patch_5">
    <path d="M 430.683758 319.991875 
L 864.094567 319.991875 
L 864.094567 22.318125 
L 430.683758 22.318125 
z
" style="fill: #ffffff"/>
   </g>
   <g id="matplotlib.axis_1">
    <g id="xtick_1">
     <g id="text_7">
      <!-- ADAR-Ctl_only -->
      <g style="fill: #262626" transform="translate(445.701828 337.850156)scale(0.11 -0.11)">
       <defs>
        <path id="DejaVuSans-44" d="M 1259 4147 
L 1259 519 
L 2022 519 
Q 2988 519 3436 956 
Q 3884 1394 3884 2338 
Q 3884 3275 3436 3711 
Q 2988 4147 2022 4147 
L 1259 4147 
z
M 628 4666 
L 1925 4666 
Q 3281 4666 3915 4102 
Q 4550 3538 4550 2338 
Q 4550 1131 3912 565 
Q 3275 0 1925 0 
L 628 0 
L 628 4666 
z
" transform="scale(0.015625)"/>
        <path id="DejaVuSans-52" d="M 2841 2188 
Q 3044 2119 3236 1894 
Q 3428 1669 3622 1275 
L 4263 0 
L 3584 0 
L 2988 1197 
Q 2756 1666 2539 1819 
Q 2322 1972 1947 1972 
L 1259 1972 
L 1259 0 
L 628 0 
L 628 4666 
L 2053 4666 
Q 2853 4666 3247 4331 
Q 3641 3997 3641 3322 
Q 3641 2881 3436 2590 
Q 3231 2300 2841 2188 
z
M 1259 4147 
L 1259 2491 
L 2053 2491 
Q 2509 2491 2742 2702 
Q 2975 2913 2975 3322 
Q 2975 3731 2742 3939 
Q 2509 4147 2053 4147 
L 1259 4147 
z
" transform="scale(0.015625)"/>
        <path id="DejaVuSans-2d" d="M 313 2009 
L 1997 2009 
L 1997 1497 
L 313 1497 
L 313 2009 
z
" transform="scale(0.015625)"/>
        <path id="DejaVuSans-43" d="M 4122 4306 
L 4122 3641 
Q 3803 3938 3442 4084 
Q 3081 4231 2675 4231 
Q 1875 4231 1450 3742 
Q 1025 3253 1025 2328 
Q 1025 1406 1450 917 
Q 1875 428 2675 428 
Q 3081 428 3442 575 
Q 3803 722 4122 1019 
L 4122 359 
Q 3791 134 3420 21 
Q 3050 -91 2638 -91 
Q 1578 -91 968 557 
Q 359 1206 359 2328 
Q 359 3453 968 4101 
Q 1578 4750 2638 4750 
Q 3056 4750 3426 4639 
Q 3797 4528 4122 4306 
z
" transform="scale(0.015625)"/>
        <path id="DejaVuSans-5f" d="M 3263 -1063 
L 3263 -1509 
L -63 -1509 
L -63 -1063 
L 3263 -1063 
z
" transform="scale(0.015625)"/>
       </defs>
       <use xlink:href="#DejaVuSans-41"/>
       <use xlink:href="#DejaVuSans-44" x="68.408203"/>
       <use xlink:href="#DejaVuSans-41" x="143.660156"/>
       <use xlink:href="#DejaVuSans-52" x="212.068359"/>
       <use xlink:href="#DejaVuSans-2d" x="277.550781"/>
       <use xlink:href="#DejaVuSans-43" x="313.634766"/>
       <use xlink:href="#DejaVuSans-74" x="383.458984"/>
       <use xlink:href="#DejaVuSans-6c" x="422.667969"/>
       <use xlink:href="#DejaVuSans-5f" x="450.451172"/>
       <use xlink:href="#DejaVuSans-6f" x="500.451172"/>
       <use xlink:href="#DejaVuSans-6e" x="561.632812"/>
       <use xlink:href="#DejaVuSans-6c" x="625.011719"/>
       <use xlink:href="#DejaVuSans-79" x="652.794922"/>
      </g>
     </g>
    </g>
    <g id="xtick_2">
     <g id="text_8">
      <!-- ADAR-Ctl_shared -->
      <g style="fill: #262626" transform="translate(546.954374 337.850156)scale(0.11 -0.11)">
       <use xlink:href="#DejaVuSans-41"/>
       <use xlink:href="#DejaVuSans-44" x="68.408203"/>
       <use xlink:href="#DejaVuSans-41" x="143.660156"/>
       <use xlink:href="#DejaVuSans-52" x="212.068359"/>
       <use xlink:href="#DejaVuSans-2d" x="277.550781"/>
       <use xlink:href="#DejaVuSans-43" x="313.634766"/>
       <use xlink:href="#DejaVuSans-74" x="383.458984"/>
       <use xlink:href="#DejaVuSans-6c" x="422.667969"/>
       <use xlink:href="#DejaVuSans-5f" x="450.451172"/>
       <use xlink:href="#DejaVuSans-73" x="500.451172"/>
       <use xlink:href="#DejaVuSans-68" x="552.550781"/>
       <use xlink:href="#DejaVuSans-61" x="615.929688"/>
       <use xlink:href="#DejaVuSans-72" x="677.208984"/>
       <use xlink:href="#DejaVuSans-65" x="716.072266"/>
       <use xlink:href="#DejaVuSans-64" x="777.595703"/>
      </g>
     </g>
    </g>
    <g id="xtick_3">
     <g id="text_9">
      <!-- YTH-ADAR_shared -->
      <g style="fill: #262626" transform="translate(651.880748 337.850156)scale(0.11 -0.11)">
       <defs>
        <path id="DejaVuSans-59" d="M -13 4666 
L 666 4666 
L 1959 2747 
L 3244 4666 
L 3922 4666 
L 2272 2222 
L 2272 0 
L 1638 0 
L 1638 2222 
L -13 4666 
z
" transform="scale(0.015625)"/>
        <path id="DejaVuSans-54" d="M -19 4666 
L 3928 4666 
L 3928 4134 
L 2272 4134 
L 2272 0 
L 1638 0 
L 1638 4134 
L -19 4134 
L -19 4666 
z
" transform="scale(0.015625)"/>
        <path id="DejaVuSans-48" d="M 628 4666 
L 1259 4666 
L 1259 2753 
L 3553 2753 
L 3553 4666 
L 4184 4666 
L 4184 0 
L 3553 0 
L 3553 2222 
L 1259 2222 
L 1259 0 
L 628 0 
L 628 4666 
z
" transform="scale(0.015625)"/>
       </defs>
       <use xlink:href="#DejaVuSans-59"/>
       <use xlink:href="#DejaVuSans-54" x="61.083984"/>
       <use xlink:href="#DejaVuSans-48" x="122.167969"/>
       <use xlink:href="#DejaVuSans-2d" x="197.363281"/>
       <use xlink:href="#DejaVuSans-41" x="231.197266"/>
       <use xlink:href="#DejaVuSans-44" x="299.605469"/>
       <use xlink:href="#DejaVuSans-41" x="374.857422"/>
       <use xlink:href="#DejaVuSans-52" x="443.265625"/>
       <use xlink:href="#DejaVuSans-5f" x="512.748047"/>
       <use xlink:href="#DejaVuSans-73" x="562.748047"/>
       <use xlink:href="#DejaVuSans-68" x="614.847656"/>
       <use xlink:href="#DejaVuSans-61" x="678.226562"/>
       <use xlink:href="#DejaVuSans-72" x="739.505859"/>
       <use xlink:href="#DejaVuSans-65" x="778.369141"/>
       <use xlink:href="#DejaVuSans-64" x="839.892578"/>
      </g>
     </g>
    </g>
    <g id="xtick_4">
     <g id="text_10">
      <!-- YTH-ADAR_only -->
      <g style="fill: #262626" transform="translate(767.333607 337.850156)scale(0.11 -0.11)">
       <use xlink:href="#DejaVuSans-59"/>
       <use xlink:href="#DejaVuSans-54" x="61.083984"/>
       <use xlink:href="#DejaVuSans-48" x="122.167969"/>
       <use xlink:href="#DejaVuSans-2d" x="197.363281"/>
       <use xlink:href="#DejaVuSans-41" x="231.197266"/>
       <use xlink:href="#DejaVuSans-44" x="299.605469"/>
       <use xlink:href="#DejaVuSans-41" x="374.857422"/>
       <use xlink:href="#DejaVuSans-52" x="443.265625"/>
       <use xlink:href="#DejaVuSans-5f" x="512.748047"/>
       <use xlink:href="#DejaVuSans-6f" x="562.748047"/>
       <use xlink:href="#DejaVuSans-6e" x="623.929688"/>
       <use xlink:href="#DejaVuSans-6c" x="687.308594"/>
       <use xlink:href="#DejaVuSans-79" x="715.091797"/>
      </g>
     </g>
    </g>
   </g>
   <g id="matplotlib.axis_2">
    <g id="ytick_1">
     <g id="line2d_1">
      <path d="M 430.683758 318.813807 
L 864.094567 318.813807 
" clip-path="url(#pc2410ae3d7)" style="fill: none; stroke: #cccccc; stroke-linecap: round"/>
     </g>
     <g id="text_11">
      <!-- 0.00 -->
      <g style="fill: #262626" transform="translate(396.691571 322.992948)scale(0.11 -0.11)">
       <use xlink:href="#DejaVuSans-30"/>
       <use xlink:href="#DejaVuSans-2e" x="63.623047"/>
       <use xlink:href="#DejaVuSans-30" x="95.410156"/>
       <use xlink:href="#DejaVuSans-30" x="159.033203"/>
      </g>
     </g>
    </g>
    <g id="ytick_2">
     <g id="line2d_2">
      <path d="M 430.683758 261.626043 
L 864.094567 261.626043 
" clip-path="url(#pc2410ae3d7)" style="fill: none; stroke: #cccccc; stroke-linecap: round"/>
     </g>
     <g id="text_12">
      <!-- 0.05 -->
      <g style="fill: #262626" transform="translate(396.691571 265.805184)scale(0.11 -0.11)">
       <use xlink:href="#DejaVuSans-30"/>
       <use xlink:href="#DejaVuSans-2e" x="63.623047"/>
       <use xlink:href="#DejaVuSans-30" x="95.410156"/>
       <use xlink:href="#DejaVuSans-35" x="159.033203"/>
      </g>
     </g>
    </g>
    <g id="ytick_3">
     <g id="line2d_3">
      <path d="M 430.683758 204.438279 
L 864.094567 204.438279 
" clip-path="url(#pc2410ae3d7)" style="fill: none; stroke: #cccccc; stroke-linecap: round"/>
     </g>
     <g id="text_13">
      <!-- 0.10 -->
      <g style="fill: #262626" transform="translate(396.691571 208.617419)scale(0.11 -0.11)">
       <use xlink:href="#DejaVuSans-30"/>
       <use xlink:href="#DejaVuSans-2e" x="63.623047"/>
       <use xlink:href="#DejaVuSans-31" x="95.410156"/>
       <use xlink:href="#DejaVuSans-30" x="159.033203"/>
      </g>
     </g>
    </g>
    <g id="ytick_4">
     <g id="line2d_4">
      <path d="M 430.683758 147.250515 
L 864.094567 147.250515 
" clip-path="url(#pc2410ae3d7)" style="fill: none; stroke: #cccccc; stroke-linecap: round"/>
     </g>
     <g id="text_14">
      <!-- 0.15 -->
      <g style="fill: #262626" transform="translate(396.691571 151.429655)scale(0.11 -0.11)">
       <use xlink:href="#DejaVuSans-30"/>
       <use xlink:href="#DejaVuSans-2e" x="63.623047"/>
       <use xlink:href="#DejaVuSans-31" x="95.410156"/>
       <use xlink:href="#DejaVuSans-35" x="159.033203"/>
      </g>
     </g>
    </g>
    <g id="ytick_5">
     <g id="line2d_5">
      <path d="M 430.683758 90.06275 
L 864.094567 90.06275 
" clip-path="url(#pc2410ae3d7)" style="fill: none; stroke: #cccccc; stroke-linecap: round"/>
     </g>
     <g id="text_15">
      <!-- 0.20 -->
      <g style="fill: #262626" transform="translate(396.691571 94.241891)scale(0.11 -0.11)">
       <defs>
        <path id="DejaVuSans-32" d="M 1228 531 
L 3431 531 
L 3431 0 
L 469 0 
L 469 531 
Q 828 903 1448 1529 
Q 2069 2156 2228 2338 
Q 2531 2678 2651 2914 
Q 2772 3150 2772 3378 
Q 2772 3750 2511 3984 
Q 2250 4219 1831 4219 
Q 1534 4219 1204 4116 
Q 875 4013 500 3803 
L 500 4441 
Q 881 4594 1212 4672 
Q 1544 4750 1819 4750 
Q 2544 4750 2975 4387 
Q 3406 4025 3406 3419 
Q 3406 3131 3298 2873 
Q 3191 2616 2906 2266 
Q 2828 2175 2409 1742 
Q 1991 1309 1228 531 
z
" transform="scale(0.015625)"/>
       </defs>
       <use xlink:href="#DejaVuSans-30"/>
       <use xlink:href="#DejaVuSans-2e" x="63.623047"/>
       <use xlink:href="#DejaVuSans-32" x="95.410156"/>
       <use xlink:href="#DejaVuSans-30" x="159.033203"/>
      </g>
     </g>
    </g>
    <g id="ytick_6">
     <g id="line2d_6">
      <path d="M 430.683758 32.874986 
L 864.094567 32.874986 
" clip-path="url(#pc2410ae3d7)" style="fill: none; stroke: #cccccc; stroke-linecap: round"/>
     </g>
     <g id="text_16">
      <!-- 0.25 -->
      <g style="fill: #262626" transform="translate(396.691571 37.054127)scale(0.11 -0.11)">
       <use xlink:href="#DejaVuSans-30"/>
       <use xlink:href="#DejaVuSans-2e" x="63.623047"/>
       <use xlink:href="#DejaVuSans-32" x="95.410156"/>
       <use xlink:href="#DejaVuSans-35" x="159.033203"/>
      </g>
     </g>
    </g>
    <g id="text_17">
     <!-- A:I edit ratio -->
     <g style="fill: #262626" transform="translate(390.195946 208.113125)rotate(-90)scale(0.12 -0.12)">
      <defs>
       <path id="DejaVuSans-3a" d="M 750 794 
L 1409 794 
L 1409 0 
L 750 0 
L 750 794 
z
M 750 3309 
L 1409 3309 
L 1409 2516 
L 750 2516 
L 750 3309 
z
" transform="scale(0.015625)"/>
       <path id="DejaVuSans-49" d="M 628 4666 
L 1259 4666 
L 1259 0 
L 628 0 
L 628 4666 
z
" transform="scale(0.015625)"/>
      </defs>
      <use xlink:href="#DejaVuSans-41"/>
      <use xlink:href="#DejaVuSans-3a" x="66.658203"/>
      <use xlink:href="#DejaVuSans-49" x="100.349609"/>
      <use xlink:href="#DejaVuSans-20" x="129.841797"/>
      <use xlink:href="#DejaVuSans-65" x="161.628906"/>
      <use xlink:href="#DejaVuSans-64" x="223.152344"/>
      <use xlink:href="#DejaVuSans-69" x="286.628906"/>
      <use xlink:href="#DejaVuSans-74" x="314.412109"/>
      <use xlink:href="#DejaVuSans-20" x="353.621094"/>
      <use xlink:href="#DejaVuSans-72" x="385.408203"/>
      <use xlink:href="#DejaVuSans-61" x="426.521484"/>
      <use xlink:href="#DejaVuSans-74" x="487.800781"/>
      <use xlink:href="#DejaVuSans-69" x="527.009766"/>
      <use xlink:href="#DejaVuSans-6f" x="554.792969"/>
     </g>
    </g>
   </g>
   <g id="PolyCollection_1">
    <defs>
     <path id="mc0f34d30bb" d="M 520.487348 -41.868753 
L 449.232871 -41.868753 
L 448.83579 -41.879151 
L 448.448067 -41.889549 
L 448.069932 -41.899946 
L 447.701597 -41.910344 
L 447.343262 -41.920742 
L 446.995108 -41.93114 
L 446.657303 -41.941538 
L 446.329995 -41.951935 
L 446.01332 -41.962333 
L 445.707396 -41.972731 
L 445.412326 -41.983129 
L 445.128194 -41.993526 
L 444.855073 -42.003924 
L 444.593015 -42.014322 
L 444.342061 -42.02472 
L 444.102234 -42.035118 
L 443.873544 -42.045515 
L 443.655984 -42.055913 
L 443.449535 -42.066311 
L 443.254164 -42.076709 
L 443.069822 -42.087106 
L 442.89645 -42.097504 
L 442.733977 -42.107902 
L 442.582317 -42.1183 
L 442.441376 -42.128698 
L 442.311047 -42.139095 
L 442.191214 -42.149493 
L 442.081753 -42.159891 
L 441.982528 -42.170289 
L 441.893399 -42.180686 
L 441.814215 -42.191084 
L 441.74482 -42.201482 
L 441.685054 -42.21188 
L 441.634748 -42.222278 
L 441.593732 -42.232675 
L 441.561831 -42.243073 
L 441.538866 -42.253471 
L 441.524659 -42.263869 
L 441.519028 -42.274266 
L 441.521791 -42.284664 
L 441.532766 -42.295062 
L 441.551773 -42.30546 
L 441.578632 -42.315858 
L 441.613165 -42.326255 
L 441.655198 -42.336653 
L 441.70456 -42.347051 
L 441.761085 -42.357449 
L 441.82461 -42.367846 
L 441.894979 -42.378244 
L 441.97204 -42.388642 
L 442.055648 -42.39904 
L 442.145666 -42.409437 
L 442.241962 -42.419835 
L 442.344413 -42.430233 
L 442.452903 -42.440631 
L 442.567325 -42.451029 
L 442.687579 -42.461426 
L 442.813575 -42.471824 
L 442.945232 -42.482222 
L 443.082475 -42.49262 
L 443.225241 -42.503017 
L 443.373475 -42.513415 
L 443.52713 -42.523813 
L 443.686169 -42.534211 
L 443.850562 -42.544609 
L 444.020288 -42.555006 
L 444.195336 -42.565404 
L 444.375699 -42.575802 
L 444.561382 -42.5862 
L 444.752393 -42.596597 
L 444.948749 -42.606995 
L 445.150474 -42.617393 
L 445.357595 -42.627791 
L 445.570147 -42.638189 
L 445.788167 -42.648586 
L 446.011698 -42.658984 
L 446.240785 -42.669382 
L 446.475477 -42.67978 
L 446.715823 -42.690177 
L 446.961875 -42.700575 
L 447.213685 -42.710973 
L 447.471303 -42.721371 
L 447.734782 -42.731769 
L 448.00417 -42.742166 
L 448.279512 -42.752564 
L 448.560852 -42.762962 
L 448.848229 -42.77336 
L 449.141676 -42.783757 
L 449.441223 -42.794155 
L 449.746892 -42.804553 
L 450.058698 -42.814951 
L 450.37665 -42.825348 
L 450.700745 -42.835746 
L 451.030976 -42.846144 
L 451.367324 -42.856542 
L 451.70976 -42.86694 
L 452.058245 -42.877337 
L 452.412729 -42.887735 
L 452.773151 -42.898133 
L 516.947067 -42.898133 
L 516.947067 -42.898133 
L 517.307489 -42.887735 
L 517.661973 -42.877337 
L 518.010458 -42.86694 
L 518.352894 -42.856542 
L 518.689242 -42.846144 
L 519.019473 -42.835746 
L 519.343569 -42.825348 
L 519.66152 -42.814951 
L 519.973326 -42.804553 
L 520.278995 -42.794155 
L 520.578542 -42.783757 
L 520.87199 -42.77336 
L 521.159367 -42.762962 
L 521.440707 -42.752564 
L 521.716049 -42.742166 
L 521.985436 -42.731769 
L 522.248915 -42.721371 
L 522.506534 -42.710973 
L 522.758343 -42.700575 
L 523.004395 -42.690177 
L 523.244742 -42.67978 
L 523.479433 -42.669382 
L 523.70852 -42.658984 
L 523.932051 -42.648586 
L 524.150071 -42.638189 
L 524.362623 -42.627791 
L 524.569744 -42.617393 
L 524.771469 -42.606995 
L 524.967826 -42.596597 
L 525.158837 -42.5862 
L 525.344519 -42.575802 
L 525.524883 -42.565404 
L 525.69993 -42.555006 
L 525.869657 -42.544609 
L 526.034049 -42.534211 
L 526.193088 -42.523813 
L 526.346743 -42.513415 
L 526.494977 -42.503017 
L 526.637743 -42.49262 
L 526.774987 -42.482222 
L 526.906643 -42.471824 
L 527.032639 -42.461426 
L 527.152894 -42.451029 
L 527.267315 -42.440631 
L 527.375806 -42.430233 
L 527.478256 -42.419835 
L 527.574552 -42.409437 
L 527.66457 -42.39904 
L 527.748178 -42.388642 
L 527.825239 -42.378244 
L 527.895608 -42.367846 
L 527.959133 -42.357449 
L 528.015658 -42.347051 
L 528.065021 -42.336653 
L 528.107054 -42.326255 
L 528.141587 -42.315858 
L 528.168445 -42.30546 
L 528.187452 -42.295062 
L 528.198427 -42.284664 
L 528.20119 -42.274266 
L 528.195559 -42.263869 
L 528.181352 -42.253471 
L 528.158388 -42.243073 
L 528.126486 -42.232675 
L 528.08547 -42.222278 
L 528.035165 -42.21188 
L 527.975398 -42.201482 
L 527.906004 -42.191084 
L 527.82682 -42.180686 
L 527.73769 -42.170289 
L 527.638466 -42.159891 
L 527.529004 -42.149493 
L 527.409172 -42.139095 
L 527.278843 -42.128698 
L 527.137901 -42.1183 
L 526.986242 -42.107902 
L 526.823768 -42.097504 
L 526.650396 -42.087106 
L 526.466055 -42.076709 
L 526.270683 -42.066311 
L 526.064234 -42.055913 
L 525.846674 -42.045515 
L 525.617984 -42.035118 
L 525.378157 -42.02472 
L 525.127203 -42.014322 
L 524.865146 -42.003924 
L 524.592024 -41.993526 
L 524.307893 -41.983129 
L 524.012822 -41.972731 
L 523.706898 -41.962333 
L 523.390223 -41.951935 
L 523.062916 -41.941538 
L 522.72511 -41.93114 
L 522.376956 -41.920742 
L 522.018621 -41.910344 
L 521.650287 -41.899946 
L 521.272151 -41.889549 
L 520.884429 -41.879151 
L 520.487348 -41.868753 
z
" style="stroke: #595959; stroke-width: 1.5"/>
    </defs>
    <g clip-path="url(#pc2410ae3d7)">
     <use xlink:href="#mc0f34d30bb" x="0" y="347.64375" style="fill: #72b6a1; stroke: #595959; stroke-width: 1.5"/>
    </g>
   </g>
   <g id="PolyCollection_2">
    <defs>
     <path id="m079594e266" d="M 593.73003 -41.983129 
L 592.695593 -41.983129 
L 592.681874 -44.612611 
L 592.670147 -47.242092 
L 592.660522 -49.871574 
L 592.653082 -52.501056 
L 592.647881 -55.130538 
L 592.644941 -57.76002 
L 592.644256 -60.389502 
L 592.645792 -63.018983 
L 592.649488 -65.648465 
L 592.655259 -68.277947 
L 592.662996 -70.907429 
L 592.672575 -73.536911 
L 592.683856 -76.166393 
L 592.696684 -78.795874 
L 592.710898 -81.425356 
L 592.726333 -84.054838 
L 592.742818 -86.68432 
L 592.760185 -89.313802 
L 592.778269 -91.943284 
L 592.796909 -94.572766 
L 592.815952 -97.202247 
L 592.835252 -99.831729 
L 592.854674 -102.461211 
L 592.874091 -105.090693 
L 592.893388 -107.720175 
L 592.912459 -110.349657 
L 592.931209 -112.979138 
L 592.949553 -115.60862 
L 592.967416 -118.238102 
L 592.984732 -120.867584 
L 593.001444 -123.497066 
L 593.017503 -126.126548 
L 593.032869 -128.75603 
L 593.047508 -131.385511 
L 593.061393 -134.014993 
L 593.074505 -136.644475 
L 593.08683 -139.273957 
L 593.098359 -141.903439 
L 593.10909 -144.532921 
L 593.119026 -147.162402 
L 593.128174 -149.791884 
L 593.136546 -152.421366 
L 593.144157 -155.050848 
L 593.151027 -157.68033 
L 593.157179 -160.309812 
L 593.162638 -162.939293 
L 593.167433 -165.568775 
L 593.171594 -168.198257 
L 593.175153 -170.827739 
L 593.178142 -173.457221 
L 593.180596 -176.086703 
L 593.182547 -178.716185 
L 593.18403 -181.345666 
L 593.185079 -183.975148 
L 593.185724 -186.60463 
L 593.185999 -189.234112 
L 593.185933 -191.863594 
L 593.185555 -194.493076 
L 593.184892 -197.122557 
L 593.183969 -199.752039 
L 593.182811 -202.381521 
L 593.181438 -205.011003 
L 593.179873 -207.640485 
L 593.178134 -210.269967 
L 593.176239 -212.899448 
L 593.174206 -215.52893 
L 593.17205 -218.158412 
L 593.169786 -220.787894 
L 593.167432 -223.417376 
L 593.165001 -226.046858 
L 593.162509 -228.67634 
L 593.159973 -231.305821 
L 593.157409 -233.935303 
L 593.154834 -236.564785 
L 593.152268 -239.194267 
L 593.149729 -241.823749 
L 593.147237 -244.453231 
L 593.144814 -247.082712 
L 593.142481 -249.712194 
L 593.14026 -252.341676 
L 593.138174 -254.971158 
L 593.136245 -257.60064 
L 593.134496 -260.230122 
L 593.132946 -262.859604 
L 593.131617 -265.489085 
L 593.130527 -268.118567 
L 593.129692 -270.748049 
L 593.129126 -273.377531 
L 593.128841 -276.007013 
L 593.128846 -278.636495 
L 593.129145 -281.265976 
L 593.129742 -283.895458 
L 593.130634 -286.52494 
L 593.131817 -289.154422 
L 593.133282 -291.783904 
L 593.135018 -294.413386 
L 593.137009 -297.042867 
L 593.139237 -299.672349 
L 593.141683 -302.301831 
L 593.28394 -302.301831 
L 593.28394 -302.301831 
L 593.286386 -299.672349 
L 593.288614 -297.042867 
L 593.290605 -294.413386 
L 593.292341 -291.783904 
L 593.293806 -289.154422 
L 593.294989 -286.52494 
L 593.295881 -283.895458 
L 593.296478 -281.265976 
L 593.296777 -278.636495 
L 593.296782 -276.007013 
L 593.296497 -273.377531 
L 593.295931 -270.748049 
L 593.295096 -268.118567 
L 593.294006 -265.489085 
L 593.292677 -262.859604 
L 593.291127 -260.230122 
L 593.289378 -257.60064 
L 593.287449 -254.971158 
L 593.285363 -252.341676 
L 593.283142 -249.712194 
L 593.280809 -247.082712 
L 593.278386 -244.453231 
L 593.275894 -241.823749 
L 593.273355 -239.194267 
L 593.270789 -236.564785 
L 593.268214 -233.935303 
L 593.26565 -231.305821 
L 593.263114 -228.67634 
L 593.260622 -226.046858 
L 593.258191 -223.417376 
L 593.255836 -220.787894 
L 593.253573 -218.158412 
L 593.251417 -215.52893 
L 593.249383 -212.899448 
L 593.247489 -210.269967 
L 593.24575 -207.640485 
L 593.244184 -205.011003 
L 593.242812 -202.381521 
L 593.241654 -199.752039 
L 593.240731 -197.122557 
L 593.240068 -194.493076 
L 593.23969 -191.863594 
L 593.239624 -189.234112 
L 593.239899 -186.60463 
L 593.240544 -183.975148 
L 593.241593 -181.345666 
L 593.243076 -178.716185 
L 593.245027 -176.086703 
L 593.24748 -173.457221 
L 593.25047 -170.827739 
L 593.254028 -168.198257 
L 593.258189 -165.568775 
L 593.262985 -162.939293 
L 593.268444 -160.309812 
L 593.274596 -157.68033 
L 593.281466 -155.050848 
L 593.289077 -152.421366 
L 593.297449 -149.791884 
L 593.306597 -147.162402 
L 593.316533 -144.532921 
L 593.327264 -141.903439 
L 593.338793 -139.273957 
L 593.351118 -136.644475 
L 593.36423 -134.014993 
L 593.378115 -131.385511 
L 593.392754 -128.75603 
L 593.40812 -126.126548 
L 593.424179 -123.497066 
L 593.440891 -120.867584 
L 593.458207 -118.238102 
L 593.47607 -115.60862 
L 593.494414 -112.979138 
L 593.513164 -110.349657 
L 593.532235 -107.720175 
L 593.551532 -105.090693 
L 593.570949 -102.461211 
L 593.590371 -99.831729 
L 593.609671 -97.202247 
L 593.628714 -94.572766 
L 593.647354 -91.943284 
L 593.665438 -89.313802 
L 593.682805 -86.68432 
L 593.69929 -84.054838 
L 593.714725 -81.425356 
L 593.728939 -78.795874 
L 593.741767 -76.166393 
L 593.753047 -73.536911 
L 593.762627 -70.907429 
L 593.770364 -68.277947 
L 593.776135 -65.648465 
L 593.779831 -63.018983 
L 593.781367 -60.389502 
L 593.780682 -57.76002 
L 593.777742 -55.130538 
L 593.772541 -52.501056 
L 593.765101 -49.871574 
L 593.755476 -47.242092 
L 593.743749 -44.612611 
L 593.73003 -41.983129 
z
" style="stroke: #595959; stroke-width: 1.5"/>
    </defs>
    <g clip-path="url(#pc2410ae3d7)">
     <use xlink:href="#m079594e266" x="0" y="347.64375" style="fill: #e99675; stroke: #595959; stroke-width: 1.5"/>
    </g>
   </g>
   <g id="PolyCollection_3">
    <defs>
     <path id="m64cd385c53" d="M 702.015022 -42.097504 
L 701.116006 -42.097504 
L 701.103338 -44.821721 
L 701.092228 -47.545938 
L 701.082774 -50.270156 
L 701.07505 -52.994373 
L 701.06911 -55.71859 
L 701.064984 -58.442807 
L 701.06268 -61.167024 
L 701.062182 -63.891241 
L 701.063456 -66.615458 
L 701.066448 -69.339676 
L 701.071084 -72.063893 
L 701.077276 -74.78811 
L 701.084926 -77.512327 
L 701.09392 -80.236544 
L 701.10414 -82.960761 
L 701.115461 -85.684978 
L 701.127755 -88.409195 
L 701.140894 -91.133413 
L 701.154751 -93.85763 
L 701.1692 -96.581847 
L 701.184123 -99.306064 
L 701.199403 -102.030281 
L 701.214934 -104.754498 
L 701.230614 -107.478715 
L 701.246351 -110.202932 
L 701.262057 -112.92715 
L 701.277655 -115.651367 
L 701.293075 -118.375584 
L 701.308252 -121.099801 
L 701.323129 -123.824018 
L 701.337657 -126.548235 
L 701.351789 -129.272452 
L 701.365485 -131.996669 
L 701.378713 -134.720887 
L 701.39144 -137.445104 
L 701.403641 -140.169321 
L 701.415293 -142.893538 
L 701.426379 -145.617755 
L 701.436881 -148.341972 
L 701.446789 -151.066189 
L 701.456094 -153.790407 
L 701.464788 -156.514624 
L 701.472869 -159.238841 
L 701.480337 -161.963058 
L 701.487195 -164.687275 
L 701.493446 -167.411492 
L 701.499098 -170.135709 
L 701.504162 -172.859926 
L 701.50865 -175.584144 
L 701.512575 -178.308361 
L 701.515954 -181.032578 
L 701.518805 -183.756795 
L 701.521145 -186.481012 
L 701.522996 -189.205229 
L 701.524379 -191.929446 
L 701.525316 -194.653663 
L 701.525829 -197.377881 
L 701.525941 -200.102098 
L 701.525676 -202.826315 
L 701.525057 -205.550532 
L 701.524108 -208.274749 
L 701.522852 -210.998966 
L 701.521313 -213.723183 
L 701.519516 -216.4474 
L 701.517483 -219.171618 
L 701.51524 -221.895835 
L 701.512811 -224.620052 
L 701.510222 -227.344269 
L 701.507498 -230.068486 
L 701.504666 -232.792703 
L 701.501755 -235.51692 
L 701.498791 -238.241138 
L 701.495804 -240.965355 
L 701.492825 -243.689572 
L 701.489884 -246.413789 
L 701.487012 -249.138006 
L 701.48424 -251.862223 
L 701.481601 -254.58644 
L 701.479125 -257.310657 
L 701.476842 -260.034875 
L 701.474782 -262.759092 
L 701.472972 -265.483309 
L 701.471437 -268.207526 
L 701.470201 -270.931743 
L 701.469282 -273.65596 
L 701.468697 -276.380177 
L 701.468459 -279.104394 
L 701.468576 -281.828612 
L 701.469051 -284.552829 
L 701.469885 -287.277046 
L 701.471072 -290.001263 
L 701.472603 -292.72548 
L 701.474464 -295.449697 
L 701.476637 -298.173914 
L 701.479102 -300.898131 
L 701.481833 -303.622349 
L 701.484803 -306.346566 
L 701.487981 -309.070783 
L 701.491337 -311.795 
L 701.63969 -311.795 
L 701.63969 -311.795 
L 701.643046 -309.070783 
L 701.646225 -306.346566 
L 701.649194 -303.622349 
L 701.651925 -300.898131 
L 701.65439 -298.173914 
L 701.656564 -295.449697 
L 701.658425 -292.72548 
L 701.659956 -290.001263 
L 701.661143 -287.277046 
L 701.661976 -284.552829 
L 701.662452 -281.828612 
L 701.662568 -279.104394 
L 701.66233 -276.380177 
L 701.661745 -273.65596 
L 701.660827 -270.931743 
L 701.65959 -268.207526 
L 701.658056 -265.483309 
L 701.656245 -262.759092 
L 701.654185 -260.034875 
L 701.651903 -257.310657 
L 701.649426 -254.58644 
L 701.646787 -251.862223 
L 701.644016 -249.138006 
L 701.641144 -246.413789 
L 701.638202 -243.689572 
L 701.635223 -240.965355 
L 701.632237 -238.241138 
L 701.629273 -235.51692 
L 701.626361 -232.792703 
L 701.623529 -230.068486 
L 701.620806 -227.344269 
L 701.618216 -224.620052 
L 701.615787 -221.895835 
L 701.613544 -219.171618 
L 701.611512 -216.4474 
L 701.609714 -213.723183 
L 701.608175 -210.998966 
L 701.606919 -208.274749 
L 701.60597 -205.550532 
L 701.605351 -202.826315 
L 701.605086 -200.102098 
L 701.605199 -197.377881 
L 701.605712 -194.653663 
L 701.606648 -191.929446 
L 701.608031 -189.205229 
L 701.609882 -186.481012 
L 701.612223 -183.756795 
L 701.615073 -181.032578 
L 701.618452 -178.308361 
L 701.622377 -175.584144 
L 701.626865 -172.859926 
L 701.631929 -170.135709 
L 701.637582 -167.411492 
L 701.643833 -164.687275 
L 701.65069 -161.963058 
L 701.658158 -159.238841 
L 701.666239 -156.514624 
L 701.674934 -153.790407 
L 701.684238 -151.066189 
L 701.694146 -148.341972 
L 701.704649 -145.617755 
L 701.715734 -142.893538 
L 701.727386 -140.169321 
L 701.739587 -137.445104 
L 701.752315 -134.720887 
L 701.765542 -131.996669 
L 701.779239 -129.272452 
L 701.793371 -126.548235 
L 701.807898 -123.824018 
L 701.822775 -121.099801 
L 701.837952 -118.375584 
L 701.853372 -115.651367 
L 701.86897 -112.92715 
L 701.884677 -110.202932 
L 701.900413 -107.478715 
L 701.916093 -104.754498 
L 701.931624 -102.030281 
L 701.946905 -99.306064 
L 701.961827 -96.581847 
L 701.976277 -93.85763 
L 701.990133 -91.133413 
L 702.003272 -88.409195 
L 702.015567 -85.684978 
L 702.026888 -82.960761 
L 702.037108 -80.236544 
L 702.046102 -77.512327 
L 702.053751 -74.78811 
L 702.059944 -72.063893 
L 702.06458 -69.339676 
L 702.067571 -66.615458 
L 702.068845 -63.891241 
L 702.068348 -61.167024 
L 702.066043 -58.442807 
L 702.061917 -55.71859 
L 702.055977 -52.994373 
L 702.048253 -50.270156 
L 702.038799 -47.545938 
L 702.02769 -44.821721 
L 702.015022 -42.097504 
z
" style="stroke: #595959; stroke-width: 1.5"/>
    </defs>
    <g clip-path="url(#pc2410ae3d7)">
     <use xlink:href="#m64cd385c53" x="0" y="347.64375" style="fill: #95a3c3; stroke: #595959; stroke-width: 1.5"/>
    </g>
   </g>
   <g id="PolyCollection_4">
    <defs>
     <path id="m599781d608" d="M 810.850041 -41.1825 
L 808.986391 -41.1825 
L 808.975978 -42.55154 
L 808.968257 -43.920581 
L 808.963295 -45.289621 
L 808.961134 -46.658662 
L 808.96179 -48.027702 
L 808.965257 -49.396742 
L 808.971501 -50.765783 
L 808.980467 -52.134823 
L 808.992073 -53.503864 
L 809.006218 -54.872904 
L 809.022778 -56.241945 
L 809.041612 -57.610985 
L 809.062561 -58.980025 
L 809.085451 -60.349066 
L 809.110095 -61.718106 
L 809.136299 -63.087147 
L 809.163858 -64.456187 
L 809.192564 -65.825227 
L 809.222208 -67.194268 
L 809.252579 -68.563308 
L 809.28347 -69.932349 
L 809.314678 -71.301389 
L 809.346008 -72.67043 
L 809.377272 -74.03947 
L 809.408295 -75.40851 
L 809.438911 -76.777551 
L 809.468969 -78.146591 
L 809.49833 -79.515632 
L 809.52687 -80.884672 
L 809.554481 -82.253712 
L 809.581068 -83.622753 
L 809.606552 -84.991793 
L 809.630868 -86.360834 
L 809.653965 -87.729874 
L 809.675805 -89.098915 
L 809.696364 -90.467955 
L 809.715629 -91.836995 
L 809.733597 -93.206036 
L 809.750275 -94.575076 
L 809.76568 -95.944117 
L 809.779836 -97.313157 
L 809.792771 -98.682197 
L 809.804523 -100.051238 
L 809.815131 -101.420278 
L 809.824639 -102.789319 
L 809.833093 -104.158359 
L 809.840541 -105.527399 
L 809.847033 -106.89644 
L 809.852618 -108.26548 
L 809.857345 -109.634521 
L 809.861265 -111.003561 
L 809.864425 -112.372602 
L 809.866872 -113.741642 
L 809.868653 -115.110682 
L 809.86981 -116.479723 
L 809.870388 -117.848763 
L 809.870425 -119.217804 
L 809.869964 -120.586844 
L 809.86904 -121.955884 
L 809.86769 -123.324925 
L 809.86595 -124.693965 
L 809.863854 -126.063006 
L 809.861435 -127.432046 
L 809.858725 -128.801087 
L 809.855755 -130.170127 
L 809.852558 -131.539167 
L 809.849162 -132.908208 
L 809.845599 -134.277248 
L 809.841899 -135.646289 
L 809.838092 -137.015329 
L 809.834206 -138.384369 
L 809.830272 -139.75341 
L 809.826319 -141.12245 
L 809.822376 -142.491491 
L 809.818471 -143.860531 
L 809.814633 -145.229572 
L 809.81089 -146.598612 
L 809.807268 -147.967652 
L 809.803794 -149.336693 
L 809.800493 -150.705733 
L 809.797389 -152.074774 
L 809.794505 -153.443814 
L 809.791861 -154.812854 
L 809.789477 -156.181895 
L 809.787371 -157.550935 
L 809.785559 -158.919976 
L 809.784054 -160.289016 
L 809.782867 -161.658056 
L 809.782008 -163.027097 
L 809.781482 -164.396137 
L 809.781295 -165.765178 
L 809.781448 -167.134218 
L 809.78194 -168.503259 
L 809.782767 -169.872299 
L 809.783924 -171.241339 
L 809.785403 -172.61038 
L 809.787194 -173.97942 
L 809.789283 -175.348461 
L 809.791656 -176.717501 
L 810.044775 -176.717501 
L 810.044775 -176.717501 
L 810.047149 -175.348461 
L 810.049238 -173.97942 
L 810.051029 -172.61038 
L 810.052508 -171.241339 
L 810.053665 -169.872299 
L 810.054492 -168.503259 
L 810.054984 -167.134218 
L 810.055137 -165.765178 
L 810.054949 -164.396137 
L 810.054424 -163.027097 
L 810.053565 -161.658056 
L 810.052378 -160.289016 
L 810.050873 -158.919976 
L 810.049061 -157.550935 
L 810.046955 -156.181895 
L 810.044571 -154.812854 
L 810.041927 -153.443814 
L 810.039043 -152.074774 
L 810.035939 -150.705733 
L 810.032637 -149.336693 
L 810.029163 -147.967652 
L 810.025542 -146.598612 
L 810.021798 -145.229572 
L 810.017961 -143.860531 
L 810.014056 -142.491491 
L 810.010113 -141.12245 
L 810.00616 -139.75341 
L 810.002226 -138.384369 
L 809.99834 -137.015329 
L 809.994533 -135.646289 
L 809.990833 -134.277248 
L 809.98727 -132.908208 
L 809.983874 -131.539167 
L 809.980677 -130.170127 
L 809.977707 -128.801087 
L 809.974997 -127.432046 
L 809.972578 -126.063006 
L 809.970482 -124.693965 
L 809.968742 -123.324925 
L 809.967392 -121.955884 
L 809.966468 -120.586844 
L 809.966006 -119.217804 
L 809.966044 -117.848763 
L 809.966622 -116.479723 
L 809.967779 -115.110682 
L 809.96956 -113.741642 
L 809.972007 -112.372602 
L 809.975167 -111.003561 
L 809.979087 -109.634521 
L 809.983814 -108.26548 
L 809.989399 -106.89644 
L 809.995891 -105.527399 
L 810.003339 -104.158359 
L 810.011793 -102.789319 
L 810.021301 -101.420278 
L 810.031909 -100.051238 
L 810.043661 -98.682197 
L 810.056596 -97.313157 
L 810.070752 -95.944117 
L 810.086157 -94.575076 
L 810.102835 -93.206036 
L 810.120803 -91.836995 
L 810.140068 -90.467955 
L 810.160627 -89.098915 
L 810.182467 -87.729874 
L 810.205564 -86.360834 
L 810.22988 -84.991793 
L 810.255364 -83.622753 
L 810.281951 -82.253712 
L 810.309562 -80.884672 
L 810.338102 -79.515632 
L 810.367463 -78.146591 
L 810.397521 -76.777551 
L 810.428137 -75.40851 
L 810.45916 -74.03947 
L 810.490424 -72.67043 
L 810.521754 -71.301389 
L 810.552962 -69.932349 
L 810.583853 -68.563308 
L 810.614224 -67.194268 
L 810.643868 -65.825227 
L 810.672574 -64.456187 
L 810.700133 -63.087147 
L 810.726337 -61.718106 
L 810.750981 -60.349066 
L 810.773871 -58.980025 
L 810.79482 -57.610985 
L 810.813654 -56.241945 
L 810.830214 -54.872904 
L 810.844359 -53.503864 
L 810.855965 -52.134823 
L 810.864931 -50.765783 
L 810.871175 -49.396742 
L 810.874642 -48.027702 
L 810.875298 -46.658662 
L 810.873137 -45.289621 
L 810.868175 -43.920581 
L 810.860454 -42.55154 
L 810.850041 -41.1825 
z
" style="stroke: #595959; stroke-width: 1.5"/>
    </defs>
    <g clip-path="url(#pc2410ae3d7)">
     <use xlink:href="#m599781d608" x="0" y="347.64375" style="fill: #db96c0; stroke: #595959; stroke-width: 1.5"/>
    </g>
   </g>
   <g id="line2d_7">
    <path d="M 484.860109 305.774997 
L 484.860109 304.745617 
" clip-path="url(#pc2410ae3d7)" style="fill: none; stroke: #595959; stroke-width: 1.5; stroke-linecap: round"/>
   </g>
   <g id="line2d_8">
    <path d="M 484.860109 305.546246 
L 484.860109 305.031556 
" clip-path="url(#pc2410ae3d7)" style="fill: none; stroke: #595959; stroke-width: 4.5; stroke-linecap: round"/>
   </g>
   <g id="line2d_9">
    <path d="M 593.212811 305.660621 
L 593.212811 230.973401 
" clip-path="url(#pc2410ae3d7)" style="fill: none; stroke: #595959; stroke-width: 1.5; stroke-linecap: round"/>
   </g>
   <g id="line2d_10">
    <path d="M 593.212811 300.742474 
L 593.212811 249.559425 
" clip-path="url(#pc2410ae3d7)" style="fill: none; stroke: #595959; stroke-width: 4.5; stroke-linecap: round"/>
   </g>
   <g id="line2d_11">
    <path d="M 701.565514 305.546246 
L 701.565514 208.898924 
" clip-path="url(#pc2410ae3d7)" style="fill: none; stroke: #595959; stroke-width: 1.5; stroke-linecap: round"/>
   </g>
   <g id="line2d_12">
    <path d="M 701.565514 298.597932 
L 701.565514 241.210011 
" clip-path="url(#pc2410ae3d7)" style="fill: none; stroke: #595959; stroke-width: 4.5; stroke-linecap: round"/>
   </g>
   <g id="line2d_13">
    <path d="M 809.918216 306.46125 
L 809.918216 287.01741 
" clip-path="url(#pc2410ae3d7)" style="fill: none; stroke: #595959; stroke-width: 1.5; stroke-linecap: round"/>
   </g>
   <g id="line2d_14">
    <path d="M 809.918216 304.688429 
L 809.918216 294.45182 
" clip-path="url(#pc2410ae3d7)" style="fill: none; stroke: #595959; stroke-width: 4.5; stroke-linecap: round"/>
   </g>
   <g id="patch_6">
    <path d="M 430.683758 319.991875 
L 430.683758 22.318125 
" style="fill: none; stroke: #cccccc; stroke-width: 1.25; stroke-linejoin: miter; stroke-linecap: square"/>
   </g>
   <g id="patch_7">
    <path d="M 864.094567 319.991875 
L 864.094567 22.318125 
" style="fill: none; stroke: #cccccc; stroke-width: 1.25; stroke-linejoin: miter; stroke-linecap: square"/>
   </g>
   <g id="patch_8">
    <path d="M 430.683758 319.991875 
L 864.094567 319.991875 
" style="fill: none; stroke: #cccccc; stroke-width: 1.25; stroke-linejoin: miter; stroke-linecap: square"/>
   </g>
   <g id="patch_9">
    <path d="M 430.683758 22.318125 
L 864.094567 22.318125 
" style="fill: none; stroke: #cccccc; stroke-width: 1.25; stroke-linejoin: miter; stroke-linecap: square"/>
   </g>
   <g id="PathCollection_1">
    <defs>
     <path id="m9394bf6fa9" d="M 0 1.5 
C 0.397805 1.5 0.77937 1.341951 1.06066 1.06066 
C 1.341951 0.77937 1.5 0.397805 1.5 0 
C 1.5 -0.397805 1.341951 -0.77937 1.06066 -1.06066 
C 0.77937 -1.341951 0.397805 -1.5 0 -1.5 
C -0.397805 -1.5 -0.77937 -1.341951 -1.06066 -1.06066 
C -1.341951 -0.77937 -1.5 -0.397805 -1.5 0 
C -1.5 0.397805 -1.341951 0.77937 -1.06066 1.06066 
C -0.77937 1.341951 -0.397805 1.5 0 1.5 
z
" style="stroke: #595959"/>
    </defs>
    <g clip-path="url(#pc2410ae3d7)">
     <use xlink:href="#m9394bf6fa9" x="484.860109" y="305.317495" style="fill: #ffffff; stroke: #595959"/>
    </g>
   </g>
   <g id="PathCollection_2">
    <g clip-path="url(#pc2410ae3d7)">
     <use xlink:href="#m9394bf6fa9" x="593.212811" y="288.161165" style="fill: #ffffff; stroke: #595959"/>
    </g>
   </g>
   <g id="PathCollection_3">
    <g clip-path="url(#pc2410ae3d7)">
     <use xlink:href="#m9394bf6fa9" x="701.565514" y="281.12707" style="fill: #ffffff; stroke: #595959"/>
    </g>
   </g>
   <g id="PathCollection_4">
    <g clip-path="url(#pc2410ae3d7)">
     <use xlink:href="#m9394bf6fa9" x="809.918216" y="300.971225" style="fill: #ffffff; stroke: #595959"/>
    </g>
   </g>
   <g id="text_18">
    <!-- A:I edit ratio distributions -->
    <g style="fill: #262626" transform="translate(571.206975 16.318125)scale(0.12 -0.12)">
     <defs>
      <path id="DejaVuSans-75" d="M 544 1381 
L 544 3500 
L 1119 3500 
L 1119 1403 
Q 1119 906 1312 657 
Q 1506 409 1894 409 
Q 2359 409 2629 706 
Q 2900 1003 2900 1516 
L 2900 3500 
L 3475 3500 
L 3475 0 
L 2900 0 
L 2900 538 
Q 2691 219 2414 64 
Q 2138 -91 1772 -91 
Q 1169 -91 856 284 
Q 544 659 544 1381 
z
M 1991 3584 
L 1991 3584 
z
" transform="scale(0.015625)"/>
     </defs>
     <use xlink:href="#DejaVuSans-41"/>
     <use xlink:href="#DejaVuSans-3a" x="66.658203"/>
     <use xlink:href="#DejaVuSans-49" x="100.349609"/>
     <use xlink:href="#DejaVuSans-20" x="129.841797"/>
     <use xlink:href="#DejaVuSans-65" x="161.628906"/>
     <use xlink:href="#DejaVuSans-64" x="223.152344"/>
     <use xlink:href="#DejaVuSans-69" x="286.628906"/>
     <use xlink:href="#DejaVuSans-74" x="314.412109"/>
     <use xlink:href="#DejaVuSans-20" x="353.621094"/>
     <use xlink:href="#DejaVuSans-72" x="385.408203"/>
     <use xlink:href="#DejaVuSans-61" x="426.521484"/>
     <use xlink:href="#DejaVuSans-74" x="487.800781"/>
     <use xlink:href="#DejaVuSans-69" x="527.009766"/>
     <use xlink:href="#DejaVuSans-6f" x="554.792969"/>
     <use xlink:href="#DejaVuSans-20" x="615.974609"/>
     <use xlink:href="#DejaVuSans-64" x="647.761719"/>
     <use xlink:href="#DejaVuSans-69" x="711.238281"/>
     <use xlink:href="#DejaVuSans-73" x="739.021484"/>
     <use xlink:href="#DejaVuSans-74" x="791.121094"/>
     <use xlink:href="#DejaVuSans-72" x="830.330078"/>
     <use xlink:href="#DejaVuSans-69" x="871.443359"/>
     <use xlink:href="#DejaVuSans-62" x="899.226562"/>
     <use xlink:href="#DejaVuSans-75" x="962.703125"/>
     <use xlink:href="#DejaVuSans-74" x="1026.082031"/>
     <use xlink:href="#DejaVuSans-69" x="1065.291016"/>
     <use xlink:href="#DejaVuSans-6f" x="1093.074219"/>
     <use xlink:href="#DejaVuSans-6e" x="1154.255859"/>
     <use xlink:href="#DejaVuSans-73" x="1217.634766"/>
    </g>
   </g>
  </g>
 </g>
 <defs>
  <clipPath id="p011ffdcbb9">
   <rect x="15.780952" y="22.318125" width="312.82122" height="297.67375"/>
  </clipPath>
  <clipPath id="pc2410ae3d7">
   <rect x="430.683758" y="22.318125" width="433.410809" height="297.67375"/>
  </clipPath>
 </defs>
</svg>
