<?xml version="1.0" encoding="utf-8" standalone="no"?>
<!DOCTYPE svg PUBLIC "-//W3C//DTD SVG 1.1//EN"
  "http://www.w3.org/Graphics/SVG/1.1/DTD/svg11.dtd">
<svg xmlns:xlink="http://www.w3.org/1999/xlink" width="885.624758pt" height="347.64375pt" viewBox="0 0 885.624758 347.64375" xmlns="http://www.w3.org/2000/svg" version="1.1">
 <metadata>
  <rdf:RDF xmlns:dc="http://purl.org/dc/elements/1.1/" xmlns:cc="http://creativecommons.org/ns#" xmlns:rdf="http://www.w3.org/1999/02/22-rdf-syntax-ns#">
   <cc:Work>
    <dc:type rdf:resource="http://purl.org/dc/dcmitype/StillImage"/>
    <dc:date>2025-07-01T17:47:07.129834</dc:date>
    <dc:format>image/svg+xml</dc:format>
    <dc:creator>
     <cc:Agent>
      <dc:title>Matplotlib v3.5.1, https://matplotlib.org/</dc:title>
     </cc:Agent>
    </dc:creator>
   </cc:Work>
  </rdf:RDF>
 </metadata>
 <defs>
  <style type="text/css">*{stroke-linejoin: round; stroke-linecap: butt}</style>
 </defs>
 <g id="figure_1">
  <g id="patch_1">
   <path d="M 0 347.64375 
L 885.624758 347.64375 
L 885.624758 0 
L 0 0 
z
" style="fill: #ffffff"/>
  </g>
  <g id="axes_1">
   <g id="patch_2">
    <path d="M 124.030693 260.406294 
C 112.145146 248.779328 102.700995 234.894449 96.253802 219.568449 
C 89.806609 204.24245 86.485323 187.781863 86.485323 171.155 
C 86.485323 154.528137 89.806609 138.06755 96.253802 122.741551 
C 102.700995 107.415551 112.145146 93.530672 124.030693 81.903706 
C 112.013608 81.428718 100.023449 83.385615 88.780974 87.656764 
C 77.538499 91.927913 67.273585 98.425982 58.603279 106.760354 
C 49.932974 115.094727 43.034561 125.094989 38.32272 136.160002 
C 33.61088 147.225015 31.181955 159.128531 31.181955 171.155 
C 31.181955 183.181469 33.61088 195.084985 38.32272 206.149998 
C 43.034561 217.215011 49.932974 227.215273 58.603279 235.549646 
C 67.273585 243.884018 77.538499 250.382087 88.780974 254.653236 
C 100.023449 258.924385 112.013608 260.881282 124.030693 260.406294 
" clip-path="url(#p972e443548)" style="fill: #c44e52; opacity: 0.4"/>
   </g>
   <g id="patch_3">
    <path d="M 124.030693 81.903706 
C 147.083324 82.814885 168.909583 92.622907 184.897587 109.255338 
C 200.885591 125.887769 209.823927 148.084369 209.823927 171.155 
C 209.823927 194.225631 200.885591 216.422231 184.897587 233.054662 
C 168.909583 249.687093 147.083324 259.495115 124.030693 260.406294 
C 141.597284 277.590708 163.85238 289.212372 187.993073 293.807602 
C 212.133766 298.402831 237.102184 295.770259 259.753693 286.241441 
C 282.405201 276.712624 301.747185 260.705126 315.343629 240.235003 
C 328.940072 219.76488 336.195163 195.729157 336.195163 171.155 
C 336.195163 146.580843 328.940072 122.54512 315.343629 102.074997 
C 301.747185 81.604874 282.405201 65.597376 259.753693 56.068559 
C 237.102184 46.539741 212.133766 43.907169 187.993073 48.502398 
C 163.85238 53.097628 141.597284 64.719292 124.030693 81.903706 
" clip-path="url(#p972e443548)" style="fill: #55a868; opacity: 0.4"/>
   </g>
   <g id="patch_4">
    <path d="M 124.030693 260.406294 
C 147.083324 259.495115 168.909583 249.687093 184.897587 233.054662 
C 200.885591 216.422231 209.823927 194.225631 209.823927 171.155 
C 209.823927 148.084369 200.885591 125.887769 184.897587 109.255338 
C 168.909583 92.622907 147.083324 82.814885 124.030693 81.903706 
C 112.145146 93.530672 102.700995 107.415551 96.253802 122.741551 
C 89.806609 138.06755 86.485323 154.528137 86.485323 171.155 
C 86.485323 187.781863 89.806609 204.24245 96.253802 219.568449 
C 102.700995 234.894449 112.145146 248.779328 124.030693 260.406294 
" clip-path="url(#p972e443548)" style="fill: #c5ac82; opacity: 0.4"/>
   </g>
   <g id="text_1">
    <!-- 3260 -->
    <g style="fill: #262626" transform="translate(43.563639 174.46625)scale(0.12 -0.12)">
     <defs>
      <path id="DejaVuSans-33" d="M 2597 2516 
Q 3050 2419 3304 2112 
Q 3559 1806 3559 1356 
Q 3559 666 3084 287 
Q 2609 -91 1734 -91 
Q 1441 -91 1130 -33 
Q 819 25 488 141 
L 488 750 
Q 750 597 1062 519 
Q 1375 441 1716 441 
Q 2309 441 2620 675 
Q 2931 909 2931 1356 
Q 2931 1769 2642 2001 
Q 2353 2234 1838 2234 
L 1294 2234 
L 1294 2753 
L 1863 2753 
Q 2328 2753 2575 2939 
Q 2822 3125 2822 3475 
Q 2822 3834 2567 4026 
Q 2313 4219 1838 4219 
Q 1578 4219 1281 4162 
Q 984 4106 628 3988 
L 628 4550 
Q 988 4650 1302 4700 
Q 1616 4750 1894 4750 
Q 2613 4750 3031 4423 
Q 3450 4097 3450 3541 
Q 3450 3153 3228 2886 
Q 3006 2619 2597 2516 
z
" transform="scale(0.015625)"/>
      <path id="DejaVuSans-32" d="M 1228 531 
L 3431 531 
L 3431 0 
L 469 0 
L 469 531 
Q 828 903 1448 1529 
Q 2069 2156 2228 2338 
Q 2531 2678 2651 2914 
Q 2772 3150 2772 3378 
Q 2772 3750 2511 3984 
Q 2250 4219 1831 4219 
Q 1534 4219 1204 4116 
Q 875 4013 500 3803 
L 500 4441 
Q 881 4594 1212 4672 
Q 1544 4750 1819 4750 
Q 2544 4750 2975 4387 
Q 3406 4025 3406 3419 
Q 3406 3131 3298 2873 
Q 3191 2616 2906 2266 
Q 2828 2175 2409 1742 
Q 1991 1309 1228 531 
z
" transform="scale(0.015625)"/>
      <path id="DejaVuSans-36" d="M 2113 2584 
Q 1688 2584 1439 2293 
Q 1191 2003 1191 1497 
Q 1191 994 1439 701 
Q 1688 409 2113 409 
Q 2538 409 2786 701 
Q 3034 994 3034 1497 
Q 3034 2003 2786 2293 
Q 2538 2584 2113 2584 
z
M 3366 4563 
L 3366 3988 
Q 3128 4100 2886 4159 
Q 2644 4219 2406 4219 
Q 1781 4219 1451 3797 
Q 1122 3375 1075 2522 
Q 1259 2794 1537 2939 
Q 1816 3084 2150 3084 
Q 2853 3084 3261 2657 
Q 3669 2231 3669 1497 
Q 3669 778 3244 343 
Q 2819 -91 2113 -91 
Q 1303 -91 875 529 
Q 447 1150 447 2328 
Q 447 3434 972 4092 
Q 1497 4750 2381 4750 
Q 2619 4750 2861 4703 
Q 3103 4656 3366 4563 
z
" transform="scale(0.015625)"/>
      <path id="DejaVuSans-30" d="M 2034 4250 
Q 1547 4250 1301 3770 
Q 1056 3291 1056 2328 
Q 1056 1369 1301 889 
Q 1547 409 2034 409 
Q 2525 409 2770 889 
Q 3016 1369 3016 2328 
Q 3016 3291 2770 3770 
Q 2525 4250 2034 4250 
z
M 2034 4750 
Q 2819 4750 3233 4129 
Q 3647 3509 3647 2328 
Q 3647 1150 3233 529 
Q 2819 -91 2034 -91 
Q 1250 -91 836 529 
Q 422 1150 422 2328 
Q 422 3509 836 4129 
Q 1250 4750 2034 4750 
z
" transform="scale(0.015625)"/>
     </defs>
     <use xlink:href="#DejaVuSans-33"/>
     <use xlink:href="#DejaVuSans-32" x="63.623047"/>
     <use xlink:href="#DejaVuSans-36" x="127.246094"/>
     <use xlink:href="#DejaVuSans-30" x="190.869141"/>
    </g>
   </g>
   <g id="text_2">
    <!-- 12387 -->
    <g style="fill: #262626" transform="translate(253.922045 174.46625)scale(0.12 -0.12)">
     <defs>
      <path id="DejaVuSans-31" d="M 794 531 
L 1825 531 
L 1825 4091 
L 703 3866 
L 703 4441 
L 1819 4666 
L 2450 4666 
L 2450 531 
L 3481 531 
L 3481 0 
L 794 0 
L 794 531 
z
" transform="scale(0.015625)"/>
      <path id="DejaVuSans-38" d="M 2034 2216 
Q 1584 2216 1326 1975 
Q 1069 1734 1069 1313 
Q 1069 891 1326 650 
Q 1584 409 2034 409 
Q 2484 409 2743 651 
Q 3003 894 3003 1313 
Q 3003 1734 2745 1975 
Q 2488 2216 2034 2216 
z
M 1403 2484 
Q 997 2584 770 2862 
Q 544 3141 544 3541 
Q 544 4100 942 4425 
Q 1341 4750 2034 4750 
Q 2731 4750 3128 4425 
Q 3525 4100 3525 3541 
Q 3525 3141 3298 2862 
Q 3072 2584 2669 2484 
Q 3125 2378 3379 2068 
Q 3634 1759 3634 1313 
Q 3634 634 3220 271 
Q 2806 -91 2034 -91 
Q 1263 -91 848 271 
Q 434 634 434 1313 
Q 434 1759 690 2068 
Q 947 2378 1403 2484 
z
M 1172 3481 
Q 1172 3119 1398 2916 
Q 1625 2713 2034 2713 
Q 2441 2713 2670 2916 
Q 2900 3119 2900 3481 
Q 2900 3844 2670 4047 
Q 2441 4250 2034 4250 
Q 1625 4250 1398 4047 
Q 1172 3844 1172 3481 
z
" transform="scale(0.015625)"/>
      <path id="DejaVuSans-37" d="M 525 4666 
L 3525 4666 
L 3525 4397 
L 1831 0 
L 1172 0 
L 2766 4134 
L 525 4134 
L 525 4666 
z
" transform="scale(0.015625)"/>
     </defs>
     <use xlink:href="#DejaVuSans-31"/>
     <use xlink:href="#DejaVuSans-32" x="63.623047"/>
     <use xlink:href="#DejaVuSans-33" x="127.246094"/>
     <use xlink:href="#DejaVuSans-38" x="190.869141"/>
     <use xlink:href="#DejaVuSans-37" x="254.492188"/>
    </g>
   </g>
   <g id="text_3">
    <!-- 6308 -->
    <g style="fill: #262626" transform="translate(132.884625 174.46625)scale(0.12 -0.12)">
     <use xlink:href="#DejaVuSans-36"/>
     <use xlink:href="#DejaVuSans-33" x="63.623047"/>
     <use xlink:href="#DejaVuSans-30" x="127.246094"/>
     <use xlink:href="#DejaVuSans-38" x="190.869141"/>
    </g>
   </g>
   <g id="text_4">
    <!-- ctl.00.bed -->
    <g style="fill: #262626" transform="translate(48.318441 282.126531)scale(0.144 -0.144)">
     <defs>
      <path id="DejaVuSans-63" d="M 3122 3366 
L 3122 2828 
Q 2878 2963 2633 3030 
Q 2388 3097 2138 3097 
Q 1578 3097 1268 2742 
Q 959 2388 959 1747 
Q 959 1106 1268 751 
Q 1578 397 2138 397 
Q 2388 397 2633 464 
Q 2878 531 3122 666 
L 3122 134 
Q 2881 22 2623 -34 
Q 2366 -91 2075 -91 
Q 1284 -91 818 406 
Q 353 903 353 1747 
Q 353 2603 823 3093 
Q 1294 3584 2113 3584 
Q 2378 3584 2631 3529 
Q 2884 3475 3122 3366 
z
" transform="scale(0.015625)"/>
      <path id="DejaVuSans-74" d="M 1172 4494 
L 1172 3500 
L 2356 3500 
L 2356 3053 
L 1172 3053 
L 1172 1153 
Q 1172 725 1289 603 
Q 1406 481 1766 481 
L 2356 481 
L 2356 0 
L 1766 0 
Q 1100 0 847 248 
Q 594 497 594 1153 
L 594 3053 
L 172 3053 
L 172 3500 
L 594 3500 
L 594 4494 
L 1172 4494 
z
" transform="scale(0.015625)"/>
      <path id="DejaVuSans-6c" d="M 603 4863 
L 1178 4863 
L 1178 0 
L 603 0 
L 603 4863 
z
" transform="scale(0.015625)"/>
      <path id="DejaVuSans-2e" d="M 684 794 
L 1344 794 
L 1344 0 
L 684 0 
L 684 794 
z
" transform="scale(0.015625)"/>
      <path id="DejaVuSans-62" d="M 3116 1747 
Q 3116 2381 2855 2742 
Q 2594 3103 2138 3103 
Q 1681 3103 1420 2742 
Q 1159 2381 1159 1747 
Q 1159 1113 1420 752 
Q 1681 391 2138 391 
Q 2594 391 2855 752 
Q 3116 1113 3116 1747 
z
M 1159 2969 
Q 1341 3281 1617 3432 
Q 1894 3584 2278 3584 
Q 2916 3584 3314 3078 
Q 3713 2572 3713 1747 
Q 3713 922 3314 415 
Q 2916 -91 2278 -91 
Q 1894 -91 1617 61 
Q 1341 213 1159 525 
L 1159 0 
L 581 0 
L 581 4863 
L 1159 4863 
L 1159 2969 
z
" transform="scale(0.015625)"/>
      <path id="DejaVuSans-65" d="M 3597 1894 
L 3597 1613 
L 953 1613 
Q 991 1019 1311 708 
Q 1631 397 2203 397 
Q 2534 397 2845 478 
Q 3156 559 3463 722 
L 3463 178 
Q 3153 47 2828 -22 
Q 2503 -91 2169 -91 
Q 1331 -91 842 396 
Q 353 884 353 1716 
Q 353 2575 817 3079 
Q 1281 3584 2069 3584 
Q 2775 3584 3186 3129 
Q 3597 2675 3597 1894 
z
M 3022 2063 
Q 3016 2534 2758 2815 
Q 2500 3097 2075 3097 
Q 1594 3097 1305 2825 
Q 1016 2553 972 2059 
L 3022 2063 
z
" transform="scale(0.015625)"/>
      <path id="DejaVuSans-64" d="M 2906 2969 
L 2906 4863 
L 3481 4863 
L 3481 0 
L 2906 0 
L 2906 525 
Q 2725 213 2448 61 
Q 2172 -91 1784 -91 
Q 1150 -91 751 415 
Q 353 922 353 1747 
Q 353 2572 751 3078 
Q 1150 3584 1784 3584 
Q 2172 3584 2448 3432 
Q 2725 3281 2906 2969 
z
M 947 1747 
Q 947 1113 1208 752 
Q 1469 391 1925 391 
Q 2381 391 2643 752 
Q 2906 1113 2906 1747 
Q 2906 2381 2643 2742 
Q 2381 3103 1925 3103 
Q 1469 3103 1208 2742 
Q 947 2381 947 1747 
z
" transform="scale(0.015625)"/>
     </defs>
     <use xlink:href="#DejaVuSans-63"/>
     <use xlink:href="#DejaVuSans-74" x="54.980469"/>
     <use xlink:href="#DejaVuSans-6c" x="94.189453"/>
     <use xlink:href="#DejaVuSans-2e" x="121.972656"/>
     <use xlink:href="#DejaVuSans-30" x="153.759766"/>
     <use xlink:href="#DejaVuSans-30" x="217.382812"/>
     <use xlink:href="#DejaVuSans-2e" x="281.005859"/>
     <use xlink:href="#DejaVuSans-62" x="312.792969"/>
     <use xlink:href="#DejaVuSans-65" x="376.269531"/>
     <use xlink:href="#DejaVuSans-64" x="437.792969"/>
    </g>
   </g>
   <g id="text_5">
    <!-- yth.00.bed -->
    <g style="fill: #262626" transform="translate(211.340243 317.660465)scale(0.144 -0.144)">
     <defs>
      <path id="DejaVuSans-79" d="M 2059 -325 
Q 1816 -950 1584 -1140 
Q 1353 -1331 966 -1331 
L 506 -1331 
L 506 -850 
L 844 -850 
Q 1081 -850 1212 -737 
Q 1344 -625 1503 -206 
L 1606 56 
L 191 3500 
L 800 3500 
L 1894 763 
L 2988 3500 
L 3597 3500 
L 2059 -325 
z
" transform="scale(0.015625)"/>
      <path id="DejaVuSans-68" d="M 3513 2113 
L 3513 0 
L 2938 0 
L 2938 2094 
Q 2938 2591 2744 2837 
Q 2550 3084 2163 3084 
Q 1697 3084 1428 2787 
Q 1159 2491 1159 1978 
L 1159 0 
L 581 0 
L 581 4863 
L 1159 4863 
L 1159 2956 
Q 1366 3272 1645 3428 
Q 1925 3584 2291 3584 
Q 2894 3584 3203 3211 
Q 3513 2838 3513 2113 
z
" transform="scale(0.015625)"/>
     </defs>
     <use xlink:href="#DejaVuSans-79"/>
     <use xlink:href="#DejaVuSans-74" x="59.179688"/>
     <use xlink:href="#DejaVuSans-68" x="98.388672"/>
     <use xlink:href="#DejaVuSans-2e" x="161.767578"/>
     <use xlink:href="#DejaVuSans-30" x="193.554688"/>
     <use xlink:href="#DejaVuSans-30" x="257.177734"/>
     <use xlink:href="#DejaVuSans-2e" x="320.800781"/>
     <use xlink:href="#DejaVuSans-62" x="352.587891"/>
     <use xlink:href="#DejaVuSans-65" x="416.064453"/>
     <use xlink:href="#DejaVuSans-64" x="477.587891"/>
    </g>
   </g>
   <g id="text_6">
    <!-- All ≥1% edits expressed in all reps (n=3 per condition) -->
    <g style="fill: #262626" transform="translate(18.696997 16.318125)scale(0.12 -0.12)">
     <defs>
      <path id="DejaVuSans-41" d="M 2188 4044 
L 1331 1722 
L 3047 1722 
L 2188 4044 
z
M 1831 4666 
L 2547 4666 
L 4325 0 
L 3669 0 
L 3244 1197 
L 1141 1197 
L 716 0 
L 50 0 
L 1831 4666 
z
" transform="scale(0.015625)"/>
      <path id="DejaVuSans-20" transform="scale(0.015625)"/>
      <path id="DejaVuSans-2265" d="M 678 3175 
L 678 3725 
L 4684 2578 
L 4684 2047 
L 678 897 
L 678 1453 
L 3681 2309 
L 678 3175 
z
M 4684 531 
L 4684 0 
L 678 0 
L 678 531 
L 4684 531 
z
" transform="scale(0.015625)"/>
      <path id="DejaVuSans-25" d="M 4653 2053 
Q 4381 2053 4226 1822 
Q 4072 1591 4072 1178 
Q 4072 772 4226 539 
Q 4381 306 4653 306 
Q 4919 306 5073 539 
Q 5228 772 5228 1178 
Q 5228 1588 5073 1820 
Q 4919 2053 4653 2053 
z
M 4653 2450 
Q 5147 2450 5437 2106 
Q 5728 1763 5728 1178 
Q 5728 594 5436 251 
Q 5144 -91 4653 -91 
Q 4153 -91 3862 251 
Q 3572 594 3572 1178 
Q 3572 1766 3864 2108 
Q 4156 2450 4653 2450 
z
M 1428 4353 
Q 1159 4353 1004 4120 
Q 850 3888 850 3481 
Q 850 3069 1003 2837 
Q 1156 2606 1428 2606 
Q 1700 2606 1854 2837 
Q 2009 3069 2009 3481 
Q 2009 3884 1853 4118 
Q 1697 4353 1428 4353 
z
M 4250 4750 
L 4750 4750 
L 1831 -91 
L 1331 -91 
L 4250 4750 
z
M 1428 4750 
Q 1922 4750 2215 4408 
Q 2509 4066 2509 3481 
Q 2509 2891 2217 2550 
Q 1925 2209 1428 2209 
Q 931 2209 642 2551 
Q 353 2894 353 3481 
Q 353 4063 643 4406 
Q 934 4750 1428 4750 
z
" transform="scale(0.015625)"/>
      <path id="DejaVuSans-69" d="M 603 3500 
L 1178 3500 
L 1178 0 
L 603 0 
L 603 3500 
z
M 603 4863 
L 1178 4863 
L 1178 4134 
L 603 4134 
L 603 4863 
z
" transform="scale(0.015625)"/>
      <path id="DejaVuSans-73" d="M 2834 3397 
L 2834 2853 
Q 2591 2978 2328 3040 
Q 2066 3103 1784 3103 
Q 1356 3103 1142 2972 
Q 928 2841 928 2578 
Q 928 2378 1081 2264 
Q 1234 2150 1697 2047 
L 1894 2003 
Q 2506 1872 2764 1633 
Q 3022 1394 3022 966 
Q 3022 478 2636 193 
Q 2250 -91 1575 -91 
Q 1294 -91 989 -36 
Q 684 19 347 128 
L 347 722 
Q 666 556 975 473 
Q 1284 391 1588 391 
Q 1994 391 2212 530 
Q 2431 669 2431 922 
Q 2431 1156 2273 1281 
Q 2116 1406 1581 1522 
L 1381 1569 
Q 847 1681 609 1914 
Q 372 2147 372 2553 
Q 372 3047 722 3315 
Q 1072 3584 1716 3584 
Q 2034 3584 2315 3537 
Q 2597 3491 2834 3397 
z
" transform="scale(0.015625)"/>
      <path id="DejaVuSans-78" d="M 3513 3500 
L 2247 1797 
L 3578 0 
L 2900 0 
L 1881 1375 
L 863 0 
L 184 0 
L 1544 1831 
L 300 3500 
L 978 3500 
L 1906 2253 
L 2834 3500 
L 3513 3500 
z
" transform="scale(0.015625)"/>
      <path id="DejaVuSans-70" d="M 1159 525 
L 1159 -1331 
L 581 -1331 
L 581 3500 
L 1159 3500 
L 1159 2969 
Q 1341 3281 1617 3432 
Q 1894 3584 2278 3584 
Q 2916 3584 3314 3078 
Q 3713 2572 3713 1747 
Q 3713 922 3314 415 
Q 2916 -91 2278 -91 
Q 1894 -91 1617 61 
Q 1341 213 1159 525 
z
M 3116 1747 
Q 3116 2381 2855 2742 
Q 2594 3103 2138 3103 
Q 1681 3103 1420 2742 
Q 1159 2381 1159 1747 
Q 1159 1113 1420 752 
Q 1681 391 2138 391 
Q 2594 391 2855 752 
Q 3116 1113 3116 1747 
z
" transform="scale(0.015625)"/>
      <path id="DejaVuSans-72" d="M 2631 2963 
Q 2534 3019 2420 3045 
Q 2306 3072 2169 3072 
Q 1681 3072 1420 2755 
Q 1159 2438 1159 1844 
L 1159 0 
L 581 0 
L 581 3500 
L 1159 3500 
L 1159 2956 
Q 1341 3275 1631 3429 
Q 1922 3584 2338 3584 
Q 2397 3584 2469 3576 
Q 2541 3569 2628 3553 
L 2631 2963 
z
" transform="scale(0.015625)"/>
      <path id="DejaVuSans-6e" d="M 3513 2113 
L 3513 0 
L 2938 0 
L 2938 2094 
Q 2938 2591 2744 2837 
Q 2550 3084 2163 3084 
Q 1697 3084 1428 2787 
Q 1159 2491 1159 1978 
L 1159 0 
L 581 0 
L 581 3500 
L 1159 3500 
L 1159 2956 
Q 1366 3272 1645 3428 
Q 1925 3584 2291 3584 
Q 2894 3584 3203 3211 
Q 3513 2838 3513 2113 
z
" transform="scale(0.015625)"/>
      <path id="DejaVuSans-61" d="M 2194 1759 
Q 1497 1759 1228 1600 
Q 959 1441 959 1056 
Q 959 750 1161 570 
Q 1363 391 1709 391 
Q 2188 391 2477 730 
Q 2766 1069 2766 1631 
L 2766 1759 
L 2194 1759 
z
M 3341 1997 
L 3341 0 
L 2766 0 
L 2766 531 
Q 2569 213 2275 61 
Q 1981 -91 1556 -91 
Q 1019 -91 701 211 
Q 384 513 384 1019 
Q 384 1609 779 1909 
Q 1175 2209 1959 2209 
L 2766 2209 
L 2766 2266 
Q 2766 2663 2505 2880 
Q 2244 3097 1772 3097 
Q 1472 3097 1187 3025 
Q 903 2953 641 2809 
L 641 3341 
Q 956 3463 1253 3523 
Q 1550 3584 1831 3584 
Q 2591 3584 2966 3190 
Q 3341 2797 3341 1997 
z
" transform="scale(0.015625)"/>
      <path id="DejaVuSans-28" d="M 1984 4856 
Q 1566 4138 1362 3434 
Q 1159 2731 1159 2009 
Q 1159 1288 1364 580 
Q 1569 -128 1984 -844 
L 1484 -844 
Q 1016 -109 783 600 
Q 550 1309 550 2009 
Q 550 2706 781 3412 
Q 1013 4119 1484 4856 
L 1984 4856 
z
" transform="scale(0.015625)"/>
      <path id="DejaVuSans-3d" d="M 678 2906 
L 4684 2906 
L 4684 2381 
L 678 2381 
L 678 2906 
z
M 678 1631 
L 4684 1631 
L 4684 1100 
L 678 1100 
L 678 1631 
z
" transform="scale(0.015625)"/>
      <path id="DejaVuSans-6f" d="M 1959 3097 
Q 1497 3097 1228 2736 
Q 959 2375 959 1747 
Q 959 1119 1226 758 
Q 1494 397 1959 397 
Q 2419 397 2687 759 
Q 2956 1122 2956 1747 
Q 2956 2369 2687 2733 
Q 2419 3097 1959 3097 
z
M 1959 3584 
Q 2709 3584 3137 3096 
Q 3566 2609 3566 1747 
Q 3566 888 3137 398 
Q 2709 -91 1959 -91 
Q 1206 -91 779 398 
Q 353 888 353 1747 
Q 353 2609 779 3096 
Q 1206 3584 1959 3584 
z
" transform="scale(0.015625)"/>
      <path id="DejaVuSans-29" d="M 513 4856 
L 1013 4856 
Q 1481 4119 1714 3412 
Q 1947 2706 1947 2009 
Q 1947 1309 1714 600 
Q 1481 -109 1013 -844 
L 513 -844 
Q 928 -128 1133 580 
Q 1338 1288 1338 2009 
Q 1338 2731 1133 3434 
Q 928 4138 513 4856 
z
" transform="scale(0.015625)"/>
     </defs>
     <use xlink:href="#DejaVuSans-41"/>
     <use xlink:href="#DejaVuSans-6c" x="68.408203"/>
     <use xlink:href="#DejaVuSans-6c" x="96.191406"/>
     <use xlink:href="#DejaVuSans-20" x="123.974609"/>
     <use xlink:href="#DejaVuSans-2265" x="155.761719"/>
     <use xlink:href="#DejaVuSans-31" x="239.550781"/>
     <use xlink:href="#DejaVuSans-25" x="303.173828"/>
     <use xlink:href="#DejaVuSans-20" x="398.193359"/>
     <use xlink:href="#DejaVuSans-65" x="429.980469"/>
     <use xlink:href="#DejaVuSans-64" x="491.503906"/>
     <use xlink:href="#DejaVuSans-69" x="554.980469"/>
     <use xlink:href="#DejaVuSans-74" x="582.763672"/>
     <use xlink:href="#DejaVuSans-73" x="621.972656"/>
     <use xlink:href="#DejaVuSans-20" x="674.072266"/>
     <use xlink:href="#DejaVuSans-65" x="705.859375"/>
     <use xlink:href="#DejaVuSans-78" x="765.632812"/>
     <use xlink:href="#DejaVuSans-70" x="824.8125"/>
     <use xlink:href="#DejaVuSans-72" x="888.289062"/>
     <use xlink:href="#DejaVuSans-65" x="927.152344"/>
     <use xlink:href="#DejaVuSans-73" x="988.675781"/>
     <use xlink:href="#DejaVuSans-73" x="1040.775391"/>
     <use xlink:href="#DejaVuSans-65" x="1092.875"/>
     <use xlink:href="#DejaVuSans-64" x="1154.398438"/>
     <use xlink:href="#DejaVuSans-20" x="1217.875"/>
     <use xlink:href="#DejaVuSans-69" x="1249.662109"/>
     <use xlink:href="#DejaVuSans-6e" x="1277.445312"/>
     <use xlink:href="#DejaVuSans-20" x="1340.824219"/>
     <use xlink:href="#DejaVuSans-61" x="1372.611328"/>
     <use xlink:href="#DejaVuSans-6c" x="1433.890625"/>
     <use xlink:href="#DejaVuSans-6c" x="1461.673828"/>
     <use xlink:href="#DejaVuSans-20" x="1489.457031"/>
     <use xlink:href="#DejaVuSans-72" x="1521.244141"/>
     <use xlink:href="#DejaVuSans-65" x="1560.107422"/>
     <use xlink:href="#DejaVuSans-70" x="1621.630859"/>
     <use xlink:href="#DejaVuSans-73" x="1685.107422"/>
     <use xlink:href="#DejaVuSans-20" x="1737.207031"/>
     <use xlink:href="#DejaVuSans-28" x="1768.994141"/>
     <use xlink:href="#DejaVuSans-6e" x="1808.007812"/>
     <use xlink:href="#DejaVuSans-3d" x="1871.386719"/>
     <use xlink:href="#DejaVuSans-33" x="1955.175781"/>
     <use xlink:href="#DejaVuSans-20" x="2018.798828"/>
     <use xlink:href="#DejaVuSans-70" x="2050.585938"/>
     <use xlink:href="#DejaVuSans-65" x="2114.0625"/>
     <use xlink:href="#DejaVuSans-72" x="2175.585938"/>
     <use xlink:href="#DejaVuSans-20" x="2216.699219"/>
     <use xlink:href="#DejaVuSans-63" x="2248.486328"/>
     <use xlink:href="#DejaVuSans-6f" x="2303.466797"/>
     <use xlink:href="#DejaVuSans-6e" x="2364.648438"/>
     <use xlink:href="#DejaVuSans-64" x="2428.027344"/>
     <use xlink:href="#DejaVuSans-69" x="2491.503906"/>
     <use xlink:href="#DejaVuSans-74" x="2519.287109"/>
     <use xlink:href="#DejaVuSans-69" x="2558.496094"/>
     <use xlink:href="#DejaVuSans-6f" x="2586.279297"/>
     <use xlink:href="#DejaVuSans-6e" x="2647.460938"/>
     <use xlink:href="#DejaVuSans-29" x="2710.839844"/>
    </g>
   </g>
  </g>
  <g id="axes_2">
   <g id="patch_5">
    <path d="M 450.680338 319.991875 
L 878.424758 319.991875 
L 878.424758 22.318125 
L 450.680338 22.318125 
z
" style="fill: #ffffff"/>
   </g>
   <g id="matplotlib.axis_1">
    <g id="xtick_1">
     <g id="text_7">
      <!-- ADAR-Ctl_only -->
      <g style="fill: #262626" transform="translate(464.990109 337.850156)scale(0.11 -0.11)">
       <defs>
        <path id="DejaVuSans-44" d="M 1259 4147 
L 1259 519 
L 2022 519 
Q 2988 519 3436 956 
Q 3884 1394 3884 2338 
Q 3884 3275 3436 3711 
Q 2988 4147 2022 4147 
L 1259 4147 
z
M 628 4666 
L 1925 4666 
Q 3281 4666 3915 4102 
Q 4550 3538 4550 2338 
Q 4550 1131 3912 565 
Q 3275 0 1925 0 
L 628 0 
L 628 4666 
z
" transform="scale(0.015625)"/>
        <path id="DejaVuSans-52" d="M 2841 2188 
Q 3044 2119 3236 1894 
Q 3428 1669 3622 1275 
L 4263 0 
L 3584 0 
L 2988 1197 
Q 2756 1666 2539 1819 
Q 2322 1972 1947 1972 
L 1259 1972 
L 1259 0 
L 628 0 
L 628 4666 
L 2053 4666 
Q 2853 4666 3247 4331 
Q 3641 3997 3641 3322 
Q 3641 2881 3436 2590 
Q 3231 2300 2841 2188 
z
M 1259 4147 
L 1259 2491 
L 2053 2491 
Q 2509 2491 2742 2702 
Q 2975 2913 2975 3322 
Q 2975 3731 2742 3939 
Q 2509 4147 2053 4147 
L 1259 4147 
z
" transform="scale(0.015625)"/>
        <path id="DejaVuSans-2d" d="M 313 2009 
L 1997 2009 
L 1997 1497 
L 313 1497 
L 313 2009 
z
" transform="scale(0.015625)"/>
        <path id="DejaVuSans-43" d="M 4122 4306 
L 4122 3641 
Q 3803 3938 3442 4084 
Q 3081 4231 2675 4231 
Q 1875 4231 1450 3742 
Q 1025 3253 1025 2328 
Q 1025 1406 1450 917 
Q 1875 428 2675 428 
Q 3081 428 3442 575 
Q 3803 722 4122 1019 
L 4122 359 
Q 3791 134 3420 21 
Q 3050 -91 2638 -91 
Q 1578 -91 968 557 
Q 359 1206 359 2328 
Q 359 3453 968 4101 
Q 1578 4750 2638 4750 
Q 3056 4750 3426 4639 
Q 3797 4528 4122 4306 
z
" transform="scale(0.015625)"/>
        <path id="DejaVuSans-5f" d="M 3263 -1063 
L 3263 -1509 
L -63 -1509 
L -63 -1063 
L 3263 -1063 
z
" transform="scale(0.015625)"/>
       </defs>
       <use xlink:href="#DejaVuSans-41"/>
       <use xlink:href="#DejaVuSans-44" x="68.408203"/>
       <use xlink:href="#DejaVuSans-41" x="143.660156"/>
       <use xlink:href="#DejaVuSans-52" x="212.068359"/>
       <use xlink:href="#DejaVuSans-2d" x="277.550781"/>
       <use xlink:href="#DejaVuSans-43" x="313.634766"/>
       <use xlink:href="#DejaVuSans-74" x="383.458984"/>
       <use xlink:href="#DejaVuSans-6c" x="422.667969"/>
       <use xlink:href="#DejaVuSans-5f" x="450.451172"/>
       <use xlink:href="#DejaVuSans-6f" x="500.451172"/>
       <use xlink:href="#DejaVuSans-6e" x="561.632812"/>
       <use xlink:href="#DejaVuSans-6c" x="625.011719"/>
       <use xlink:href="#DejaVuSans-79" x="652.794922"/>
      </g>
     </g>
    </g>
    <g id="xtick_2">
     <g id="text_8">
      <!-- ADAR-Ctl_shared -->
      <g style="fill: #262626" transform="translate(564.826058 337.850156)scale(0.11 -0.11)">
       <use xlink:href="#DejaVuSans-41"/>
       <use xlink:href="#DejaVuSans-44" x="68.408203"/>
       <use xlink:href="#DejaVuSans-41" x="143.660156"/>
       <use xlink:href="#DejaVuSans-52" x="212.068359"/>
       <use xlink:href="#DejaVuSans-2d" x="277.550781"/>
       <use xlink:href="#DejaVuSans-43" x="313.634766"/>
       <use xlink:href="#DejaVuSans-74" x="383.458984"/>
       <use xlink:href="#DejaVuSans-6c" x="422.667969"/>
       <use xlink:href="#DejaVuSans-5f" x="450.451172"/>
       <use xlink:href="#DejaVuSans-73" x="500.451172"/>
       <use xlink:href="#DejaVuSans-68" x="552.550781"/>
       <use xlink:href="#DejaVuSans-61" x="615.929688"/>
       <use xlink:href="#DejaVuSans-72" x="677.208984"/>
       <use xlink:href="#DejaVuSans-65" x="716.072266"/>
       <use xlink:href="#DejaVuSans-64" x="777.595703"/>
      </g>
     </g>
    </g>
    <g id="xtick_3">
     <g id="text_9">
      <!-- YTH-ADAR_shared -->
      <g style="fill: #262626" transform="translate(668.335835 337.850156)scale(0.11 -0.11)">
       <defs>
        <path id="DejaVuSans-59" d="M -13 4666 
L 666 4666 
L 1959 2747 
L 3244 4666 
L 3922 4666 
L 2272 2222 
L 2272 0 
L 1638 0 
L 1638 2222 
L -13 4666 
z
" transform="scale(0.015625)"/>
        <path id="DejaVuSans-54" d="M -19 4666 
L 3928 4666 
L 3928 4134 
L 2272 4134 
L 2272 0 
L 1638 0 
L 1638 4134 
L -19 4134 
L -19 4666 
z
" transform="scale(0.015625)"/>
        <path id="DejaVuSans-48" d="M 628 4666 
L 1259 4666 
L 1259 2753 
L 3553 2753 
L 3553 4666 
L 4184 4666 
L 4184 0 
L 3553 0 
L 3553 2222 
L 1259 2222 
L 1259 0 
L 628 0 
L 628 4666 
z
" transform="scale(0.015625)"/>
       </defs>
       <use xlink:href="#DejaVuSans-59"/>
       <use xlink:href="#DejaVuSans-54" x="61.083984"/>
       <use xlink:href="#DejaVuSans-48" x="122.167969"/>
       <use xlink:href="#DejaVuSans-2d" x="197.363281"/>
       <use xlink:href="#DejaVuSans-41" x="231.197266"/>
       <use xlink:href="#DejaVuSans-44" x="299.605469"/>
       <use xlink:href="#DejaVuSans-41" x="374.857422"/>
       <use xlink:href="#DejaVuSans-52" x="443.265625"/>
       <use xlink:href="#DejaVuSans-5f" x="512.748047"/>
       <use xlink:href="#DejaVuSans-73" x="562.748047"/>
       <use xlink:href="#DejaVuSans-68" x="614.847656"/>
       <use xlink:href="#DejaVuSans-61" x="678.226562"/>
       <use xlink:href="#DejaVuSans-72" x="739.505859"/>
       <use xlink:href="#DejaVuSans-65" x="778.369141"/>
       <use xlink:href="#DejaVuSans-64" x="839.892578"/>
      </g>
     </g>
    </g>
    <g id="xtick_4">
     <g id="text_10">
      <!-- YTH-ADAR_only -->
      <g style="fill: #262626" transform="translate(782.372096 337.850156)scale(0.11 -0.11)">
       <use xlink:href="#DejaVuSans-59"/>
       <use xlink:href="#DejaVuSans-54" x="61.083984"/>
       <use xlink:href="#DejaVuSans-48" x="122.167969"/>
       <use xlink:href="#DejaVuSans-2d" x="197.363281"/>
       <use xlink:href="#DejaVuSans-41" x="231.197266"/>
       <use xlink:href="#DejaVuSans-44" x="299.605469"/>
       <use xlink:href="#DejaVuSans-41" x="374.857422"/>
       <use xlink:href="#DejaVuSans-52" x="443.265625"/>
       <use xlink:href="#DejaVuSans-5f" x="512.748047"/>
       <use xlink:href="#DejaVuSans-6f" x="562.748047"/>
       <use xlink:href="#DejaVuSans-6e" x="623.929688"/>
       <use xlink:href="#DejaVuSans-6c" x="687.308594"/>
       <use xlink:href="#DejaVuSans-79" x="715.091797"/>
      </g>
     </g>
    </g>
   </g>
   <g id="matplotlib.axis_2">
    <g id="ytick_1">
     <g id="line2d_1">
      <path d="M 450.680338 309.718278 
L 878.424758 309.718278 
" clip-path="url(#pb697629160)" style="fill: none; stroke: #cccccc; stroke-linecap: round"/>
     </g>
     <g id="text_11">
      <!-- 0.0 -->
      <g style="fill: #262626" transform="translate(423.6869 313.897419)scale(0.11 -0.11)">
       <use xlink:href="#DejaVuSans-30"/>
       <use xlink:href="#DejaVuSans-2e" x="63.623047"/>
       <use xlink:href="#DejaVuSans-30" x="95.410156"/>
      </g>
     </g>
    </g>
    <g id="ytick_2">
     <g id="line2d_2">
      <path d="M 450.680338 247.679649 
L 878.424758 247.679649 
" clip-path="url(#pb697629160)" style="fill: none; stroke: #cccccc; stroke-linecap: round"/>
     </g>
     <g id="text_12">
      <!-- 0.2 -->
      <g style="fill: #262626" transform="translate(423.6869 251.85879)scale(0.11 -0.11)">
       <use xlink:href="#DejaVuSans-30"/>
       <use xlink:href="#DejaVuSans-2e" x="63.623047"/>
       <use xlink:href="#DejaVuSans-32" x="95.410156"/>
      </g>
     </g>
    </g>
    <g id="ytick_3">
     <g id="line2d_3">
      <path d="M 450.680338 185.64102 
L 878.424758 185.64102 
" clip-path="url(#pb697629160)" style="fill: none; stroke: #cccccc; stroke-linecap: round"/>
     </g>
     <g id="text_13">
      <!-- 0.4 -->
      <g style="fill: #262626" transform="translate(423.6869 189.820161)scale(0.11 -0.11)">
       <defs>
        <path id="DejaVuSans-34" d="M 2419 4116 
L 825 1625 
L 2419 1625 
L 2419 4116 
z
M 2253 4666 
L 3047 4666 
L 3047 1625 
L 3713 1625 
L 3713 1100 
L 3047 1100 
L 3047 0 
L 2419 0 
L 2419 1100 
L 313 1100 
L 313 1709 
L 2253 4666 
z
" transform="scale(0.015625)"/>
       </defs>
       <use xlink:href="#DejaVuSans-30"/>
       <use xlink:href="#DejaVuSans-2e" x="63.623047"/>
       <use xlink:href="#DejaVuSans-34" x="95.410156"/>
      </g>
     </g>
    </g>
    <g id="ytick_4">
     <g id="line2d_4">
      <path d="M 450.680338 123.602391 
L 878.424758 123.602391 
" clip-path="url(#pb697629160)" style="fill: none; stroke: #cccccc; stroke-linecap: round"/>
     </g>
     <g id="text_14">
      <!-- 0.6 -->
      <g style="fill: #262626" transform="translate(423.6869 127.781531)scale(0.11 -0.11)">
       <use xlink:href="#DejaVuSans-30"/>
       <use xlink:href="#DejaVuSans-2e" x="63.623047"/>
       <use xlink:href="#DejaVuSans-36" x="95.410156"/>
      </g>
     </g>
    </g>
    <g id="ytick_5">
     <g id="line2d_5">
      <path d="M 450.680338 61.563762 
L 878.424758 61.563762 
" clip-path="url(#pb697629160)" style="fill: none; stroke: #cccccc; stroke-linecap: round"/>
     </g>
     <g id="text_15">
      <!-- 0.8 -->
      <g style="fill: #262626" transform="translate(423.6869 65.742902)scale(0.11 -0.11)">
       <use xlink:href="#DejaVuSans-30"/>
       <use xlink:href="#DejaVuSans-2e" x="63.623047"/>
       <use xlink:href="#DejaVuSans-38" x="95.410156"/>
      </g>
     </g>
    </g>
    <g id="text_16">
     <!-- A:I edit ratio -->
     <g style="fill: #262626" transform="translate(417.191275 208.113125)rotate(-90)scale(0.12 -0.12)">
      <defs>
       <path id="DejaVuSans-3a" d="M 750 794 
L 1409 794 
L 1409 0 
L 750 0 
L 750 794 
z
M 750 3309 
L 1409 3309 
L 1409 2516 
L 750 2516 
L 750 3309 
z
" transform="scale(0.015625)"/>
       <path id="DejaVuSans-49" d="M 628 4666 
L 1259 4666 
L 1259 0 
L 628 0 
L 628 4666 
z
" transform="scale(0.015625)"/>
      </defs>
      <use xlink:href="#DejaVuSans-41"/>
      <use xlink:href="#DejaVuSans-3a" x="66.658203"/>
      <use xlink:href="#DejaVuSans-49" x="100.349609"/>
      <use xlink:href="#DejaVuSans-20" x="129.841797"/>
      <use xlink:href="#DejaVuSans-65" x="161.628906"/>
      <use xlink:href="#DejaVuSans-64" x="223.152344"/>
      <use xlink:href="#DejaVuSans-69" x="286.628906"/>
      <use xlink:href="#DejaVuSans-74" x="314.412109"/>
      <use xlink:href="#DejaVuSans-20" x="353.621094"/>
      <use xlink:href="#DejaVuSans-72" x="385.408203"/>
      <use xlink:href="#DejaVuSans-61" x="426.521484"/>
      <use xlink:href="#DejaVuSans-74" x="487.800781"/>
      <use xlink:href="#DejaVuSans-69" x="527.009766"/>
      <use xlink:href="#DejaVuSans-6f" x="554.792969"/>
     </g>
    </g>
   </g>
   <g id="PolyCollection_1">
    <defs>
     <path id="m7a5478ce6a" d="M 525.323821 -41.244539 
L 482.972959 -41.244539 
L 479.763223 -43.146743 
L 477.294228 -45.048948 
L 475.75223 -46.951153 
L 475.174868 -48.853357 
L 475.458307 -50.755562 
L 476.399389 -52.657766 
L 477.755299 -54.559971 
L 479.300104 -56.462176 
L 480.862776 -58.36438 
L 482.34101 -60.266585 
L 483.694335 -62.16879 
L 484.925221 -64.070994 
L 486.057525 -65.973199 
L 487.118998 -67.875403 
L 488.13084 -69.777608 
L 489.104073 -71.679813 
L 490.040708 -73.582017 
L 490.93724 -75.484222 
L 491.78847 -77.386427 
L 492.590472 -79.288631 
L 493.342205 -81.190836 
L 494.045742 -83.093041 
L 494.705354 -84.995245 
L 495.325906 -86.89745 
L 495.91115 -88.799654 
L 496.462507 -90.701859 
L 496.978718 -92.604064 
L 497.456385 -94.506268 
L 497.891129 -96.408473 
L 498.278967 -98.310678 
L 498.617512 -100.212882 
L 498.906743 -102.115087 
L 499.14914 -104.017291 
L 499.349122 -105.919496 
L 499.511905 -107.821701 
L 499.642171 -109.723905 
L 499.743104 -111.62611 
L 499.816269 -113.528315 
L 499.862369 -115.430519 
L 499.882464 -117.332724 
L 499.878901 -119.234929 
L 499.855332 -121.137133 
L 499.815737 -123.039338 
L 499.762991 -124.941542 
L 499.69791 -126.843747 
L 499.619571 -128.745952 
L 499.527065 -130.648156 
L 499.422045 -132.550361 
L 499.310841 -134.452566 
L 499.204984 -136.35477 
L 499.119637 -138.256975 
L 499.070381 -140.159179 
L 499.06955 -142.061384 
L 499.12345 -143.963589 
L 499.231339 -145.865793 
L 499.386245 -147.767998 
L 499.57703 -149.670203 
L 499.79085 -151.572407 
L 500.015306 -153.474612 
L 500.239974 -155.376817 
L 500.457355 -157.279021 
L 500.663342 -159.181226 
L 500.857271 -161.08343 
L 501.041498 -162.985635 
L 501.220461 -164.88784 
L 501.39936 -166.790044 
L 501.582747 -168.692249 
L 501.773405 -170.594454 
L 501.971775 -172.496658 
L 502.175971 -174.398863 
L 502.382253 -176.301067 
L 502.58572 -178.203272 
L 502.781068 -180.105477 
L 502.963319 -182.007681 
L 503.128451 -183.909886 
L 503.273897 -185.812091 
L 503.398821 -187.714295 
L 503.504095 -189.6165 
L 503.591974 -191.518705 
L 503.665529 -193.420909 
L 503.727976 -195.323114 
L 503.782072 -197.225318 
L 503.829726 -199.127523 
L 503.871913 -201.029728 
L 503.908875 -202.931932 
L 503.940511 -204.834137 
L 503.966795 -206.736342 
L 503.988036 -208.638546 
L 504.004916 -210.540751 
L 504.018307 -212.442955 
L 504.028998 -214.34516 
L 504.0375 -216.247365 
L 504.044032 -218.149569 
L 504.048698 -220.051774 
L 504.051766 -221.953979 
L 504.05387 -223.856183 
L 504.056017 -225.758388 
L 504.059368 -227.660593 
L 504.064878 -229.562797 
L 504.231902 -229.562797 
L 504.231902 -229.562797 
L 504.237413 -227.660593 
L 504.240763 -225.758388 
L 504.24291 -223.856183 
L 504.245014 -221.953979 
L 504.248083 -220.051774 
L 504.252749 -218.149569 
L 504.25928 -216.247365 
L 504.267782 -214.34516 
L 504.278473 -212.442955 
L 504.291864 -210.540751 
L 504.308744 -208.638546 
L 504.329985 -206.736342 
L 504.356269 -204.834137 
L 504.387905 -202.931932 
L 504.424867 -201.029728 
L 504.467054 -199.127523 
L 504.514708 -197.225318 
L 504.568804 -195.323114 
L 504.631251 -193.420909 
L 504.704806 -191.518705 
L 504.792685 -189.6165 
L 504.89796 -187.714295 
L 505.022883 -185.812091 
L 505.16833 -183.909886 
L 505.333461 -182.007681 
L 505.515712 -180.105477 
L 505.71106 -178.203272 
L 505.914527 -176.301067 
L 506.120809 -174.398863 
L 506.325006 -172.496658 
L 506.523375 -170.594454 
L 506.714033 -168.692249 
L 506.89742 -166.790044 
L 507.076319 -164.88784 
L 507.255282 -162.985635 
L 507.439509 -161.08343 
L 507.633438 -159.181226 
L 507.839425 -157.279021 
L 508.056806 -155.376817 
L 508.281475 -153.474612 
L 508.50593 -151.572407 
L 508.719751 -149.670203 
L 508.910536 -147.767998 
L 509.065441 -145.865793 
L 509.17333 -143.963589 
L 509.227231 -142.061384 
L 509.226399 -140.159179 
L 509.177143 -138.256975 
L 509.091796 -136.35477 
L 508.985939 -134.452566 
L 508.874735 -132.550361 
L 508.769715 -130.648156 
L 508.677209 -128.745952 
L 508.59887 -126.843747 
L 508.53379 -124.941542 
L 508.481043 -123.039338 
L 508.441448 -121.137133 
L 508.417879 -119.234929 
L 508.414316 -117.332724 
L 508.434411 -115.430519 
L 508.480511 -113.528315 
L 508.553676 -111.62611 
L 508.654609 -109.723905 
L 508.784875 -107.821701 
L 508.947658 -105.919496 
L 509.14764 -104.017291 
L 509.390038 -102.115087 
L 509.679268 -100.212882 
L 510.017813 -98.310678 
L 510.405651 -96.408473 
L 510.840395 -94.506268 
L 511.318062 -92.604064 
L 511.834273 -90.701859 
L 512.38563 -88.799654 
L 512.970874 -86.89745 
L 513.591426 -84.995245 
L 514.251038 -83.093041 
L 514.954575 -81.190836 
L 515.706308 -79.288631 
L 516.50831 -77.386427 
L 517.35954 -75.484222 
L 518.256072 -73.582017 
L 519.192707 -71.679813 
L 520.16594 -69.777608 
L 521.177782 -67.875403 
L 522.239256 -65.973199 
L 523.371559 -64.070994 
L 524.602445 -62.16879 
L 525.95577 -60.266585 
L 527.434004 -58.36438 
L 528.996676 -56.462176 
L 530.541481 -54.559971 
L 531.897391 -52.657766 
L 532.838473 -50.755562 
L 533.121912 -48.853357 
L 532.54455 -46.951153 
L 531.002552 -45.048948 
L 528.533557 -43.146743 
L 525.323821 -41.244539 
z
" style="stroke: #595959; stroke-width: 1.5"/>
    </defs>
    <g clip-path="url(#pb697629160)">
     <use xlink:href="#m7a5478ce6a" x="0" y="347.64375" style="fill: #72b6a1; stroke: #595959; stroke-width: 1.5"/>
    </g>
   </g>
   <g id="PolyCollection_2">
    <defs>
     <path id="m94fd0c0f29" d="M 624.784655 -41.306577 
L 597.384335 -41.306577 
L 593.947657 -42.499098 
L 590.614074 -43.691618 
L 587.642803 -44.884138 
L 585.237359 -46.076659 
L 583.511176 -47.269179 
L 582.478535 -48.461699 
L 582.069582 -49.654219 
L 582.160167 -50.84674 
L 582.604619 -52.03926 
L 583.262433 -53.23178 
L 584.015312 -54.424301 
L 584.775599 -55.616821 
L 585.488888 -56.809341 
L 586.132814 -58.001862 
L 586.712414 -59.194382 
L 587.251928 -60.386902 
L 587.783819 -61.579423 
L 588.337391 -62.771943 
L 588.930121 -63.964463 
L 589.56395 -65.156984 
L 590.226727 -66.349504 
L 590.897083 -67.542024 
L 591.550276 -68.734544 
L 592.16321 -69.927065 
L 592.718056 -71.119585 
L 593.204692 -72.312105 
L 593.622155 -73.504626 
L 593.978682 -74.697146 
L 594.289688 -75.889666 
L 594.573584 -77.082187 
L 594.846494 -78.274707 
L 595.117828 -79.467227 
L 595.388579 -80.659748 
L 595.653004 -81.852268 
L 595.902835 -83.044788 
L 596.132154 -84.237309 
L 596.341113 -85.429829 
L 596.537385 -86.622349 
L 596.735122 -87.81487 
L 596.951852 -89.00739 
L 597.204111 -90.19991 
L 597.502939 -91.39243 
L 597.850585 -92.584951 
L 598.239633 -93.777471 
L 598.655104 -94.969991 
L 599.078982 -96.162512 
L 599.49552 -97.355032 
L 599.89524 -98.547552 
L 600.275981 -99.740073 
L 600.64073 -100.932593 
L 600.993472 -102.125113 
L 601.335316 -103.317634 
L 601.662905 -104.510154 
L 601.969794 -105.702674 
L 602.249822 -106.895195 
L 602.50043 -108.087715 
L 602.724107 -109.280235 
L 602.927433 -110.472755 
L 603.118597 -111.665276 
L 603.305011 -112.857796 
L 603.492207 -114.050316 
L 603.684192 -115.242837 
L 603.884491 -116.435357 
L 604.096856 -117.627877 
L 604.32504 -118.820398 
L 604.571712 -120.012918 
L 604.837179 -121.205438 
L 605.11869 -122.397959 
L 605.410798 -123.590479 
L 605.706704 -124.782999 
L 606.00001 -125.97552 
L 606.286126 -127.16804 
L 606.562788 -128.36056 
L 606.829672 -129.553081 
L 607.087478 -130.745601 
L 607.336992 -131.938121 
L 607.57845 -133.130641 
L 607.811275 -134.323162 
L 608.034148 -135.515682 
L 608.245356 -136.708202 
L 608.443398 -137.900723 
L 608.627723 -139.093243 
L 608.799372 -140.285763 
L 608.961196 -141.478284 
L 609.117497 -142.670804 
L 609.273112 -143.863324 
L 609.432228 -145.055845 
L 609.59725 -146.248365 
L 609.768071 -147.440885 
L 609.941937 -148.633406 
L 610.11398 -149.825926 
L 610.278266 -151.018446 
L 610.429086 -152.210966 
L 610.562104 -153.403487 
L 610.675056 -154.596007 
L 610.76785 -155.788527 
L 610.842161 -156.981048 
L 610.900716 -158.173568 
L 610.946544 -159.366088 
L 611.222446 -159.366088 
L 611.222446 -159.366088 
L 611.268275 -158.173568 
L 611.326829 -156.981048 
L 611.40114 -155.788527 
L 611.493935 -154.596007 
L 611.606886 -153.403487 
L 611.739905 -152.210966 
L 611.890725 -151.018446 
L 612.05501 -149.825926 
L 612.227053 -148.633406 
L 612.40092 -147.440885 
L 612.57174 -146.248365 
L 612.736762 -145.055845 
L 612.895878 -143.863324 
L 613.051494 -142.670804 
L 613.207794 -141.478284 
L 613.369619 -140.285763 
L 613.541267 -139.093243 
L 613.725593 -137.900723 
L 613.923634 -136.708202 
L 614.134843 -135.515682 
L 614.357716 -134.323162 
L 614.590541 -133.130641 
L 614.831998 -131.938121 
L 615.081513 -130.745601 
L 615.339319 -129.553081 
L 615.606202 -128.36056 
L 615.882864 -127.16804 
L 616.16898 -125.97552 
L 616.462287 -124.782999 
L 616.758192 -123.590479 
L 617.0503 -122.397959 
L 617.331812 -121.205438 
L 617.597279 -120.012918 
L 617.84395 -118.820398 
L 618.072134 -117.627877 
L 618.2845 -116.435357 
L 618.484798 -115.242837 
L 618.676783 -114.050316 
L 618.86398 -112.857796 
L 619.050394 -111.665276 
L 619.241557 -110.472755 
L 619.444883 -109.280235 
L 619.668561 -108.087715 
L 619.919169 -106.895195 
L 620.199197 -105.702674 
L 620.506085 -104.510154 
L 620.833674 -103.317634 
L 621.175519 -102.125113 
L 621.52826 -100.932593 
L 621.893009 -99.740073 
L 622.273751 -98.547552 
L 622.67347 -97.355032 
L 623.090009 -96.162512 
L 623.513886 -94.969991 
L 623.929357 -93.777471 
L 624.318405 -92.584951 
L 624.666051 -91.39243 
L 624.964879 -90.19991 
L 625.217138 -89.00739 
L 625.433868 -87.81487 
L 625.631605 -86.622349 
L 625.827877 -85.429829 
L 626.036837 -84.237309 
L 626.266156 -83.044788 
L 626.515986 -81.852268 
L 626.780412 -80.659748 
L 627.051163 -79.467227 
L 627.322497 -78.274707 
L 627.595406 -77.082187 
L 627.879303 -75.889666 
L 628.190308 -74.697146 
L 628.546835 -73.504626 
L 628.964299 -72.312105 
L 629.450935 -71.119585 
L 630.00578 -69.927065 
L 630.618715 -68.734544 
L 631.271907 -67.542024 
L 631.942263 -66.349504 
L 632.60504 -65.156984 
L 633.238869 -63.964463 
L 633.831599 -62.771943 
L 634.385171 -61.579423 
L 634.917062 -60.386902 
L 635.456577 -59.194382 
L 636.036177 -58.001862 
L 636.680102 -56.809341 
L 637.393391 -55.616821 
L 638.153678 -54.424301 
L 638.906557 -53.23178 
L 639.564372 -52.03926 
L 640.008824 -50.84674 
L 640.099409 -49.654219 
L 639.690456 -48.461699 
L 638.657814 -47.269179 
L 636.931631 -46.076659 
L 634.526187 -44.884138 
L 631.554916 -43.691618 
L 628.221333 -42.499098 
L 624.784655 -41.306577 
z
" style="stroke: #595959; stroke-width: 1.5"/>
    </defs>
    <g clip-path="url(#pb697629160)">
     <use xlink:href="#m94fd0c0f29" x="0" y="347.64375" style="fill: #e99675; stroke: #595959; stroke-width: 1.5"/>
    </g>
   </g>
   <g id="PolyCollection_3">
    <defs>
     <path id="m884e5d66ee" d="M 731.502403 -41.337597 
L 704.538797 -41.337597 
L 701.275974 -42.474345 
L 698.075842 -43.611093 
L 695.162607 -44.747841 
L 692.721826 -45.884589 
L 690.871609 -47.021338 
L 689.651416 -48.158086 
L 689.02897 -49.294834 
L 688.92005 -50.431582 
L 689.213306 -51.56833 
L 689.792937 -52.705079 
L 690.554992 -53.841827 
L 691.416163 -54.978575 
L 692.316076 -56.115323 
L 693.214913 -57.252072 
L 694.088317 -58.38882 
L 694.921404 -59.525568 
L 695.703574 -60.662316 
L 696.42547 -61.799064 
L 697.078631 -62.935813 
L 697.657356 -64.072561 
L 698.161299 -65.209309 
L 698.597062 -66.346057 
L 698.977571 -67.482805 
L 699.319115 -68.619554 
L 699.63714 -69.756302 
L 699.942456 -70.89305 
L 700.239404 -72.029798 
L 700.526581 -73.166547 
L 700.799611 -74.303295 
L 701.054639 -75.440043 
L 701.29109 -76.576791 
L 701.512755 -77.713539 
L 701.727054 -78.850288 
L 701.942964 -79.987036 
L 702.168332 -81.123784 
L 702.40727 -82.260532 
L 702.658343 -83.39728 
L 702.914203 -84.534029 
L 703.163244 -85.670777 
L 703.393212 -86.807525 
L 703.595886 -87.944273 
L 703.771108 -89.081022 
L 703.928406 -90.21777 
L 704.085256 -91.354518 
L 704.262484 -92.491266 
L 704.478526 -93.628014 
L 704.744671 -94.764763 
L 705.062781 -95.901511 
L 705.425854 -97.038259 
L 705.820638 -98.175007 
L 706.231063 -99.311755 
L 706.641316 -100.448504 
L 707.037894 -101.585252 
L 707.410518 -102.722 
L 707.752191 -103.858748 
L 708.05889 -104.995497 
L 708.329375 -106.132245 
L 708.565344 -107.268993 
L 708.771831 -108.405741 
L 708.957424 -109.542489 
L 709.133786 -110.679238 
L 709.314209 -111.815986 
L 709.511399 -112.952734 
L 709.735087 -114.089482 
L 709.990226 -115.22623 
L 710.276352 -116.362979 
L 710.58825 -117.499727 
L 710.917631 -118.636475 
L 711.255259 -119.773223 
L 711.592899 -120.909972 
L 711.924589 -122.04672 
L 712.247031 -123.183468 
L 712.559089 -124.320216 
L 712.86069 -125.456964 
L 713.151549 -126.593713 
L 713.430226 -127.730461 
L 713.693941 -128.867209 
L 713.93932 -130.003957 
L 714.163848 -131.140705 
L 714.367444 -132.277454 
L 714.553449 -133.414202 
L 714.728496 -134.55095 
L 714.901175 -135.687698 
L 715.079898 -136.824447 
L 715.270662 -137.961195 
L 715.475431 -139.097943 
L 715.691647 -140.234691 
L 715.912986 -141.371439 
L 716.131111 -142.508188 
L 716.337908 -143.644936 
L 716.52751 -144.781684 
L 716.697537 -145.918432 
L 716.849201 -147.05518 
L 716.986347 -148.191929 
L 717.113814 -149.328677 
L 717.23573 -150.465425 
L 717.354276 -151.602173 
L 717.469248 -152.738921 
L 717.578437 -153.87567 
L 718.462763 -153.87567 
L 718.462763 -153.87567 
L 718.571952 -152.738921 
L 718.686925 -151.602173 
L 718.805471 -150.465425 
L 718.927387 -149.328677 
L 719.054854 -148.191929 
L 719.191999 -147.05518 
L 719.343664 -145.918432 
L 719.513691 -144.781684 
L 719.703293 -143.644936 
L 719.910089 -142.508188 
L 720.128215 -141.371439 
L 720.349553 -140.234691 
L 720.56577 -139.097943 
L 720.770539 -137.961195 
L 720.961302 -136.824447 
L 721.140026 -135.687698 
L 721.312705 -134.55095 
L 721.487752 -133.414202 
L 721.673757 -132.277454 
L 721.877353 -131.140705 
L 722.10188 -130.003957 
L 722.347259 -128.867209 
L 722.610974 -127.730461 
L 722.889651 -126.593713 
L 723.180511 -125.456964 
L 723.482112 -124.320216 
L 723.794169 -123.183468 
L 724.116611 -122.04672 
L 724.448302 -120.909972 
L 724.785941 -119.773223 
L 725.123569 -118.636475 
L 725.45295 -117.499727 
L 725.764848 -116.362979 
L 726.050975 -115.22623 
L 726.306114 -114.089482 
L 726.529801 -112.952734 
L 726.726992 -111.815986 
L 726.907415 -110.679238 
L 727.083776 -109.542489 
L 727.26937 -108.405741 
L 727.475857 -107.268993 
L 727.711825 -106.132245 
L 727.982311 -104.995497 
L 728.28901 -103.858748 
L 728.630682 -102.722 
L 729.003307 -101.585252 
L 729.399885 -100.448504 
L 729.810138 -99.311755 
L 730.220563 -98.175007 
L 730.615346 -97.038259 
L 730.978419 -95.901511 
L 731.29653 -94.764763 
L 731.562674 -93.628014 
L 731.778717 -92.491266 
L 731.955945 -91.354518 
L 732.112794 -90.21777 
L 732.270092 -89.081022 
L 732.445315 -87.944273 
L 732.647989 -86.807525 
L 732.877957 -85.670777 
L 733.126998 -84.534029 
L 733.382858 -83.39728 
L 733.63393 -82.260532 
L 733.872869 -81.123784 
L 734.098236 -79.987036 
L 734.314147 -78.850288 
L 734.528445 -77.713539 
L 734.75011 -76.576791 
L 734.986562 -75.440043 
L 735.24159 -74.303295 
L 735.514619 -73.166547 
L 735.801796 -72.029798 
L 736.098745 -70.89305 
L 736.404061 -69.756302 
L 736.722085 -68.619554 
L 737.06363 -67.482805 
L 737.444139 -66.346057 
L 737.879902 -65.209309 
L 738.383844 -64.072561 
L 738.96257 -62.935813 
L 739.615731 -61.799064 
L 740.337626 -60.662316 
L 741.119797 -59.525568 
L 741.952884 -58.38882 
L 742.826288 -57.252072 
L 743.725124 -56.115323 
L 744.625037 -54.978575 
L 745.486209 -53.841827 
L 746.248263 -52.705079 
L 746.827894 -51.56833 
L 747.121151 -50.431582 
L 747.012231 -49.294834 
L 746.389784 -48.158086 
L 745.169592 -47.021338 
L 743.319375 -45.884589 
L 740.878593 -44.747841 
L 737.965358 -43.611093 
L 734.765227 -42.474345 
L 731.502403 -41.337597 
z
" style="stroke: #595959; stroke-width: 1.5"/>
    </defs>
    <g clip-path="url(#pb697629160)">
     <use xlink:href="#m884e5d66ee" x="0" y="347.64375" style="fill: #95a3c3; stroke: #595959; stroke-width: 1.5"/>
    </g>
   </g>
   <g id="PolyCollection_4">
    <defs>
     <path id="m9def3471f9" d="M 851.315553 -41.1825 
L 798.597858 -41.1825 
L 788.562781 -43.91596 
L 782.662036 -46.649419 
L 782.182263 -49.382879 
L 785.749151 -52.116338 
L 790.965667 -54.849798 
L 796.086089 -57.583258 
L 800.443043 -60.316717 
L 804.00602 -63.050177 
L 806.892072 -65.783636 
L 809.184043 -68.517096 
L 810.970046 -71.250556 
L 812.402685 -73.984015 
L 813.667772 -76.717475 
L 814.887157 -79.450934 
L 816.058729 -82.184394 
L 817.099644 -84.917854 
L 817.946795 -87.651313 
L 818.611937 -90.384773 
L 819.149986 -93.118232 
L 819.60166 -95.851692 
L 819.98716 -98.585152 
L 820.337495 -101.318611 
L 820.691225 -104.052071 
L 821.0489 -106.78553 
L 821.358827 -109.51899 
L 821.570887 -112.252449 
L 821.694841 -114.985909 
L 821.789187 -117.719369 
L 821.900258 -120.452828 
L 822.030031 -123.186288 
L 822.156202 -125.919747 
L 822.26019 -128.653207 
L 822.336423 -131.386667 
L 822.393185 -134.120126 
L 822.445636 -136.853586 
L 822.500998 -139.587045 
L 822.557549 -142.320505 
L 822.620369 -145.053965 
L 822.703134 -147.787424 
L 822.809336 -150.520884 
L 822.926013 -153.254343 
L 823.041568 -155.987803 
L 823.157201 -158.721263 
L 823.275636 -161.454722 
L 823.392814 -164.188182 
L 823.509776 -166.921641 
L 823.639713 -169.655101 
L 823.791124 -172.388561 
L 823.952121 -175.12202 
L 824.101148 -177.85548 
L 824.227082 -180.588939 
L 824.331343 -183.322399 
L 824.4166 -186.055859 
L 824.481758 -188.789318 
L 824.525633 -191.522778 
L 824.550505 -194.256237 
L 824.562292 -196.989697 
L 824.568268 -199.723157 
L 824.574485 -202.456616 
L 824.585255 -205.190076 
L 824.60366 -207.923535 
L 824.630494 -210.656995 
L 824.662932 -213.390455 
L 824.69627 -216.123914 
L 824.727477 -218.857374 
L 824.755809 -221.590833 
L 824.780857 -224.324293 
L 824.802734 -227.057753 
L 824.823189 -229.791212 
L 824.842817 -232.524672 
L 824.857624 -235.258131 
L 824.861808 -237.991591 
L 824.854156 -240.725051 
L 824.840022 -243.45851 
L 824.827673 -246.19197 
L 824.824178 -248.925429 
L 824.833625 -251.658889 
L 824.85543 -254.392348 
L 824.882615 -257.125808 
L 824.90468 -259.859268 
L 824.915056 -262.592727 
L 824.915605 -265.326187 
L 824.913574 -268.059646 
L 824.914204 -270.793106 
L 824.916059 -273.526566 
L 824.914018 -276.260025 
L 824.906832 -278.993485 
L 824.900139 -281.726944 
L 824.901128 -284.460404 
L 824.911267 -287.193864 
L 824.92526 -289.927323 
L 824.93649 -292.660783 
L 824.942331 -295.394242 
L 824.94428 -298.127702 
L 824.944409 -300.861162 
L 824.943184 -303.594621 
L 824.94079 -306.328081 
L 824.938955 -309.06154 
L 824.939918 -311.795 
L 824.973493 -311.795 
L 824.973493 -311.795 
L 824.974456 -309.06154 
L 824.972621 -306.328081 
L 824.970227 -303.594621 
L 824.969001 -300.861162 
L 824.969131 -298.127702 
L 824.97108 -295.394242 
L 824.976921 -292.660783 
L 824.988151 -289.927323 
L 825.002144 -287.193864 
L 825.012283 -284.460404 
L 825.013272 -281.726944 
L 825.006578 -278.993485 
L 824.999393 -276.260025 
L 824.997352 -273.526566 
L 824.999206 -270.793106 
L 824.999837 -268.059646 
L 824.997806 -265.326187 
L 824.998355 -262.592727 
L 825.00873 -259.859268 
L 825.030796 -257.125808 
L 825.057981 -254.392348 
L 825.079786 -251.658889 
L 825.089232 -248.925429 
L 825.085738 -246.19197 
L 825.073389 -243.45851 
L 825.059255 -240.725051 
L 825.051603 -237.991591 
L 825.055787 -235.258131 
L 825.070594 -232.524672 
L 825.090222 -229.791212 
L 825.110677 -227.057753 
L 825.132554 -224.324293 
L 825.157602 -221.590833 
L 825.185934 -218.857374 
L 825.217141 -216.123914 
L 825.250479 -213.390455 
L 825.282917 -210.656995 
L 825.309751 -207.923535 
L 825.328155 -205.190076 
L 825.338926 -202.456616 
L 825.345143 -199.723157 
L 825.351118 -196.989697 
L 825.362906 -194.256237 
L 825.387778 -191.522778 
L 825.431653 -188.789318 
L 825.496811 -186.055859 
L 825.582067 -183.322399 
L 825.686329 -180.588939 
L 825.812263 -177.85548 
L 825.96129 -175.12202 
L 826.122287 -172.388561 
L 826.273698 -169.655101 
L 826.403635 -166.921641 
L 826.520596 -164.188182 
L 826.637774 -161.454722 
L 826.75621 -158.721263 
L 826.871843 -155.987803 
L 826.987398 -153.254343 
L 827.104075 -150.520884 
L 827.210277 -147.787424 
L 827.293042 -145.053965 
L 827.355862 -142.320505 
L 827.412413 -139.587045 
L 827.467775 -136.853586 
L 827.520226 -134.120126 
L 827.576988 -131.386667 
L 827.653221 -128.653207 
L 827.757209 -125.919747 
L 827.88338 -123.186288 
L 828.013152 -120.452828 
L 828.124224 -117.719369 
L 828.21857 -114.985909 
L 828.342524 -112.252449 
L 828.554584 -109.51899 
L 828.864511 -106.78553 
L 829.222186 -104.052071 
L 829.575916 -101.318611 
L 829.92625 -98.585152 
L 830.311751 -95.851692 
L 830.763425 -93.118232 
L 831.301474 -90.384773 
L 831.966616 -87.651313 
L 832.813767 -84.917854 
L 833.854682 -82.184394 
L 835.026254 -79.450934 
L 836.245638 -76.717475 
L 837.510726 -73.984015 
L 838.943365 -71.250556 
L 840.729368 -68.517096 
L 843.021339 -65.783636 
L 845.907391 -63.050177 
L 849.470368 -60.316717 
L 853.827322 -57.583258 
L 858.947744 -54.849798 
L 864.16426 -52.116338 
L 867.731147 -49.382879 
L 867.251375 -46.649419 
L 861.35063 -43.91596 
L 851.315553 -41.1825 
z
" style="stroke: #595959; stroke-width: 1.5"/>
    </defs>
    <g clip-path="url(#pb697629160)">
     <use xlink:href="#m9def3471f9" x="0" y="347.64375" style="fill: #db96c0; stroke: #595959; stroke-width: 1.5"/>
    </g>
   </g>
   <g id="line2d_6">
    <path d="M 504.14839 306.399211 
L 504.14839 181.701567 
" clip-path="url(#pb697629160)" style="fill: none; stroke: #595959; stroke-width: 1.5; stroke-linecap: round"/>
   </g>
   <g id="line2d_7">
    <path d="M 504.14839 298.931311 
L 504.14839 252.037863 
" clip-path="url(#pb697629160)" style="fill: none; stroke: #595959; stroke-width: 4.5; stroke-linecap: round"/>
   </g>
   <g id="line2d_8">
    <path d="M 611.084495 306.337173 
L 611.084495 197.83161 
" clip-path="url(#pb697629160)" style="fill: none; stroke: #595959; stroke-width: 1.5; stroke-linecap: round"/>
   </g>
   <g id="line2d_9">
    <path d="M 611.084495 294.053524 
L 611.084495 255.434478 
" clip-path="url(#pb697629160)" style="fill: none; stroke: #595959; stroke-width: 4.5; stroke-linecap: round"/>
   </g>
   <g id="line2d_10">
    <path d="M 718.0206 306.306153 
L 718.0206 194.946814 
" clip-path="url(#pb697629160)" style="fill: none; stroke: #595959; stroke-width: 1.5; stroke-linecap: round"/>
   </g>
   <g id="line2d_11">
    <path d="M 718.0206 293.960466 
L 718.0206 254.100647 
" clip-path="url(#pb697629160)" style="fill: none; stroke: #595959; stroke-width: 4.5; stroke-linecap: round"/>
   </g>
   <g id="line2d_12">
    <path d="M 824.956705 306.46125 
L 824.956705 223.081333 
" clip-path="url(#pb697629160)" style="fill: none; stroke: #595959; stroke-width: 1.5; stroke-linecap: round"/>
   </g>
   <g id="line2d_13">
    <path d="M 824.956705 299.947194 
L 824.956705 269.191544 
" clip-path="url(#pb697629160)" style="fill: none; stroke: #595959; stroke-width: 4.5; stroke-linecap: round"/>
   </g>
   <g id="patch_6">
    <path d="M 450.680338 319.991875 
L 450.680338 22.318125 
" style="fill: none; stroke: #cccccc; stroke-width: 1.25; stroke-linejoin: miter; stroke-linecap: square"/>
   </g>
   <g id="patch_7">
    <path d="M 878.424758 319.991875 
L 878.424758 22.318125 
" style="fill: none; stroke: #cccccc; stroke-width: 1.25; stroke-linejoin: miter; stroke-linecap: square"/>
   </g>
   <g id="patch_8">
    <path d="M 450.680338 319.991875 
L 878.424758 319.991875 
" style="fill: none; stroke: #cccccc; stroke-width: 1.25; stroke-linejoin: miter; stroke-linecap: square"/>
   </g>
   <g id="patch_9">
    <path d="M 450.680338 22.318125 
L 878.424758 22.318125 
" style="fill: none; stroke: #cccccc; stroke-width: 1.25; stroke-linejoin: miter; stroke-linecap: square"/>
   </g>
   <g id="PathCollection_1">
    <defs>
     <path id="m038b3b060b" d="M 0 1.5 
C 0.397805 1.5 0.77937 1.341951 1.06066 1.06066 
C 1.341951 0.77937 1.5 0.397805 1.5 0 
C 1.5 -0.397805 1.341951 -0.77937 1.06066 -1.06066 
C 0.77937 -1.341951 0.397805 -1.5 0 -1.5 
C -0.397805 -1.5 -0.77937 -1.341951 -1.06066 -1.06066 
C -1.341951 -0.77937 -1.5 -0.397805 -1.5 0 
C -1.5 0.397805 -1.341951 0.77937 -1.06066 1.06066 
C -0.77937 1.341951 -0.397805 1.5 0 1.5 
z
" style="stroke: #595959"/>
    </defs>
    <g clip-path="url(#pb697629160)">
     <use xlink:href="#m038b3b060b" x="504.14839" y="283.506957" style="fill: #ffffff; stroke: #595959"/>
    </g>
   </g>
   <g id="PathCollection_2">
    <g clip-path="url(#pb697629160)">
     <use xlink:href="#m038b3b060b" x="611.084495" y="278.311222" style="fill: #ffffff; stroke: #595959"/>
    </g>
   </g>
   <g id="PathCollection_3">
    <g clip-path="url(#pb697629160)">
     <use xlink:href="#m038b3b060b" x="718.0206" y="277.101469" style="fill: #ffffff; stroke: #595959"/>
    </g>
   </g>
   <g id="PathCollection_4">
    <g clip-path="url(#pb697629160)">
     <use xlink:href="#m038b3b060b" x="824.956705" y="290.579361" style="fill: #ffffff; stroke: #595959"/>
    </g>
   </g>
   <g id="text_17">
    <!-- A:I edit ratio distributions -->
    <g style="fill: #262626" transform="translate(588.37036 16.318125)scale(0.12 -0.12)">
     <defs>
      <path id="DejaVuSans-75" d="M 544 1381 
L 544 3500 
L 1119 3500 
L 1119 1403 
Q 1119 906 1312 657 
Q 1506 409 1894 409 
Q 2359 409 2629 706 
Q 2900 1003 2900 1516 
L 2900 3500 
L 3475 3500 
L 3475 0 
L 2900 0 
L 2900 538 
Q 2691 219 2414 64 
Q 2138 -91 1772 -91 
Q 1169 -91 856 284 
Q 544 659 544 1381 
z
M 1991 3584 
L 1991 3584 
z
" transform="scale(0.015625)"/>
     </defs>
     <use xlink:href="#DejaVuSans-41"/>
     <use xlink:href="#DejaVuSans-3a" x="66.658203"/>
     <use xlink:href="#DejaVuSans-49" x="100.349609"/>
     <use xlink:href="#DejaVuSans-20" x="129.841797"/>
     <use xlink:href="#DejaVuSans-65" x="161.628906"/>
     <use xlink:href="#DejaVuSans-64" x="223.152344"/>
     <use xlink:href="#DejaVuSans-69" x="286.628906"/>
     <use xlink:href="#DejaVuSans-74" x="314.412109"/>
     <use xlink:href="#DejaVuSans-20" x="353.621094"/>
     <use xlink:href="#DejaVuSans-72" x="385.408203"/>
     <use xlink:href="#DejaVuSans-61" x="426.521484"/>
     <use xlink:href="#DejaVuSans-74" x="487.800781"/>
     <use xlink:href="#DejaVuSans-69" x="527.009766"/>
     <use xlink:href="#DejaVuSans-6f" x="554.792969"/>
     <use xlink:href="#DejaVuSans-20" x="615.974609"/>
     <use xlink:href="#DejaVuSans-64" x="647.761719"/>
     <use xlink:href="#DejaVuSans-69" x="711.238281"/>
     <use xlink:href="#DejaVuSans-73" x="739.021484"/>
     <use xlink:href="#DejaVuSans-74" x="791.121094"/>
     <use xlink:href="#DejaVuSans-72" x="830.330078"/>
     <use xlink:href="#DejaVuSans-69" x="871.443359"/>
     <use xlink:href="#DejaVuSans-62" x="899.226562"/>
     <use xlink:href="#DejaVuSans-75" x="962.703125"/>
     <use xlink:href="#DejaVuSans-74" x="1026.082031"/>
     <use xlink:href="#DejaVuSans-69" x="1065.291016"/>
     <use xlink:href="#DejaVuSans-6f" x="1093.074219"/>
     <use xlink:href="#DejaVuSans-6e" x="1154.255859"/>
     <use xlink:href="#DejaVuSans-73" x="1217.634766"/>
    </g>
   </g>
  </g>
 </g>
 <defs>
  <clipPath id="p972e443548">
   <rect x="7.2" y="22.318125" width="352.977118" height="297.67375"/>
  </clipPath>
  <clipPath id="pb697629160">
   <rect x="450.680338" y="22.318125" width="427.74442" height="297.67375"/>
  </clipPath>
 </defs>
</svg>
