<?xml version="1.0" encoding="utf-8" standalone="no"?>
<!DOCTYPE svg PUBLIC "-//W3C//DTD SVG 1.1//EN"
  "http://www.w3.org/Graphics/SVG/1.1/DTD/svg11.dtd">
<svg xmlns:xlink="http://www.w3.org/1999/xlink" width="885.788052pt" height="347.64375pt" viewBox="0 0 885.788052 347.64375" xmlns="http://www.w3.org/2000/svg" version="1.1">
 <metadata>
  <rdf:RDF xmlns:dc="http://purl.org/dc/elements/1.1/" xmlns:cc="http://creativecommons.org/ns#" xmlns:rdf="http://www.w3.org/1999/02/22-rdf-syntax-ns#">
   <cc:Work>
    <dc:type rdf:resource="http://purl.org/dc/dcmitype/StillImage"/>
    <dc:date>2025-07-01T17:44:35.906555</dc:date>
    <dc:format>image/svg+xml</dc:format>
    <dc:creator>
     <cc:Agent>
      <dc:title>Matplotlib v3.5.1, https://matplotlib.org/</dc:title>
     </cc:Agent>
    </dc:creator>
   </cc:Work>
  </rdf:RDF>
 </metadata>
 <defs>
  <style type="text/css">*{stroke-linejoin: round; stroke-linecap: butt}</style>
 </defs>
 <g id="figure_1">
  <g id="patch_1">
   <path d="M 0 347.64375 
L 885.788052 347.64375 
L 885.788052 0 
L 0 0 
z
" style="fill: #ffffff"/>
  </g>
  <g id="axes_1">
   <g id="patch_2">
    <path d="M 139.528636 270.576535 
C 124.139052 258.970608 111.652332 243.948374 103.054971 226.696644 
C 94.45761 209.444913 89.982141 190.43029 89.982141 171.155 
C 89.982141 151.87971 94.45761 132.865087 103.054971 115.613356 
C 111.652332 98.361626 124.139052 83.339392 139.528636 71.733465 
C 125.779641 70.592198 111.94221 72.315263 98.892966 76.793499 
C 85.843723 81.271735 73.864176 88.408535 63.71325 97.751771 
C 53.562324 107.095007 45.459003 118.443119 39.916646 131.077185 
C 34.374289 143.711251 31.512459 157.35872 31.512459 171.155 
C 31.512459 184.95128 34.374289 198.598749 39.916646 211.232815 
C 45.459003 223.866881 53.562324 235.214993 63.71325 244.558229 
C 73.864176 253.901465 85.843723 261.038265 98.892966 265.516501 
C 111.94221 269.994737 125.779641 271.717802 139.528636 270.576535 
" clip-path="url(#p93d1b344a2)" style="fill: #c44e52; opacity: 0.4"/>
   </g>
   <g id="patch_3">
    <path d="M 139.528636 71.733465 
C 164.465466 73.803404 187.733137 85.181388 204.679152 103.592327 
C 221.625168 122.003266 231.039388 146.132408 231.039388 171.155 
C 231.039388 196.177592 221.625168 220.306734 204.679152 238.717673 
C 187.733137 257.128612 164.465466 268.506596 139.528636 270.576535 
C 158.013014 284.516374 180.023757 293.028943 203.077526 295.15382 
C 226.131295 297.278697 249.327204 292.932847 270.0482 282.606586 
C 290.769197 272.280324 308.205553 256.377177 320.390032 236.6914 
C 332.574511 217.005622 339.030972 194.306487 339.030972 171.155 
C 339.030972 148.003513 332.574511 125.304378 320.390032 105.6186 
C 308.205553 85.932823 290.769197 70.029676 270.0482 59.703414 
C 249.327204 49.377153 226.131295 45.031303 203.077526 47.15618 
C 180.023757 49.281057 158.013014 57.793626 139.528636 71.733465 
" clip-path="url(#p93d1b344a2)" style="fill: #55a868; opacity: 0.4"/>
   </g>
   <g id="patch_4">
    <path d="M 139.528636 270.576535 
C 164.465466 268.506596 187.733137 257.128612 204.679152 238.717673 
C 221.625168 220.306734 231.039388 196.177592 231.039388 171.155 
C 231.039388 146.132408 221.625168 122.003266 204.679152 103.592327 
C 187.733137 85.181388 164.465466 73.803404 139.528636 71.733465 
C 124.139052 83.339392 111.652332 98.361626 103.054971 115.613356 
C 94.45761 132.865087 89.982141 151.87971 89.982141 171.155 
C 89.982141 190.43029 94.45761 209.444913 103.054971 226.696644 
C 111.652332 243.948374 124.139052 258.970608 139.528636 270.576535 
" clip-path="url(#p93d1b344a2)" style="fill: #c5ac82; opacity: 0.4"/>
   </g>
   <g id="text_1">
    <!-- 3150 -->
    <g style="fill: #262626" transform="translate(45.4773 174.46625)scale(0.12 -0.12)">
     <defs>
      <path id="DejaVuSans-33" d="M 2597 2516 
Q 3050 2419 3304 2112 
Q 3559 1806 3559 1356 
Q 3559 666 3084 287 
Q 2609 -91 1734 -91 
Q 1441 -91 1130 -33 
Q 819 25 488 141 
L 488 750 
Q 750 597 1062 519 
Q 1375 441 1716 441 
Q 2309 441 2620 675 
Q 2931 909 2931 1356 
Q 2931 1769 2642 2001 
Q 2353 2234 1838 2234 
L 1294 2234 
L 1294 2753 
L 1863 2753 
Q 2328 2753 2575 2939 
Q 2822 3125 2822 3475 
Q 2822 3834 2567 4026 
Q 2313 4219 1838 4219 
Q 1578 4219 1281 4162 
Q 984 4106 628 3988 
L 628 4550 
Q 988 4650 1302 4700 
Q 1616 4750 1894 4750 
Q 2613 4750 3031 4423 
Q 3450 4097 3450 3541 
Q 3450 3153 3228 2886 
Q 3006 2619 2597 2516 
z
" transform="scale(0.015625)"/>
      <path id="DejaVuSans-31" d="M 794 531 
L 1825 531 
L 1825 4091 
L 703 3866 
L 703 4441 
L 1819 4666 
L 2450 4666 
L 2450 531 
L 3481 531 
L 3481 0 
L 794 0 
L 794 531 
z
" transform="scale(0.015625)"/>
      <path id="DejaVuSans-35" d="M 691 4666 
L 3169 4666 
L 3169 4134 
L 1269 4134 
L 1269 2991 
Q 1406 3038 1543 3061 
Q 1681 3084 1819 3084 
Q 2600 3084 3056 2656 
Q 3513 2228 3513 1497 
Q 3513 744 3044 326 
Q 2575 -91 1722 -91 
Q 1428 -91 1123 -41 
Q 819 9 494 109 
L 494 744 
Q 775 591 1075 516 
Q 1375 441 1709 441 
Q 2250 441 2565 725 
Q 2881 1009 2881 1497 
Q 2881 1984 2565 2268 
Q 2250 2553 1709 2553 
Q 1456 2553 1204 2497 
Q 953 2441 691 2322 
L 691 4666 
z
" transform="scale(0.015625)"/>
      <path id="DejaVuSans-30" d="M 2034 4250 
Q 1547 4250 1301 3770 
Q 1056 3291 1056 2328 
Q 1056 1369 1301 889 
Q 1547 409 2034 409 
Q 2525 409 2770 889 
Q 3016 1369 3016 2328 
Q 3016 3291 2770 3770 
Q 2525 4250 2034 4250 
z
M 2034 4750 
Q 2819 4750 3233 4129 
Q 3647 3509 3647 2328 
Q 3647 1150 3233 529 
Q 2819 -91 2034 -91 
Q 1250 -91 836 529 
Q 422 1150 422 2328 
Q 422 3509 836 4129 
Q 1250 4750 2034 4750 
z
" transform="scale(0.015625)"/>
     </defs>
     <use xlink:href="#DejaVuSans-33"/>
     <use xlink:href="#DejaVuSans-31" x="63.623047"/>
     <use xlink:href="#DejaVuSans-35" x="127.246094"/>
     <use xlink:href="#DejaVuSans-30" x="190.869141"/>
    </g>
   </g>
   <g id="text_2">
    <!-- 8437 -->
    <g style="fill: #262626" transform="translate(269.76518 174.46625)scale(0.12 -0.12)">
     <defs>
      <path id="DejaVuSans-38" d="M 2034 2216 
Q 1584 2216 1326 1975 
Q 1069 1734 1069 1313 
Q 1069 891 1326 650 
Q 1584 409 2034 409 
Q 2484 409 2743 651 
Q 3003 894 3003 1313 
Q 3003 1734 2745 1975 
Q 2488 2216 2034 2216 
z
M 1403 2484 
Q 997 2584 770 2862 
Q 544 3141 544 3541 
Q 544 4100 942 4425 
Q 1341 4750 2034 4750 
Q 2731 4750 3128 4425 
Q 3525 4100 3525 3541 
Q 3525 3141 3298 2862 
Q 3072 2584 2669 2484 
Q 3125 2378 3379 2068 
Q 3634 1759 3634 1313 
Q 3634 634 3220 271 
Q 2806 -91 2034 -91 
Q 1263 -91 848 271 
Q 434 634 434 1313 
Q 434 1759 690 2068 
Q 947 2378 1403 2484 
z
M 1172 3481 
Q 1172 3119 1398 2916 
Q 1625 2713 2034 2713 
Q 2441 2713 2670 2916 
Q 2900 3119 2900 3481 
Q 2900 3844 2670 4047 
Q 2441 4250 2034 4250 
Q 1625 4250 1398 4047 
Q 1172 3844 1172 3481 
z
" transform="scale(0.015625)"/>
      <path id="DejaVuSans-34" d="M 2419 4116 
L 825 1625 
L 2419 1625 
L 2419 4116 
z
M 2253 4666 
L 3047 4666 
L 3047 1625 
L 3713 1625 
L 3713 1100 
L 3047 1100 
L 3047 0 
L 2419 0 
L 2419 1100 
L 313 1100 
L 313 1709 
L 2253 4666 
z
" transform="scale(0.015625)"/>
      <path id="DejaVuSans-37" d="M 525 4666 
L 3525 4666 
L 3525 4397 
L 1831 0 
L 1172 0 
L 2766 4134 
L 525 4134 
L 525 4666 
z
" transform="scale(0.015625)"/>
     </defs>
     <use xlink:href="#DejaVuSans-38"/>
     <use xlink:href="#DejaVuSans-34" x="63.623047"/>
     <use xlink:href="#DejaVuSans-33" x="127.246094"/>
     <use xlink:href="#DejaVuSans-37" x="190.869141"/>
    </g>
   </g>
   <g id="text_3">
    <!-- 6325 -->
    <g style="fill: #262626" transform="translate(145.240764 174.46625)scale(0.12 -0.12)">
     <defs>
      <path id="DejaVuSans-36" d="M 2113 2584 
Q 1688 2584 1439 2293 
Q 1191 2003 1191 1497 
Q 1191 994 1439 701 
Q 1688 409 2113 409 
Q 2538 409 2786 701 
Q 3034 994 3034 1497 
Q 3034 2003 2786 2293 
Q 2538 2584 2113 2584 
z
M 3366 4563 
L 3366 3988 
Q 3128 4100 2886 4159 
Q 2644 4219 2406 4219 
Q 1781 4219 1451 3797 
Q 1122 3375 1075 2522 
Q 1259 2794 1537 2939 
Q 1816 3084 2150 3084 
Q 2853 3084 3261 2657 
Q 3669 2231 3669 1497 
Q 3669 778 3244 343 
Q 2819 -91 2113 -91 
Q 1303 -91 875 529 
Q 447 1150 447 2328 
Q 447 3434 972 4092 
Q 1497 4750 2381 4750 
Q 2619 4750 2861 4703 
Q 3103 4656 3366 4563 
z
" transform="scale(0.015625)"/>
      <path id="DejaVuSans-32" d="M 1228 531 
L 3431 531 
L 3431 0 
L 469 0 
L 469 531 
Q 828 903 1448 1529 
Q 2069 2156 2228 2338 
Q 2531 2678 2651 2914 
Q 2772 3150 2772 3378 
Q 2772 3750 2511 3984 
Q 2250 4219 1831 4219 
Q 1534 4219 1204 4116 
Q 875 4013 500 3803 
L 500 4441 
Q 881 4594 1212 4672 
Q 1544 4750 1819 4750 
Q 2544 4750 2975 4387 
Q 3406 4025 3406 3419 
Q 3406 3131 3298 2873 
Q 3191 2616 2906 2266 
Q 2828 2175 2409 1742 
Q 1991 1309 1228 531 
z
" transform="scale(0.015625)"/>
     </defs>
     <use xlink:href="#DejaVuSans-36"/>
     <use xlink:href="#DejaVuSans-33" x="63.623047"/>
     <use xlink:href="#DejaVuSans-32" x="127.246094"/>
     <use xlink:href="#DejaVuSans-35" x="190.869141"/>
    </g>
   </g>
   <g id="text_4">
    <!-- ctl.00.bed -->
    <g style="fill: #262626" transform="translate(59.091424 293.074608)scale(0.144 -0.144)">
     <defs>
      <path id="DejaVuSans-63" d="M 3122 3366 
L 3122 2828 
Q 2878 2963 2633 3030 
Q 2388 3097 2138 3097 
Q 1578 3097 1268 2742 
Q 959 2388 959 1747 
Q 959 1106 1268 751 
Q 1578 397 2138 397 
Q 2388 397 2633 464 
Q 2878 531 3122 666 
L 3122 134 
Q 2881 22 2623 -34 
Q 2366 -91 2075 -91 
Q 1284 -91 818 406 
Q 353 903 353 1747 
Q 353 2603 823 3093 
Q 1294 3584 2113 3584 
Q 2378 3584 2631 3529 
Q 2884 3475 3122 3366 
z
" transform="scale(0.015625)"/>
      <path id="DejaVuSans-74" d="M 1172 4494 
L 1172 3500 
L 2356 3500 
L 2356 3053 
L 1172 3053 
L 1172 1153 
Q 1172 725 1289 603 
Q 1406 481 1766 481 
L 2356 481 
L 2356 0 
L 1766 0 
Q 1100 0 847 248 
Q 594 497 594 1153 
L 594 3053 
L 172 3053 
L 172 3500 
L 594 3500 
L 594 4494 
L 1172 4494 
z
" transform="scale(0.015625)"/>
      <path id="DejaVuSans-6c" d="M 603 4863 
L 1178 4863 
L 1178 0 
L 603 0 
L 603 4863 
z
" transform="scale(0.015625)"/>
      <path id="DejaVuSans-2e" d="M 684 794 
L 1344 794 
L 1344 0 
L 684 0 
L 684 794 
z
" transform="scale(0.015625)"/>
      <path id="DejaVuSans-62" d="M 3116 1747 
Q 3116 2381 2855 2742 
Q 2594 3103 2138 3103 
Q 1681 3103 1420 2742 
Q 1159 2381 1159 1747 
Q 1159 1113 1420 752 
Q 1681 391 2138 391 
Q 2594 391 2855 752 
Q 3116 1113 3116 1747 
z
M 1159 2969 
Q 1341 3281 1617 3432 
Q 1894 3584 2278 3584 
Q 2916 3584 3314 3078 
Q 3713 2572 3713 1747 
Q 3713 922 3314 415 
Q 2916 -91 2278 -91 
Q 1894 -91 1617 61 
Q 1341 213 1159 525 
L 1159 0 
L 581 0 
L 581 4863 
L 1159 4863 
L 1159 2969 
z
" transform="scale(0.015625)"/>
      <path id="DejaVuSans-65" d="M 3597 1894 
L 3597 1613 
L 953 1613 
Q 991 1019 1311 708 
Q 1631 397 2203 397 
Q 2534 397 2845 478 
Q 3156 559 3463 722 
L 3463 178 
Q 3153 47 2828 -22 
Q 2503 -91 2169 -91 
Q 1331 -91 842 396 
Q 353 884 353 1716 
Q 353 2575 817 3079 
Q 1281 3584 2069 3584 
Q 2775 3584 3186 3129 
Q 3597 2675 3597 1894 
z
M 3022 2063 
Q 3016 2534 2758 2815 
Q 2500 3097 2075 3097 
Q 1594 3097 1305 2825 
Q 1016 2553 972 2059 
L 3022 2063 
z
" transform="scale(0.015625)"/>
      <path id="DejaVuSans-64" d="M 2906 2969 
L 2906 4863 
L 3481 4863 
L 3481 0 
L 2906 0 
L 2906 525 
Q 2725 213 2448 61 
Q 2172 -91 1784 -91 
Q 1150 -91 751 415 
Q 353 922 353 1747 
Q 353 2572 751 3078 
Q 1150 3584 1784 3584 
Q 2172 3584 2448 3432 
Q 2725 3281 2906 2969 
z
M 947 1747 
Q 947 1113 1208 752 
Q 1469 391 1925 391 
Q 2381 391 2643 752 
Q 2906 1113 2906 1747 
Q 2906 2381 2643 2742 
Q 2381 3103 1925 3103 
Q 1469 3103 1208 2742 
Q 947 2381 947 1747 
z
" transform="scale(0.015625)"/>
     </defs>
     <use xlink:href="#DejaVuSans-63"/>
     <use xlink:href="#DejaVuSans-74" x="54.980469"/>
     <use xlink:href="#DejaVuSans-6c" x="94.189453"/>
     <use xlink:href="#DejaVuSans-2e" x="121.972656"/>
     <use xlink:href="#DejaVuSans-30" x="153.759766"/>
     <use xlink:href="#DejaVuSans-30" x="217.382812"/>
     <use xlink:href="#DejaVuSans-2e" x="281.005859"/>
     <use xlink:href="#DejaVuSans-62" x="312.792969"/>
     <use xlink:href="#DejaVuSans-65" x="376.269531"/>
     <use xlink:href="#DejaVuSans-64" x="437.792969"/>
    </g>
   </g>
   <g id="text_5">
    <!-- ifit3.00.bed -->
    <g style="fill: #262626" transform="translate(214.506557 317.83556)scale(0.144 -0.144)">
     <defs>
      <path id="DejaVuSans-69" d="M 603 3500 
L 1178 3500 
L 1178 0 
L 603 0 
L 603 3500 
z
M 603 4863 
L 1178 4863 
L 1178 4134 
L 603 4134 
L 603 4863 
z
" transform="scale(0.015625)"/>
      <path id="DejaVuSans-66" d="M 2375 4863 
L 2375 4384 
L 1825 4384 
Q 1516 4384 1395 4259 
Q 1275 4134 1275 3809 
L 1275 3500 
L 2222 3500 
L 2222 3053 
L 1275 3053 
L 1275 0 
L 697 0 
L 697 3053 
L 147 3053 
L 147 3500 
L 697 3500 
L 697 3744 
Q 697 4328 969 4595 
Q 1241 4863 1831 4863 
L 2375 4863 
z
" transform="scale(0.015625)"/>
     </defs>
     <use xlink:href="#DejaVuSans-69"/>
     <use xlink:href="#DejaVuSans-66" x="27.783203"/>
     <use xlink:href="#DejaVuSans-69" x="62.988281"/>
     <use xlink:href="#DejaVuSans-74" x="90.771484"/>
     <use xlink:href="#DejaVuSans-33" x="129.980469"/>
     <use xlink:href="#DejaVuSans-2e" x="193.603516"/>
     <use xlink:href="#DejaVuSans-30" x="225.390625"/>
     <use xlink:href="#DejaVuSans-30" x="289.013672"/>
     <use xlink:href="#DejaVuSans-2e" x="352.636719"/>
     <use xlink:href="#DejaVuSans-62" x="384.423828"/>
     <use xlink:href="#DejaVuSans-65" x="447.900391"/>
     <use xlink:href="#DejaVuSans-64" x="509.423828"/>
    </g>
   </g>
   <g id="text_6">
    <!-- All ≥1% edits expressed in all reps (n=3 per condition) -->
    <g style="fill: #262626" transform="translate(20.280153 16.318125)scale(0.12 -0.12)">
     <defs>
      <path id="DejaVuSans-41" d="M 2188 4044 
L 1331 1722 
L 3047 1722 
L 2188 4044 
z
M 1831 4666 
L 2547 4666 
L 4325 0 
L 3669 0 
L 3244 1197 
L 1141 1197 
L 716 0 
L 50 0 
L 1831 4666 
z
" transform="scale(0.015625)"/>
      <path id="DejaVuSans-20" transform="scale(0.015625)"/>
      <path id="DejaVuSans-2265" d="M 678 3175 
L 678 3725 
L 4684 2578 
L 4684 2047 
L 678 897 
L 678 1453 
L 3681 2309 
L 678 3175 
z
M 4684 531 
L 4684 0 
L 678 0 
L 678 531 
L 4684 531 
z
" transform="scale(0.015625)"/>
      <path id="DejaVuSans-25" d="M 4653 2053 
Q 4381 2053 4226 1822 
Q 4072 1591 4072 1178 
Q 4072 772 4226 539 
Q 4381 306 4653 306 
Q 4919 306 5073 539 
Q 5228 772 5228 1178 
Q 5228 1588 5073 1820 
Q 4919 2053 4653 2053 
z
M 4653 2450 
Q 5147 2450 5437 2106 
Q 5728 1763 5728 1178 
Q 5728 594 5436 251 
Q 5144 -91 4653 -91 
Q 4153 -91 3862 251 
Q 3572 594 3572 1178 
Q 3572 1766 3864 2108 
Q 4156 2450 4653 2450 
z
M 1428 4353 
Q 1159 4353 1004 4120 
Q 850 3888 850 3481 
Q 850 3069 1003 2837 
Q 1156 2606 1428 2606 
Q 1700 2606 1854 2837 
Q 2009 3069 2009 3481 
Q 2009 3884 1853 4118 
Q 1697 4353 1428 4353 
z
M 4250 4750 
L 4750 4750 
L 1831 -91 
L 1331 -91 
L 4250 4750 
z
M 1428 4750 
Q 1922 4750 2215 4408 
Q 2509 4066 2509 3481 
Q 2509 2891 2217 2550 
Q 1925 2209 1428 2209 
Q 931 2209 642 2551 
Q 353 2894 353 3481 
Q 353 4063 643 4406 
Q 934 4750 1428 4750 
z
" transform="scale(0.015625)"/>
      <path id="DejaVuSans-73" d="M 2834 3397 
L 2834 2853 
Q 2591 2978 2328 3040 
Q 2066 3103 1784 3103 
Q 1356 3103 1142 2972 
Q 928 2841 928 2578 
Q 928 2378 1081 2264 
Q 1234 2150 1697 2047 
L 1894 2003 
Q 2506 1872 2764 1633 
Q 3022 1394 3022 966 
Q 3022 478 2636 193 
Q 2250 -91 1575 -91 
Q 1294 -91 989 -36 
Q 684 19 347 128 
L 347 722 
Q 666 556 975 473 
Q 1284 391 1588 391 
Q 1994 391 2212 530 
Q 2431 669 2431 922 
Q 2431 1156 2273 1281 
Q 2116 1406 1581 1522 
L 1381 1569 
Q 847 1681 609 1914 
Q 372 2147 372 2553 
Q 372 3047 722 3315 
Q 1072 3584 1716 3584 
Q 2034 3584 2315 3537 
Q 2597 3491 2834 3397 
z
" transform="scale(0.015625)"/>
      <path id="DejaVuSans-78" d="M 3513 3500 
L 2247 1797 
L 3578 0 
L 2900 0 
L 1881 1375 
L 863 0 
L 184 0 
L 1544 1831 
L 300 3500 
L 978 3500 
L 1906 2253 
L 2834 3500 
L 3513 3500 
z
" transform="scale(0.015625)"/>
      <path id="DejaVuSans-70" d="M 1159 525 
L 1159 -1331 
L 581 -1331 
L 581 3500 
L 1159 3500 
L 1159 2969 
Q 1341 3281 1617 3432 
Q 1894 3584 2278 3584 
Q 2916 3584 3314 3078 
Q 3713 2572 3713 1747 
Q 3713 922 3314 415 
Q 2916 -91 2278 -91 
Q 1894 -91 1617 61 
Q 1341 213 1159 525 
z
M 3116 1747 
Q 3116 2381 2855 2742 
Q 2594 3103 2138 3103 
Q 1681 3103 1420 2742 
Q 1159 2381 1159 1747 
Q 1159 1113 1420 752 
Q 1681 391 2138 391 
Q 2594 391 2855 752 
Q 3116 1113 3116 1747 
z
" transform="scale(0.015625)"/>
      <path id="DejaVuSans-72" d="M 2631 2963 
Q 2534 3019 2420 3045 
Q 2306 3072 2169 3072 
Q 1681 3072 1420 2755 
Q 1159 2438 1159 1844 
L 1159 0 
L 581 0 
L 581 3500 
L 1159 3500 
L 1159 2956 
Q 1341 3275 1631 3429 
Q 1922 3584 2338 3584 
Q 2397 3584 2469 3576 
Q 2541 3569 2628 3553 
L 2631 2963 
z
" transform="scale(0.015625)"/>
      <path id="DejaVuSans-6e" d="M 3513 2113 
L 3513 0 
L 2938 0 
L 2938 2094 
Q 2938 2591 2744 2837 
Q 2550 3084 2163 3084 
Q 1697 3084 1428 2787 
Q 1159 2491 1159 1978 
L 1159 0 
L 581 0 
L 581 3500 
L 1159 3500 
L 1159 2956 
Q 1366 3272 1645 3428 
Q 1925 3584 2291 3584 
Q 2894 3584 3203 3211 
Q 3513 2838 3513 2113 
z
" transform="scale(0.015625)"/>
      <path id="DejaVuSans-61" d="M 2194 1759 
Q 1497 1759 1228 1600 
Q 959 1441 959 1056 
Q 959 750 1161 570 
Q 1363 391 1709 391 
Q 2188 391 2477 730 
Q 2766 1069 2766 1631 
L 2766 1759 
L 2194 1759 
z
M 3341 1997 
L 3341 0 
L 2766 0 
L 2766 531 
Q 2569 213 2275 61 
Q 1981 -91 1556 -91 
Q 1019 -91 701 211 
Q 384 513 384 1019 
Q 384 1609 779 1909 
Q 1175 2209 1959 2209 
L 2766 2209 
L 2766 2266 
Q 2766 2663 2505 2880 
Q 2244 3097 1772 3097 
Q 1472 3097 1187 3025 
Q 903 2953 641 2809 
L 641 3341 
Q 956 3463 1253 3523 
Q 1550 3584 1831 3584 
Q 2591 3584 2966 3190 
Q 3341 2797 3341 1997 
z
" transform="scale(0.015625)"/>
      <path id="DejaVuSans-28" d="M 1984 4856 
Q 1566 4138 1362 3434 
Q 1159 2731 1159 2009 
Q 1159 1288 1364 580 
Q 1569 -128 1984 -844 
L 1484 -844 
Q 1016 -109 783 600 
Q 550 1309 550 2009 
Q 550 2706 781 3412 
Q 1013 4119 1484 4856 
L 1984 4856 
z
" transform="scale(0.015625)"/>
      <path id="DejaVuSans-3d" d="M 678 2906 
L 4684 2906 
L 4684 2381 
L 678 2381 
L 678 2906 
z
M 678 1631 
L 4684 1631 
L 4684 1100 
L 678 1100 
L 678 1631 
z
" transform="scale(0.015625)"/>
      <path id="DejaVuSans-6f" d="M 1959 3097 
Q 1497 3097 1228 2736 
Q 959 2375 959 1747 
Q 959 1119 1226 758 
Q 1494 397 1959 397 
Q 2419 397 2687 759 
Q 2956 1122 2956 1747 
Q 2956 2369 2687 2733 
Q 2419 3097 1959 3097 
z
M 1959 3584 
Q 2709 3584 3137 3096 
Q 3566 2609 3566 1747 
Q 3566 888 3137 398 
Q 2709 -91 1959 -91 
Q 1206 -91 779 398 
Q 353 888 353 1747 
Q 353 2609 779 3096 
Q 1206 3584 1959 3584 
z
" transform="scale(0.015625)"/>
      <path id="DejaVuSans-29" d="M 513 4856 
L 1013 4856 
Q 1481 4119 1714 3412 
Q 1947 2706 1947 2009 
Q 1947 1309 1714 600 
Q 1481 -109 1013 -844 
L 513 -844 
Q 928 -128 1133 580 
Q 1338 1288 1338 2009 
Q 1338 2731 1133 3434 
Q 928 4138 513 4856 
z
" transform="scale(0.015625)"/>
     </defs>
     <use xlink:href="#DejaVuSans-41"/>
     <use xlink:href="#DejaVuSans-6c" x="68.408203"/>
     <use xlink:href="#DejaVuSans-6c" x="96.191406"/>
     <use xlink:href="#DejaVuSans-20" x="123.974609"/>
     <use xlink:href="#DejaVuSans-2265" x="155.761719"/>
     <use xlink:href="#DejaVuSans-31" x="239.550781"/>
     <use xlink:href="#DejaVuSans-25" x="303.173828"/>
     <use xlink:href="#DejaVuSans-20" x="398.193359"/>
     <use xlink:href="#DejaVuSans-65" x="429.980469"/>
     <use xlink:href="#DejaVuSans-64" x="491.503906"/>
     <use xlink:href="#DejaVuSans-69" x="554.980469"/>
     <use xlink:href="#DejaVuSans-74" x="582.763672"/>
     <use xlink:href="#DejaVuSans-73" x="621.972656"/>
     <use xlink:href="#DejaVuSans-20" x="674.072266"/>
     <use xlink:href="#DejaVuSans-65" x="705.859375"/>
     <use xlink:href="#DejaVuSans-78" x="765.632812"/>
     <use xlink:href="#DejaVuSans-70" x="824.8125"/>
     <use xlink:href="#DejaVuSans-72" x="888.289062"/>
     <use xlink:href="#DejaVuSans-65" x="927.152344"/>
     <use xlink:href="#DejaVuSans-73" x="988.675781"/>
     <use xlink:href="#DejaVuSans-73" x="1040.775391"/>
     <use xlink:href="#DejaVuSans-65" x="1092.875"/>
     <use xlink:href="#DejaVuSans-64" x="1154.398438"/>
     <use xlink:href="#DejaVuSans-20" x="1217.875"/>
     <use xlink:href="#DejaVuSans-69" x="1249.662109"/>
     <use xlink:href="#DejaVuSans-6e" x="1277.445312"/>
     <use xlink:href="#DejaVuSans-20" x="1340.824219"/>
     <use xlink:href="#DejaVuSans-61" x="1372.611328"/>
     <use xlink:href="#DejaVuSans-6c" x="1433.890625"/>
     <use xlink:href="#DejaVuSans-6c" x="1461.673828"/>
     <use xlink:href="#DejaVuSans-20" x="1489.457031"/>
     <use xlink:href="#DejaVuSans-72" x="1521.244141"/>
     <use xlink:href="#DejaVuSans-65" x="1560.107422"/>
     <use xlink:href="#DejaVuSans-70" x="1621.630859"/>
     <use xlink:href="#DejaVuSans-73" x="1685.107422"/>
     <use xlink:href="#DejaVuSans-20" x="1737.207031"/>
     <use xlink:href="#DejaVuSans-28" x="1768.994141"/>
     <use xlink:href="#DejaVuSans-6e" x="1808.007812"/>
     <use xlink:href="#DejaVuSans-3d" x="1871.386719"/>
     <use xlink:href="#DejaVuSans-33" x="1955.175781"/>
     <use xlink:href="#DejaVuSans-20" x="2018.798828"/>
     <use xlink:href="#DejaVuSans-70" x="2050.585938"/>
     <use xlink:href="#DejaVuSans-65" x="2114.0625"/>
     <use xlink:href="#DejaVuSans-72" x="2175.585938"/>
     <use xlink:href="#DejaVuSans-20" x="2216.699219"/>
     <use xlink:href="#DejaVuSans-63" x="2248.486328"/>
     <use xlink:href="#DejaVuSans-6f" x="2303.466797"/>
     <use xlink:href="#DejaVuSans-6e" x="2364.648438"/>
     <use xlink:href="#DejaVuSans-64" x="2428.027344"/>
     <use xlink:href="#DejaVuSans-69" x="2491.503906"/>
     <use xlink:href="#DejaVuSans-74" x="2519.287109"/>
     <use xlink:href="#DejaVuSans-69" x="2558.496094"/>
     <use xlink:href="#DejaVuSans-6f" x="2586.279297"/>
     <use xlink:href="#DejaVuSans-6e" x="2647.460938"/>
     <use xlink:href="#DejaVuSans-29" x="2710.839844"/>
    </g>
   </g>
  </g>
  <g id="axes_2">
   <g id="patch_5">
    <path d="M 452.753906 319.991875 
L 878.588052 319.991875 
L 878.588052 22.318125 
L 452.753906 22.318125 
z
" style="fill: #ffffff"/>
   </g>
   <g id="matplotlib.axis_1">
    <g id="xtick_1">
     <g id="text_7">
      <!-- ADAR-Ctl_only -->
      <g style="fill: #262626" transform="translate(466.824893 337.850156)scale(0.11 -0.11)">
       <defs>
        <path id="DejaVuSans-44" d="M 1259 4147 
L 1259 519 
L 2022 519 
Q 2988 519 3436 956 
Q 3884 1394 3884 2338 
Q 3884 3275 3436 3711 
Q 2988 4147 2022 4147 
L 1259 4147 
z
M 628 4666 
L 1925 4666 
Q 3281 4666 3915 4102 
Q 4550 3538 4550 2338 
Q 4550 1131 3912 565 
Q 3275 0 1925 0 
L 628 0 
L 628 4666 
z
" transform="scale(0.015625)"/>
        <path id="DejaVuSans-52" d="M 2841 2188 
Q 3044 2119 3236 1894 
Q 3428 1669 3622 1275 
L 4263 0 
L 3584 0 
L 2988 1197 
Q 2756 1666 2539 1819 
Q 2322 1972 1947 1972 
L 1259 1972 
L 1259 0 
L 628 0 
L 628 4666 
L 2053 4666 
Q 2853 4666 3247 4331 
Q 3641 3997 3641 3322 
Q 3641 2881 3436 2590 
Q 3231 2300 2841 2188 
z
M 1259 4147 
L 1259 2491 
L 2053 2491 
Q 2509 2491 2742 2702 
Q 2975 2913 2975 3322 
Q 2975 3731 2742 3939 
Q 2509 4147 2053 4147 
L 1259 4147 
z
" transform="scale(0.015625)"/>
        <path id="DejaVuSans-2d" d="M 313 2009 
L 1997 2009 
L 1997 1497 
L 313 1497 
L 313 2009 
z
" transform="scale(0.015625)"/>
        <path id="DejaVuSans-43" d="M 4122 4306 
L 4122 3641 
Q 3803 3938 3442 4084 
Q 3081 4231 2675 4231 
Q 1875 4231 1450 3742 
Q 1025 3253 1025 2328 
Q 1025 1406 1450 917 
Q 1875 428 2675 428 
Q 3081 428 3442 575 
Q 3803 722 4122 1019 
L 4122 359 
Q 3791 134 3420 21 
Q 3050 -91 2638 -91 
Q 1578 -91 968 557 
Q 359 1206 359 2328 
Q 359 3453 968 4101 
Q 1578 4750 2638 4750 
Q 3056 4750 3426 4639 
Q 3797 4528 4122 4306 
z
" transform="scale(0.015625)"/>
        <path id="DejaVuSans-5f" d="M 3263 -1063 
L 3263 -1509 
L -63 -1509 
L -63 -1063 
L 3263 -1063 
z
" transform="scale(0.015625)"/>
        <path id="DejaVuSans-79" d="M 2059 -325 
Q 1816 -950 1584 -1140 
Q 1353 -1331 966 -1331 
L 506 -1331 
L 506 -850 
L 844 -850 
Q 1081 -850 1212 -737 
Q 1344 -625 1503 -206 
L 1606 56 
L 191 3500 
L 800 3500 
L 1894 763 
L 2988 3500 
L 3597 3500 
L 2059 -325 
z
" transform="scale(0.015625)"/>
       </defs>
       <use xlink:href="#DejaVuSans-41"/>
       <use xlink:href="#DejaVuSans-44" x="68.408203"/>
       <use xlink:href="#DejaVuSans-41" x="143.660156"/>
       <use xlink:href="#DejaVuSans-52" x="212.068359"/>
       <use xlink:href="#DejaVuSans-2d" x="277.550781"/>
       <use xlink:href="#DejaVuSans-43" x="313.634766"/>
       <use xlink:href="#DejaVuSans-74" x="383.458984"/>
       <use xlink:href="#DejaVuSans-6c" x="422.667969"/>
       <use xlink:href="#DejaVuSans-5f" x="450.451172"/>
       <use xlink:href="#DejaVuSans-6f" x="500.451172"/>
       <use xlink:href="#DejaVuSans-6e" x="561.632812"/>
       <use xlink:href="#DejaVuSans-6c" x="625.011719"/>
       <use xlink:href="#DejaVuSans-79" x="652.794922"/>
      </g>
     </g>
    </g>
    <g id="xtick_2">
     <g id="text_8">
      <!-- ADAR-Ctl_shared -->
      <g style="fill: #262626" transform="translate(566.183273 337.850156)scale(0.11 -0.11)">
       <defs>
        <path id="DejaVuSans-68" d="M 3513 2113 
L 3513 0 
L 2938 0 
L 2938 2094 
Q 2938 2591 2744 2837 
Q 2550 3084 2163 3084 
Q 1697 3084 1428 2787 
Q 1159 2491 1159 1978 
L 1159 0 
L 581 0 
L 581 4863 
L 1159 4863 
L 1159 2956 
Q 1366 3272 1645 3428 
Q 1925 3584 2291 3584 
Q 2894 3584 3203 3211 
Q 3513 2838 3513 2113 
z
" transform="scale(0.015625)"/>
       </defs>
       <use xlink:href="#DejaVuSans-41"/>
       <use xlink:href="#DejaVuSans-44" x="68.408203"/>
       <use xlink:href="#DejaVuSans-41" x="143.660156"/>
       <use xlink:href="#DejaVuSans-52" x="212.068359"/>
       <use xlink:href="#DejaVuSans-2d" x="277.550781"/>
       <use xlink:href="#DejaVuSans-43" x="313.634766"/>
       <use xlink:href="#DejaVuSans-74" x="383.458984"/>
       <use xlink:href="#DejaVuSans-6c" x="422.667969"/>
       <use xlink:href="#DejaVuSans-5f" x="450.451172"/>
       <use xlink:href="#DejaVuSans-73" x="500.451172"/>
       <use xlink:href="#DejaVuSans-68" x="552.550781"/>
       <use xlink:href="#DejaVuSans-61" x="615.929688"/>
       <use xlink:href="#DejaVuSans-72" x="677.208984"/>
       <use xlink:href="#DejaVuSans-65" x="716.072266"/>
       <use xlink:href="#DejaVuSans-64" x="777.595703"/>
      </g>
     </g>
    </g>
    <g id="xtick_3">
     <g id="text_9">
      <!-- IFIT3-ADAR_shared -->
      <g style="fill: #262626" transform="translate(666.803216 337.850156)scale(0.11 -0.11)">
       <defs>
        <path id="DejaVuSans-49" d="M 628 4666 
L 1259 4666 
L 1259 0 
L 628 0 
L 628 4666 
z
" transform="scale(0.015625)"/>
        <path id="DejaVuSans-46" d="M 628 4666 
L 3309 4666 
L 3309 4134 
L 1259 4134 
L 1259 2759 
L 3109 2759 
L 3109 2228 
L 1259 2228 
L 1259 0 
L 628 0 
L 628 4666 
z
" transform="scale(0.015625)"/>
        <path id="DejaVuSans-54" d="M -19 4666 
L 3928 4666 
L 3928 4134 
L 2272 4134 
L 2272 0 
L 1638 0 
L 1638 4134 
L -19 4134 
L -19 4666 
z
" transform="scale(0.015625)"/>
       </defs>
       <use xlink:href="#DejaVuSans-49"/>
       <use xlink:href="#DejaVuSans-46" x="29.492188"/>
       <use xlink:href="#DejaVuSans-49" x="87.011719"/>
       <use xlink:href="#DejaVuSans-54" x="116.503906"/>
       <use xlink:href="#DejaVuSans-33" x="177.587891"/>
       <use xlink:href="#DejaVuSans-2d" x="241.210938"/>
       <use xlink:href="#DejaVuSans-41" x="275.044922"/>
       <use xlink:href="#DejaVuSans-44" x="343.453125"/>
       <use xlink:href="#DejaVuSans-41" x="418.705078"/>
       <use xlink:href="#DejaVuSans-52" x="487.113281"/>
       <use xlink:href="#DejaVuSans-5f" x="556.595703"/>
       <use xlink:href="#DejaVuSans-73" x="606.595703"/>
       <use xlink:href="#DejaVuSans-68" x="658.695312"/>
       <use xlink:href="#DejaVuSans-61" x="722.074219"/>
       <use xlink:href="#DejaVuSans-72" x="783.353516"/>
       <use xlink:href="#DejaVuSans-65" x="822.216797"/>
       <use xlink:href="#DejaVuSans-64" x="883.740234"/>
      </g>
     </g>
    </g>
    <g id="xtick_4">
     <g id="text_10">
      <!-- IFIT3-ADAR_only -->
      <g style="fill: #262626" transform="translate(780.361909 337.850156)scale(0.11 -0.11)">
       <use xlink:href="#DejaVuSans-49"/>
       <use xlink:href="#DejaVuSans-46" x="29.492188"/>
       <use xlink:href="#DejaVuSans-49" x="87.011719"/>
       <use xlink:href="#DejaVuSans-54" x="116.503906"/>
       <use xlink:href="#DejaVuSans-33" x="177.587891"/>
       <use xlink:href="#DejaVuSans-2d" x="241.210938"/>
       <use xlink:href="#DejaVuSans-41" x="275.044922"/>
       <use xlink:href="#DejaVuSans-44" x="343.453125"/>
       <use xlink:href="#DejaVuSans-41" x="418.705078"/>
       <use xlink:href="#DejaVuSans-52" x="487.113281"/>
       <use xlink:href="#DejaVuSans-5f" x="556.595703"/>
       <use xlink:href="#DejaVuSans-6f" x="606.595703"/>
       <use xlink:href="#DejaVuSans-6e" x="667.777344"/>
       <use xlink:href="#DejaVuSans-6c" x="731.15625"/>
       <use xlink:href="#DejaVuSans-79" x="758.939453"/>
      </g>
     </g>
    </g>
   </g>
   <g id="matplotlib.axis_2">
    <g id="ytick_1">
     <g id="line2d_1">
      <path d="M 452.753906 310.08895 
L 878.588052 310.08895 
" clip-path="url(#p4b3371b1b8)" style="fill: none; stroke: #cccccc; stroke-linecap: round"/>
     </g>
     <g id="text_11">
      <!-- 0.0 -->
      <g style="fill: #262626" transform="translate(425.760468 314.268091)scale(0.11 -0.11)">
       <use xlink:href="#DejaVuSans-30"/>
       <use xlink:href="#DejaVuSans-2e" x="63.623047"/>
       <use xlink:href="#DejaVuSans-30" x="95.410156"/>
      </g>
     </g>
    </g>
    <g id="ytick_2">
     <g id="line2d_2">
      <path d="M 452.753906 275.207215 
L 878.588052 275.207215 
" clip-path="url(#p4b3371b1b8)" style="fill: none; stroke: #cccccc; stroke-linecap: round"/>
     </g>
     <g id="text_12">
      <!-- 0.1 -->
      <g style="fill: #262626" transform="translate(425.760468 279.386356)scale(0.11 -0.11)">
       <use xlink:href="#DejaVuSans-30"/>
       <use xlink:href="#DejaVuSans-2e" x="63.623047"/>
       <use xlink:href="#DejaVuSans-31" x="95.410156"/>
      </g>
     </g>
    </g>
    <g id="ytick_3">
     <g id="line2d_3">
      <path d="M 452.753906 240.32548 
L 878.588052 240.32548 
" clip-path="url(#p4b3371b1b8)" style="fill: none; stroke: #cccccc; stroke-linecap: round"/>
     </g>
     <g id="text_13">
      <!-- 0.2 -->
      <g style="fill: #262626" transform="translate(425.760468 244.504621)scale(0.11 -0.11)">
       <use xlink:href="#DejaVuSans-30"/>
       <use xlink:href="#DejaVuSans-2e" x="63.623047"/>
       <use xlink:href="#DejaVuSans-32" x="95.410156"/>
      </g>
     </g>
    </g>
    <g id="ytick_4">
     <g id="line2d_4">
      <path d="M 452.753906 205.443745 
L 878.588052 205.443745 
" clip-path="url(#p4b3371b1b8)" style="fill: none; stroke: #cccccc; stroke-linecap: round"/>
     </g>
     <g id="text_14">
      <!-- 0.3 -->
      <g style="fill: #262626" transform="translate(425.760468 209.622886)scale(0.11 -0.11)">
       <use xlink:href="#DejaVuSans-30"/>
       <use xlink:href="#DejaVuSans-2e" x="63.623047"/>
       <use xlink:href="#DejaVuSans-33" x="95.410156"/>
      </g>
     </g>
    </g>
    <g id="ytick_5">
     <g id="line2d_5">
      <path d="M 452.753906 170.562011 
L 878.588052 170.562011 
" clip-path="url(#p4b3371b1b8)" style="fill: none; stroke: #cccccc; stroke-linecap: round"/>
     </g>
     <g id="text_15">
      <!-- 0.4 -->
      <g style="fill: #262626" transform="translate(425.760468 174.741151)scale(0.11 -0.11)">
       <use xlink:href="#DejaVuSans-30"/>
       <use xlink:href="#DejaVuSans-2e" x="63.623047"/>
       <use xlink:href="#DejaVuSans-34" x="95.410156"/>
      </g>
     </g>
    </g>
    <g id="ytick_6">
     <g id="line2d_6">
      <path d="M 452.753906 135.680276 
L 878.588052 135.680276 
" clip-path="url(#p4b3371b1b8)" style="fill: none; stroke: #cccccc; stroke-linecap: round"/>
     </g>
     <g id="text_16">
      <!-- 0.5 -->
      <g style="fill: #262626" transform="translate(425.760468 139.859416)scale(0.11 -0.11)">
       <use xlink:href="#DejaVuSans-30"/>
       <use xlink:href="#DejaVuSans-2e" x="63.623047"/>
       <use xlink:href="#DejaVuSans-35" x="95.410156"/>
      </g>
     </g>
    </g>
    <g id="ytick_7">
     <g id="line2d_7">
      <path d="M 452.753906 100.798541 
L 878.588052 100.798541 
" clip-path="url(#p4b3371b1b8)" style="fill: none; stroke: #cccccc; stroke-linecap: round"/>
     </g>
     <g id="text_17">
      <!-- 0.6 -->
      <g style="fill: #262626" transform="translate(425.760468 104.977681)scale(0.11 -0.11)">
       <use xlink:href="#DejaVuSans-30"/>
       <use xlink:href="#DejaVuSans-2e" x="63.623047"/>
       <use xlink:href="#DejaVuSans-36" x="95.410156"/>
      </g>
     </g>
    </g>
    <g id="ytick_8">
     <g id="line2d_8">
      <path d="M 452.753906 65.916806 
L 878.588052 65.916806 
" clip-path="url(#p4b3371b1b8)" style="fill: none; stroke: #cccccc; stroke-linecap: round"/>
     </g>
     <g id="text_18">
      <!-- 0.7 -->
      <g style="fill: #262626" transform="translate(425.760468 70.095946)scale(0.11 -0.11)">
       <use xlink:href="#DejaVuSans-30"/>
       <use xlink:href="#DejaVuSans-2e" x="63.623047"/>
       <use xlink:href="#DejaVuSans-37" x="95.410156"/>
      </g>
     </g>
    </g>
    <g id="ytick_9">
     <g id="line2d_9">
      <path d="M 452.753906 31.035071 
L 878.588052 31.035071 
" clip-path="url(#p4b3371b1b8)" style="fill: none; stroke: #cccccc; stroke-linecap: round"/>
     </g>
     <g id="text_19">
      <!-- 0.8 -->
      <g style="fill: #262626" transform="translate(425.760468 35.214211)scale(0.11 -0.11)">
       <use xlink:href="#DejaVuSans-30"/>
       <use xlink:href="#DejaVuSans-2e" x="63.623047"/>
       <use xlink:href="#DejaVuSans-38" x="95.410156"/>
      </g>
     </g>
    </g>
    <g id="text_20">
     <!-- A:I edit ratio -->
     <g style="fill: #262626" transform="translate(419.264843 208.113125)rotate(-90)scale(0.12 -0.12)">
      <defs>
       <path id="DejaVuSans-3a" d="M 750 794 
L 1409 794 
L 1409 0 
L 750 0 
L 750 794 
z
M 750 3309 
L 1409 3309 
L 1409 2516 
L 750 2516 
L 750 3309 
z
" transform="scale(0.015625)"/>
      </defs>
      <use xlink:href="#DejaVuSans-41"/>
      <use xlink:href="#DejaVuSans-3a" x="66.658203"/>
      <use xlink:href="#DejaVuSans-49" x="100.349609"/>
      <use xlink:href="#DejaVuSans-20" x="129.841797"/>
      <use xlink:href="#DejaVuSans-65" x="161.628906"/>
      <use xlink:href="#DejaVuSans-64" x="223.152344"/>
      <use xlink:href="#DejaVuSans-69" x="286.628906"/>
      <use xlink:href="#DejaVuSans-74" x="314.412109"/>
      <use xlink:href="#DejaVuSans-20" x="353.621094"/>
      <use xlink:href="#DejaVuSans-72" x="385.408203"/>
      <use xlink:href="#DejaVuSans-61" x="426.521484"/>
      <use xlink:href="#DejaVuSans-74" x="487.800781"/>
      <use xlink:href="#DejaVuSans-69" x="527.009766"/>
      <use xlink:href="#DejaVuSans-6f" x="554.792969"/>
     </g>
    </g>
   </g>
   <g id="PolyCollection_1">
    <defs>
     <path id="m603f6df480" d="M 529.826241 -41.287145 
L 482.140107 -41.287145 
L 477.926223 -43.913493 
L 475.023841 -46.539841 
L 473.697293 -49.166189 
L 473.856401 -51.792537 
L 475.139942 -54.418885 
L 477.080178 -57.045233 
L 479.262279 -59.671581 
L 481.414519 -62.297929 
L 483.415118 -64.924277 
L 485.243925 -67.550625 
L 486.921563 -70.176973 
L 488.467393 -72.803321 
L 489.885773 -75.429669 
L 491.172421 -78.056017 
L 492.326296 -80.682365 
L 493.35624 -83.308713 
L 494.279635 -85.935061 
L 495.116575 -88.561409 
L 495.884518 -91.187757 
L 496.595983 -93.814105 
L 497.258668 -96.440453 
L 497.875944 -99.066801 
L 498.446663 -101.693149 
L 498.965219 -104.319497 
L 499.423617 -106.945845 
L 499.815927 -109.572193 
L 500.142948 -112.198541 
L 500.413611 -114.824889 
L 500.641286 -117.451237 
L 500.836823 -120.077585 
L 501.003023 -122.703933 
L 501.134512 -125.330281 
L 501.223187 -127.956629 
L 501.26529 -130.582977 
L 501.265188 -133.209325 
L 501.233698 -135.835673 
L 501.18291 -138.462021 
L 501.121707 -141.088369 
L 501.05497 -143.714717 
L 500.986239 -146.341065 
L 500.921206 -148.967413 
L 500.869416 -151.593761 
L 500.84342 -154.220109 
L 500.856374 -156.846457 
L 500.9194 -159.472805 
L 501.039362 -162.099153 
L 501.217135 -164.725501 
L 501.446666 -167.351849 
L 501.715511 -169.978197 
L 502.007267 -172.604545 
L 502.305307 -175.230893 
L 502.596345 -177.857242 
L 502.872517 -180.48359 
L 503.13162 -183.109938 
L 503.376063 -185.736286 
L 503.611238 -188.362634 
L 503.843572 -190.988982 
L 504.078279 -193.61533 
L 504.317132 -196.241678 
L 504.557021 -198.868026 
L 504.790138 -201.494374 
L 505.006026 -204.120722 
L 505.194816 -206.74707 
L 505.350367 -209.373418 
L 505.472007 -211.999766 
L 505.564197 -214.626114 
L 505.634337 -217.252462 
L 505.689731 -219.87881 
L 505.73514 -222.505158 
L 505.771994 -225.131506 
L 505.799457 -227.757854 
L 505.816498 -230.384202 
L 505.823646 -233.01055 
L 505.823466 -235.636898 
L 505.819709 -238.263246 
L 505.815903 -240.889594 
L 505.814328 -243.515942 
L 505.815857 -246.14229 
L 505.820483 -248.768638 
L 505.827976 -251.394986 
L 505.838217 -254.021334 
L 505.851123 -256.647682 
L 505.866403 -259.27403 
L 505.883399 -261.900378 
L 505.901143 -264.526726 
L 505.918545 -267.153074 
L 505.934592 -269.779422 
L 505.94848 -272.40577 
L 505.95968 -275.032118 
L 505.967949 -277.658466 
L 505.973291 -280.284814 
L 505.975877 -282.911162 
L 505.975968 -285.53751 
L 505.973898 -288.163858 
L 505.970155 -290.790206 
L 505.965485 -293.416554 
L 505.960909 -296.042902 
L 505.957554 -298.66925 
L 505.956324 -301.295598 
L 506.010024 -301.295598 
L 506.010024 -301.295598 
L 506.008794 -298.66925 
L 506.005439 -296.042902 
L 506.000863 -293.416554 
L 505.996193 -290.790206 
L 505.99245 -288.163858 
L 505.99038 -285.53751 
L 505.990471 -282.911162 
L 505.993057 -280.284814 
L 505.998399 -277.658466 
L 506.006668 -275.032118 
L 506.017868 -272.40577 
L 506.031757 -269.779422 
L 506.047804 -267.153074 
L 506.065205 -264.526726 
L 506.082949 -261.900378 
L 506.099945 -259.27403 
L 506.115225 -256.647682 
L 506.128131 -254.021334 
L 506.138372 -251.394986 
L 506.145866 -248.768638 
L 506.150492 -246.14229 
L 506.15202 -243.515942 
L 506.150445 -240.889594 
L 506.146639 -238.263246 
L 506.142882 -235.636898 
L 506.142702 -233.01055 
L 506.14985 -230.384202 
L 506.166891 -227.757854 
L 506.194354 -225.131506 
L 506.231208 -222.505158 
L 506.276617 -219.87881 
L 506.332011 -217.252462 
L 506.402151 -214.626114 
L 506.494342 -211.999766 
L 506.615981 -209.373418 
L 506.771532 -206.74707 
L 506.960323 -204.120722 
L 507.176211 -201.494374 
L 507.409328 -198.868026 
L 507.649217 -196.241678 
L 507.88807 -193.61533 
L 508.122777 -190.988982 
L 508.35511 -188.362634 
L 508.590285 -185.736286 
L 508.834729 -183.109938 
L 509.093831 -180.48359 
L 509.370004 -177.857242 
L 509.661042 -175.230893 
L 509.959081 -172.604545 
L 510.250838 -169.978197 
L 510.519682 -167.351849 
L 510.749213 -164.725501 
L 510.926987 -162.099153 
L 511.046949 -159.472805 
L 511.109974 -156.846457 
L 511.122928 -154.220109 
L 511.096933 -151.593761 
L 511.045143 -148.967413 
L 510.98011 -146.341065 
L 510.911379 -143.714717 
L 510.844642 -141.088369 
L 510.783439 -138.462021 
L 510.73265 -135.835673 
L 510.70116 -133.209325 
L 510.701059 -130.582977 
L 510.743161 -127.956629 
L 510.831837 -125.330281 
L 510.963326 -122.703933 
L 511.129526 -120.077585 
L 511.325063 -117.451237 
L 511.552737 -114.824889 
L 511.823401 -112.198541 
L 512.150421 -109.572193 
L 512.542731 -106.945845 
L 513.001129 -104.319497 
L 513.519685 -101.693149 
L 514.090404 -99.066801 
L 514.707681 -96.440453 
L 515.370366 -93.814105 
L 516.08183 -91.187757 
L 516.849773 -88.561409 
L 517.686714 -85.935061 
L 518.610108 -83.308713 
L 519.640052 -80.682365 
L 520.793927 -78.056017 
L 522.080575 -75.429669 
L 523.498956 -72.803321 
L 525.044785 -70.176973 
L 526.722423 -67.550625 
L 528.55123 -64.924277 
L 530.551829 -62.297929 
L 532.704069 -59.671581 
L 534.886171 -57.045233 
L 536.826406 -54.418885 
L 538.109947 -51.792537 
L 538.269055 -49.166189 
L 536.942507 -46.539841 
L 534.040126 -43.913493 
L 529.826241 -41.287145 
z
" style="stroke: #595959; stroke-width: 1.5"/>
    </defs>
    <g clip-path="url(#p4b3371b1b8)">
     <use xlink:href="#m603f6df480" x="0" y="347.64375" style="fill: #72b6a1; stroke: #595959; stroke-width: 1.5"/>
    </g>
   </g>
   <g id="PolyCollection_2">
    <defs>
     <path id="m87a137c154" d="M 627.667033 -41.356909 
L 597.216388 -41.356909 
L 593.303443 -42.697918 
L 589.498165 -44.038927 
L 586.105391 -45.379935 
L 583.366113 -46.720944 
L 581.415209 -48.061953 
L 580.269537 -49.402962 
L 579.845573 -50.743971 
L 579.995587 -52.08498 
L 580.547576 -53.425989 
L 581.337405 -54.766998 
L 582.228429 -56.108007 
L 583.120141 -57.449016 
L 583.949931 -58.790025 
L 584.691079 -60.131034 
L 585.347647 -61.472043 
L 585.945729 -62.813051 
L 586.521491 -64.15406 
L 587.108586 -65.495069 
L 587.728655 -66.836078 
L 588.387611 -68.177087 
L 589.07761 -69.518096 
L 589.78219 -70.859105 
L 590.481459 -72.200114 
L 591.155635 -73.541123 
L 591.787263 -74.882132 
L 592.363334 -76.223141 
L 592.877782 -77.56415 
L 593.333292 -78.905159 
L 593.74063 -80.246167 
L 594.114607 -81.587176 
L 594.467927 -82.928185 
L 594.805909 -84.269194 
L 595.125008 -85.610203 
L 595.416121 -86.951212 
L 595.67101 -88.292221 
L 595.888563 -89.63323 
L 596.077973 -90.974239 
L 596.257721 -92.315248 
L 596.451246 -93.656257 
L 596.681243 -94.997266 
L 596.964448 -96.338275 
L 597.308128 -97.679283 
L 597.708902 -99.020292 
L 598.154136 -100.361301 
L 598.625666 -101.70231 
L 599.104945 -103.043319 
L 599.577996 -104.384328 
L 600.038324 -105.725337 
L 600.48658 -107.066346 
L 600.927149 -108.407355 
L 601.363303 -109.748364 
L 601.793317 -111.089373 
L 602.209466 -112.430382 
L 602.600302 -113.771391 
L 602.954865 -115.112399 
L 603.26658 -116.453408 
L 603.53499 -117.794417 
L 603.764913 -119.135426 
L 603.964053 -120.476435 
L 604.140644 -121.817444 
L 604.302181 -123.158453 
L 604.455324 -124.499462 
L 604.606394 -125.840471 
L 604.761868 -127.18148 
L 604.928611 -128.522489 
L 605.113877 -129.863498 
L 605.325047 -131.204506 
L 605.568954 -132.545515 
L 605.850653 -133.886524 
L 606.171773 -135.227533 
L 606.528961 -136.568542 
L 606.913207 -137.909551 
L 607.31072 -139.25056 
L 607.705532 -140.591569 
L 608.083183 -141.932578 
L 608.434128 -143.273587 
L 608.755406 -144.614596 
L 609.04982 -145.955605 
L 609.323084 -147.296614 
L 609.580418 -148.637622 
L 609.82427 -149.978631 
L 610.054107 -151.31964 
L 610.268046 -152.660649 
L 610.465178 -154.001658 
L 610.64722 -155.342667 
L 610.818651 -156.683676 
L 610.985308 -158.024685 
L 611.152156 -159.365694 
L 611.321267 -160.706703 
L 611.490874 -162.047712 
L 611.655859 -163.388721 
L 611.80942 -164.72973 
L 611.945221 -166.070738 
L 612.059179 -167.411747 
L 612.150315 -168.752756 
L 612.220516 -170.093765 
L 612.273506 -171.434774 
L 612.313558 -172.775783 
L 612.34444 -174.116792 
L 612.538981 -174.116792 
L 612.538981 -174.116792 
L 612.569863 -172.775783 
L 612.609915 -171.434774 
L 612.662905 -170.093765 
L 612.733106 -168.752756 
L 612.824243 -167.411747 
L 612.938201 -166.070738 
L 613.074002 -164.72973 
L 613.227563 -163.388721 
L 613.392547 -162.047712 
L 613.562154 -160.706703 
L 613.731266 -159.365694 
L 613.898114 -158.024685 
L 614.064771 -156.683676 
L 614.236202 -155.342667 
L 614.418243 -154.001658 
L 614.615375 -152.660649 
L 614.829315 -151.31964 
L 615.059152 -149.978631 
L 615.303004 -148.637622 
L 615.560337 -147.296614 
L 615.833601 -145.955605 
L 616.128016 -144.614596 
L 616.449294 -143.273587 
L 616.800238 -141.932578 
L 617.177889 -140.591569 
L 617.572701 -139.25056 
L 617.970214 -137.909551 
L 618.35446 -136.568542 
L 618.711649 -135.227533 
L 619.032768 -133.886524 
L 619.314468 -132.545515 
L 619.558375 -131.204506 
L 619.769545 -129.863498 
L 619.954811 -128.522489 
L 620.121554 -127.18148 
L 620.277027 -125.840471 
L 620.428098 -124.499462 
L 620.58124 -123.158453 
L 620.742777 -121.817444 
L 620.919369 -120.476435 
L 621.118509 -119.135426 
L 621.348431 -117.794417 
L 621.616841 -116.453408 
L 621.928557 -115.112399 
L 622.28312 -113.771391 
L 622.673955 -112.430382 
L 623.090104 -111.089373 
L 623.520118 -109.748364 
L 623.956272 -108.407355 
L 624.396841 -107.066346 
L 624.845097 -105.725337 
L 625.305425 -104.384328 
L 625.778476 -103.043319 
L 626.257755 -101.70231 
L 626.729285 -100.361301 
L 627.174519 -99.020292 
L 627.575294 -97.679283 
L 627.918973 -96.338275 
L 628.202178 -94.997266 
L 628.432176 -93.656257 
L 628.625701 -92.315248 
L 628.805449 -90.974239 
L 628.994859 -89.63323 
L 629.212412 -88.292221 
L 629.4673 -86.951212 
L 629.758414 -85.610203 
L 630.077512 -84.269194 
L 630.415494 -82.928185 
L 630.768815 -81.587176 
L 631.142791 -80.246167 
L 631.55013 -78.905159 
L 632.00564 -77.56415 
L 632.520087 -76.223141 
L 633.096159 -74.882132 
L 633.727787 -73.541123 
L 634.401963 -72.200114 
L 635.101232 -70.859105 
L 635.805812 -69.518096 
L 636.49581 -68.177087 
L 637.154766 -66.836078 
L 637.774836 -65.495069 
L 638.36193 -64.15406 
L 638.937693 -62.813051 
L 639.535774 -61.472043 
L 640.192343 -60.131034 
L 640.933491 -58.790025 
L 641.76328 -57.449016 
L 642.654992 -56.108007 
L 643.546017 -54.766998 
L 644.335845 -53.425989 
L 644.887835 -52.08498 
L 645.037848 -50.743971 
L 644.613885 -49.402962 
L 643.468213 -48.061953 
L 641.517309 -46.720944 
L 638.77803 -45.379935 
L 635.385257 -44.038927 
L 631.579978 -42.697918 
L 627.667033 -41.356909 
z
" style="stroke: #595959; stroke-width: 1.5"/>
    </defs>
    <g clip-path="url(#p4b3371b1b8)">
     <use xlink:href="#m87a137c154" x="0" y="347.64375" style="fill: #e99675; stroke: #595959; stroke-width: 1.5"/>
    </g>
   </g>
   <g id="PolyCollection_3">
    <defs>
     <path id="mf829ed9837" d="M 733.673474 -41.566199 
L 704.12702 -41.566199 
L 700.705885 -42.867746 
L 697.389456 -44.169293 
L 694.410755 -45.470839 
L 691.958901 -46.772386 
L 690.149083 -48.073933 
L 689.010239 -49.37548 
L 688.49175 -50.677026 
L 688.484988 -51.978573 
L 688.852213 -53.28012 
L 689.454858 -54.581667 
L 690.175006 -55.883213 
L 690.926905 -57.18476 
L 691.658588 -58.486307 
L 692.346158 -59.787854 
L 692.984571 -61.0894 
L 693.578614 -62.390947 
L 694.136491 -63.692494 
L 694.666684 -64.994041 
L 695.177302 -66.295587 
L 695.676419 -67.597134 
L 696.172086 -68.898681 
L 696.671413 -70.200228 
L 697.17892 -71.501775 
L 697.694892 -72.803321 
L 698.214518 -74.104868 
L 698.728302 -75.406415 
L 699.223709 -76.707962 
L 699.687609 -78.009508 
L 700.108823 -79.311055 
L 700.48018 -80.612602 
L 700.799725 -81.914149 
L 701.071034 -83.215695 
L 701.302752 -84.517242 
L 701.507506 -85.818789 
L 701.700286 -87.120336 
L 701.896318 -88.421882 
L 702.108619 -89.723429 
L 702.34565 -91.024976 
L 702.60977 -92.326523 
L 702.897187 -93.628069 
L 703.199682 -94.929616 
L 703.507631 -96.231163 
L 703.813202 -97.53271 
L 704.112436 -98.834256 
L 704.405497 -100.135803 
L 704.695307 -101.43735 
L 704.985578 -102.738897 
L 705.279388 -104.040443 
L 705.578889 -105.34199 
L 705.885862 -106.643537 
L 706.202316 -107.945084 
L 706.530386 -109.24663 
L 706.87143 -110.548177 
L 707.224881 -111.849724 
L 707.587709 -113.151271 
L 707.95495 -114.452818 
L 708.321099 -115.754364 
L 708.681587 -117.055911 
L 709.033503 -118.357458 
L 709.375254 -119.659005 
L 709.705522 -120.960551 
L 710.0223 -122.262098 
L 710.322706 -123.563645 
L 710.603742 -124.865192 
L 710.863587 -126.166738 
L 711.102741 -127.468285 
L 711.324441 -128.769832 
L 711.534208 -130.071379 
L 711.738728 -131.372925 
L 711.944514 -132.674472 
L 712.156699 -133.976019 
L 712.3782 -135.277566 
L 712.60933 -136.579112 
L 712.847929 -137.880659 
L 713.090025 -139.182206 
L 713.330973 -140.483753 
L 713.566854 -141.785299 
L 713.795737 -143.086846 
L 714.018413 -144.388393 
L 714.238318 -145.68994 
L 714.460658 -146.991486 
L 714.691017 -148.293033 
L 714.93388 -149.59458 
L 715.191515 -150.896127 
L 715.463442 -152.197674 
L 715.74656 -153.49922 
L 716.035774 -154.800767 
L 716.324916 -156.102314 
L 716.607741 -157.403861 
L 716.878813 -158.705407 
L 717.134128 -160.006954 
L 717.371388 -161.308501 
L 717.589866 -162.610048 
L 717.789941 -163.911594 
L 717.972449 -165.213141 
L 718.138074 -166.514688 
L 718.286986 -167.816235 
L 718.418812 -169.117781 
L 718.532916 -170.419328 
L 719.267579 -170.419328 
L 719.267579 -170.419328 
L 719.381682 -169.117781 
L 719.513508 -167.816235 
L 719.66242 -166.514688 
L 719.828046 -165.213141 
L 720.010554 -163.911594 
L 720.210629 -162.610048 
L 720.429107 -161.308501 
L 720.666366 -160.006954 
L 720.921681 -158.705407 
L 721.192753 -157.403861 
L 721.475578 -156.102314 
L 721.76472 -154.800767 
L 722.053934 -153.49922 
L 722.337053 -152.197674 
L 722.60898 -150.896127 
L 722.866614 -149.59458 
L 723.109477 -148.293033 
L 723.339836 -146.991486 
L 723.562177 -145.68994 
L 723.782082 -144.388393 
L 724.004758 -143.086846 
L 724.233641 -141.785299 
L 724.469522 -140.483753 
L 724.71047 -139.182206 
L 724.952565 -137.880659 
L 725.191164 -136.579112 
L 725.422295 -135.277566 
L 725.643796 -133.976019 
L 725.855981 -132.674472 
L 726.061766 -131.372925 
L 726.266286 -130.071379 
L 726.476053 -128.769832 
L 726.697754 -127.468285 
L 726.936907 -126.166738 
L 727.196752 -124.865192 
L 727.477788 -123.563645 
L 727.778194 -122.262098 
L 728.094972 -120.960551 
L 728.42524 -119.659005 
L 728.766991 -118.357458 
L 729.118907 -117.055911 
L 729.479395 -115.754364 
L 729.845545 -114.452818 
L 730.212786 -113.151271 
L 730.575614 -111.849724 
L 730.929065 -110.548177 
L 731.270108 -109.24663 
L 731.598179 -107.945084 
L 731.914633 -106.643537 
L 732.221606 -105.34199 
L 732.521106 -104.040443 
L 732.814917 -102.738897 
L 733.105187 -101.43735 
L 733.394997 -100.135803 
L 733.688059 -98.834256 
L 733.987293 -97.53271 
L 734.292864 -96.231163 
L 734.600813 -94.929616 
L 734.903307 -93.628069 
L 735.190724 -92.326523 
L 735.454845 -91.024976 
L 735.691876 -89.723429 
L 735.904177 -88.421882 
L 736.100208 -87.120336 
L 736.292988 -85.818789 
L 736.497743 -84.517242 
L 736.729461 -83.215695 
L 737.00077 -81.914149 
L 737.320314 -80.612602 
L 737.691671 -79.311055 
L 738.112886 -78.009508 
L 738.576786 -76.707962 
L 739.072193 -75.406415 
L 739.585976 -74.104868 
L 740.105603 -72.803321 
L 740.621574 -71.501775 
L 741.129081 -70.200228 
L 741.628408 -68.898681 
L 742.124076 -67.597134 
L 742.623193 -66.295587 
L 743.13381 -64.994041 
L 743.664003 -63.692494 
L 744.22188 -62.390947 
L 744.815924 -61.0894 
L 745.454337 -59.787854 
L 746.141906 -58.486307 
L 746.87359 -57.18476 
L 747.625489 -55.883213 
L 748.345637 -54.581667 
L 748.948282 -53.28012 
L 749.315506 -51.978573 
L 749.308744 -50.677026 
L 748.790256 -49.37548 
L 747.651411 -48.073933 
L 745.841594 -46.772386 
L 743.38974 -45.470839 
L 740.411039 -44.169293 
L 737.09461 -42.867746 
L 733.673474 -41.566199 
z
" style="stroke: #595959; stroke-width: 1.5"/>
    </defs>
    <g clip-path="url(#p4b3371b1b8)">
     <use xlink:href="#mf829ed9837" x="0" y="347.64375" style="fill: #95a3c3; stroke: #595959; stroke-width: 1.5"/>
    </g>
   </g>
   <g id="PolyCollection_4">
    <defs>
     <path id="m73ded5fdd2" d="M 853.369704 -41.1825 
L 797.347863 -41.1825 
L 789.658603 -43.91596 
L 784.519287 -46.649419 
L 782.775369 -49.382879 
L 784.114072 -52.116338 
L 787.452901 -54.849798 
L 791.599428 -57.583258 
L 795.705294 -60.316717 
L 799.357577 -63.050177 
L 802.451065 -65.783636 
L 805.031574 -68.517096 
L 807.192937 -71.250556 
L 809.025365 -73.984015 
L 810.597169 -76.717475 
L 811.957865 -79.450934 
L 813.148476 -82.184394 
L 814.205994 -84.917854 
L 815.160492 -87.651313 
L 816.031789 -90.384773 
L 816.829768 -93.118232 
L 817.556734 -95.851692 
L 818.209914 -98.585152 
L 818.784745 -101.318611 
L 819.27993 -104.052071 
L 819.70233 -106.78553 
L 820.067674 -109.51899 
L 820.395569 -112.252449 
L 820.702233 -114.985909 
L 820.995544 -117.719369 
L 821.274147 -120.452828 
L 821.530336 -123.186288 
L 821.756049 -125.919747 
L 821.94902 -128.653207 
L 822.113914 -131.386667 
L 822.256561 -134.120126 
L 822.376572 -136.853586 
L 822.46595 -139.587045 
L 822.515356 -142.320505 
L 822.522388 -145.053965 
L 822.495591 -147.787424 
L 822.452703 -150.520884 
L 822.414909 -153.254343 
L 822.399067 -155.987803 
L 822.410793 -158.721263 
L 822.442804 -161.454722 
L 822.480851 -164.188182 
L 822.513971 -166.921641 
L 822.542481 -169.655101 
L 822.579117 -172.388561 
L 822.643077 -175.12202 
L 822.75028 -177.85548 
L 822.905113 -180.588939 
L 823.098356 -183.322399 
L 823.311847 -186.055859 
L 823.52608 -188.789318 
L 823.726349 -191.522778 
L 823.905513 -194.256237 
L 824.063306 -196.989697 
L 824.20298 -199.723157 
L 824.327304 -202.456616 
L 824.436706 -205.190076 
L 824.530702 -207.923535 
L 824.610668 -210.656995 
L 824.680585 -213.390455 
L 824.744447 -216.123914 
L 824.80296 -218.857374 
L 824.853386 -221.590833 
L 824.892887 -224.324293 
L 824.921672 -227.057753 
L 824.942955 -229.791212 
L 824.960799 -232.524672 
L 824.978736 -235.258131 
L 824.999683 -237.991591 
L 825.025537 -240.725051 
L 825.055886 -243.45851 
L 825.087568 -246.19197 
L 825.11651 -248.925429 
L 825.140719 -251.658889 
L 825.161656 -254.392348 
L 825.182583 -257.125808 
L 825.205478 -259.859268 
L 825.229328 -262.592727 
L 825.251 -265.326187 
L 825.267361 -268.059646 
L 825.276715 -270.793106 
L 825.279007 -273.526566 
L 825.275508 -276.260025 
L 825.268577 -278.993485 
L 825.261345 -281.726944 
L 825.256981 -284.460404 
L 825.257663 -287.193864 
L 825.263723 -289.927323 
L 825.27354 -292.660783 
L 825.28441 -295.394242 
L 825.293991 -298.127702 
L 825.301401 -300.861162 
L 825.307273 -303.594621 
L 825.312951 -306.328081 
L 825.319523 -309.06154 
L 825.327267 -311.795 
L 825.390301 -311.795 
L 825.390301 -311.795 
L 825.398045 -309.06154 
L 825.404617 -306.328081 
L 825.410294 -303.594621 
L 825.416167 -300.861162 
L 825.423577 -298.127702 
L 825.433158 -295.394242 
L 825.444027 -292.660783 
L 825.453844 -289.927323 
L 825.459904 -287.193864 
L 825.460586 -284.460404 
L 825.456223 -281.726944 
L 825.44899 -278.993485 
L 825.442059 -276.260025 
L 825.43856 -273.526566 
L 825.440852 -270.793106 
L 825.450207 -268.059646 
L 825.466568 -265.326187 
L 825.48824 -262.592727 
L 825.512089 -259.859268 
L 825.534984 -257.125808 
L 825.555911 -254.392348 
L 825.576848 -251.658889 
L 825.601058 -248.925429 
L 825.629999 -246.19197 
L 825.661681 -243.45851 
L 825.69203 -240.725051 
L 825.717884 -237.991591 
L 825.738831 -235.258131 
L 825.756768 -232.524672 
L 825.774613 -229.791212 
L 825.795895 -227.057753 
L 825.824681 -224.324293 
L 825.864181 -221.590833 
L 825.914608 -218.857374 
L 825.973121 -216.123914 
L 826.036982 -213.390455 
L 826.106899 -210.656995 
L 826.186866 -207.923535 
L 826.280861 -205.190076 
L 826.390264 -202.456616 
L 826.514588 -199.723157 
L 826.654261 -196.989697 
L 826.812054 -194.256237 
L 826.991218 -191.522778 
L 827.191488 -188.789318 
L 827.40572 -186.055859 
L 827.619212 -183.322399 
L 827.812455 -180.588939 
L 827.967288 -177.85548 
L 828.074491 -175.12202 
L 828.138451 -172.388561 
L 828.175086 -169.655101 
L 828.203597 -166.921641 
L 828.236716 -164.188182 
L 828.274763 -161.454722 
L 828.306775 -158.721263 
L 828.318501 -155.987803 
L 828.302658 -153.254343 
L 828.264864 -150.520884 
L 828.221977 -147.787424 
L 828.195179 -145.053965 
L 828.202211 -142.320505 
L 828.251617 -139.587045 
L 828.340996 -136.853586 
L 828.461007 -134.120126 
L 828.603653 -131.386667 
L 828.768547 -128.653207 
L 828.961518 -125.919747 
L 829.187231 -123.186288 
L 829.44342 -120.452828 
L 829.722023 -117.719369 
L 830.015334 -114.985909 
L 830.321998 -112.252449 
L 830.649894 -109.51899 
L 831.015237 -106.78553 
L 831.437637 -104.052071 
L 831.932822 -101.318611 
L 832.507653 -98.585152 
L 833.160833 -95.851692 
L 833.8878 -93.118232 
L 834.685778 -90.384773 
L 835.557076 -87.651313 
L 836.511573 -84.917854 
L 837.569092 -82.184394 
L 838.759703 -79.450934 
L 840.120398 -76.717475 
L 841.692202 -73.984015 
L 843.52463 -71.250556 
L 845.685993 -68.517096 
L 848.266502 -65.783636 
L 851.359991 -63.050177 
L 855.012273 -60.316717 
L 859.11814 -57.583258 
L 863.264666 -54.849798 
L 866.603495 -52.116338 
L 867.942198 -49.382879 
L 866.19828 -46.649419 
L 861.058965 -43.91596 
L 853.369704 -41.1825 
z
" style="stroke: #595959; stroke-width: 1.5"/>
    </defs>
    <g clip-path="url(#p4b3371b1b8)">
     <use xlink:href="#m73ded5fdd2" x="0" y="347.64375" style="fill: #db96c0; stroke: #595959; stroke-width: 1.5"/>
    </g>
   </g>
   <g id="line2d_10">
    <path d="M 505.983174 306.356605 
L 505.983174 166.515729 
" clip-path="url(#p4b3371b1b8)" style="fill: none; stroke: #595959; stroke-width: 1.5; stroke-linecap: round"/>
   </g>
   <g id="line2d_11">
    <path d="M 505.983174 298.264042 
L 505.983174 245.531579 
" clip-path="url(#p4b3371b1b8)" style="fill: none; stroke: #595959; stroke-width: 4.5; stroke-linecap: round"/>
   </g>
   <g id="line2d_12">
    <path d="M 612.441711 306.286841 
L 612.441711 185.63092 
" clip-path="url(#p4b3371b1b8)" style="fill: none; stroke: #595959; stroke-width: 1.5; stroke-linecap: round"/>
   </g>
   <g id="line2d_13">
    <path d="M 612.441711 292.508556 
L 612.441711 249.604022 
" clip-path="url(#p4b3371b1b8)" style="fill: none; stroke: #595959; stroke-width: 4.5; stroke-linecap: round"/>
   </g>
   <g id="line2d_14">
    <path d="M 718.900247 306.077551 
L 718.900247 178.166229 
" clip-path="url(#p4b3371b1b8)" style="fill: none; stroke: #595959; stroke-width: 1.5; stroke-linecap: round"/>
   </g>
   <g id="line2d_15">
    <path d="M 718.900247 291.531867 
L 718.900247 246.115848 
" clip-path="url(#p4b3371b1b8)" style="fill: none; stroke: #595959; stroke-width: 4.5; stroke-linecap: round"/>
   </g>
   <g id="line2d_16">
    <path d="M 825.358784 306.46125 
L 825.358784 201.048647 
" clip-path="url(#p4b3371b1b8)" style="fill: none; stroke: #595959; stroke-width: 1.5; stroke-linecap: round"/>
   </g>
   <g id="line2d_17">
    <path d="M 825.358784 299.136086 
L 825.358784 259.859252 
" clip-path="url(#p4b3371b1b8)" style="fill: none; stroke: #595959; stroke-width: 4.5; stroke-linecap: round"/>
   </g>
   <g id="patch_6">
    <path d="M 452.753906 319.991875 
L 452.753906 22.318125 
" style="fill: none; stroke: #cccccc; stroke-width: 1.25; stroke-linejoin: miter; stroke-linecap: square"/>
   </g>
   <g id="patch_7">
    <path d="M 878.588052 319.991875 
L 878.588052 22.318125 
" style="fill: none; stroke: #cccccc; stroke-width: 1.25; stroke-linejoin: miter; stroke-linecap: square"/>
   </g>
   <g id="patch_8">
    <path d="M 452.753906 319.991875 
L 878.588052 319.991875 
" style="fill: none; stroke: #cccccc; stroke-width: 1.25; stroke-linejoin: miter; stroke-linecap: square"/>
   </g>
   <g id="patch_9">
    <path d="M 452.753906 22.318125 
L 878.588052 22.318125 
" style="fill: none; stroke: #cccccc; stroke-width: 1.25; stroke-linejoin: miter; stroke-linecap: square"/>
   </g>
   <g id="PathCollection_1">
    <defs>
     <path id="m0c66119e5d" d="M 0 1.5 
C 0.397805 1.5 0.77937 1.341951 1.06066 1.06066 
C 1.341951 0.77937 1.5 0.397805 1.5 0 
C 1.5 -0.397805 1.341951 -0.77937 1.06066 -1.06066 
C 0.77937 -1.341951 0.397805 -1.5 0 -1.5 
C -0.397805 -1.5 -0.77937 -1.341951 -1.06066 -1.06066 
C -1.341951 -0.77937 -1.5 -0.397805 -1.5 0 
C -1.5 0.397805 -1.341951 0.77937 -1.06066 1.06066 
C -0.77937 1.341951 -0.397805 1.5 0 1.5 
z
" style="stroke: #595959"/>
    </defs>
    <g clip-path="url(#p4b3371b1b8)">
     <use xlink:href="#m0c66119e5d" x="505.983174" y="281.503369" style="fill: #ffffff; stroke: #595959"/>
    </g>
   </g>
   <g id="PathCollection_2">
    <g clip-path="url(#p4b3371b1b8)">
     <use xlink:href="#m0c66119e5d" x="612.441711" y="275.137452" style="fill: #ffffff; stroke: #595959"/>
    </g>
   </g>
   <g id="PathCollection_3">
    <g clip-path="url(#p4b3371b1b8)">
     <use xlink:href="#m0c66119e5d" x="718.900247" y="272.765494" style="fill: #ffffff; stroke: #595959"/>
    </g>
   </g>
   <g id="PathCollection_4">
    <g clip-path="url(#p4b3371b1b8)">
     <use xlink:href="#m0c66119e5d" x="825.358784" y="287.311177" style="fill: #ffffff; stroke: #595959"/>
    </g>
   </g>
   <g id="text_21">
    <!-- A:I edit ratio distributions -->
    <g style="fill: #262626" transform="translate(589.488791 16.318125)scale(0.12 -0.12)">
     <defs>
      <path id="DejaVuSans-75" d="M 544 1381 
L 544 3500 
L 1119 3500 
L 1119 1403 
Q 1119 906 1312 657 
Q 1506 409 1894 409 
Q 2359 409 2629 706 
Q 2900 1003 2900 1516 
L 2900 3500 
L 3475 3500 
L 3475 0 
L 2900 0 
L 2900 538 
Q 2691 219 2414 64 
Q 2138 -91 1772 -91 
Q 1169 -91 856 284 
Q 544 659 544 1381 
z
M 1991 3584 
L 1991 3584 
z
" transform="scale(0.015625)"/>
     </defs>
     <use xlink:href="#DejaVuSans-41"/>
     <use xlink:href="#DejaVuSans-3a" x="66.658203"/>
     <use xlink:href="#DejaVuSans-49" x="100.349609"/>
     <use xlink:href="#DejaVuSans-20" x="129.841797"/>
     <use xlink:href="#DejaVuSans-65" x="161.628906"/>
     <use xlink:href="#DejaVuSans-64" x="223.152344"/>
     <use xlink:href="#DejaVuSans-69" x="286.628906"/>
     <use xlink:href="#DejaVuSans-74" x="314.412109"/>
     <use xlink:href="#DejaVuSans-20" x="353.621094"/>
     <use xlink:href="#DejaVuSans-72" x="385.408203"/>
     <use xlink:href="#DejaVuSans-61" x="426.521484"/>
     <use xlink:href="#DejaVuSans-74" x="487.800781"/>
     <use xlink:href="#DejaVuSans-69" x="527.009766"/>
     <use xlink:href="#DejaVuSans-6f" x="554.792969"/>
     <use xlink:href="#DejaVuSans-20" x="615.974609"/>
     <use xlink:href="#DejaVuSans-64" x="647.761719"/>
     <use xlink:href="#DejaVuSans-69" x="711.238281"/>
     <use xlink:href="#DejaVuSans-73" x="739.021484"/>
     <use xlink:href="#DejaVuSans-74" x="791.121094"/>
     <use xlink:href="#DejaVuSans-72" x="830.330078"/>
     <use xlink:href="#DejaVuSans-69" x="871.443359"/>
     <use xlink:href="#DejaVuSans-62" x="899.226562"/>
     <use xlink:href="#DejaVuSans-75" x="962.703125"/>
     <use xlink:href="#DejaVuSans-74" x="1026.082031"/>
     <use xlink:href="#DejaVuSans-69" x="1065.291016"/>
     <use xlink:href="#DejaVuSans-6f" x="1093.074219"/>
     <use xlink:href="#DejaVuSans-6e" x="1154.255859"/>
     <use xlink:href="#DejaVuSans-73" x="1217.634766"/>
    </g>
   </g>
  </g>
 </g>
 <defs>
  <clipPath id="p93d1b344a2">
   <rect x="7.2" y="22.318125" width="356.143432" height="297.67375"/>
  </clipPath>
  <clipPath id="p4b3371b1b8">
   <rect x="452.753906" y="22.318125" width="425.834146" height="297.67375"/>
  </clipPath>
 </defs>
</svg>
